<svg width="5" height="9" viewBox="0 0 5 9" fill="none" xmlns="http://www.w3.org/2000/svg">
<path d="M4.27038 0.0757657C2.95828 0.919618 1.87948 2.07991 1.13325 3.44989C0.387019 4.81986 -0.00267939 6.35551 1.38657e-05 7.91553C1.38657e-05 8.04096 0.0498395 8.16125 0.13853 8.24994C0.227221 8.33863 0.347512 8.38846 0.47294 8.38846C0.598367 8.38846 0.718658 8.33863 0.807349 8.24994C0.89604 8.16125 0.945865 8.04096 0.945865 7.91553C0.943502 6.51356 1.29377 5.1335 1.96444 3.90234C2.6351 2.67118 3.60463 1.62846 4.78382 0.870122C4.83597 0.836404 4.88098 0.792743 4.91626 0.741632C4.95155 0.69052 4.97642 0.632959 4.98946 0.572236C5.0025 0.511512 5.00345 0.448814 4.99226 0.387723C4.98107 0.326631 4.95795 0.268343 4.92423 0.216185C4.89052 0.164027 4.84686 0.119021 4.79574 0.0837361C4.74463 0.0484515 4.68707 0.0235794 4.62635 0.0105402C4.56562 -0.00249896 4.50293 -0.00344988 4.44184 0.00774149C4.38074 0.0189329 4.32246 0.0420476 4.2703 0.0757657H4.27038Z" fill="black"/>
</svg>
