<svg width="21" height="28" viewBox="0 0 21 28" fill="none" xmlns="http://www.w3.org/2000/svg">
<path d="M20.9742 15.1558C20.915 14.6823 20.7581 14.2263 20.5134 13.8167C20.2688 13.407 19.9417 13.0527 19.5529 12.7761C19.164 12.4995 18.722 12.3067 18.2548 12.2099C17.7876 12.1131 17.3053 12.1145 16.8386 12.2139L17.7517 10.616C18.2274 9.78355 18.5283 8.86278 18.636 7.91002C18.7437 6.95727 18.656 5.99255 18.3781 5.07487C18.1003 4.15718 17.6382 3.30581 17.0201 2.57282C16.402 1.83982 15.6408 1.2406 14.7832 0.811803C13.4736 0.162047 12.0076 -0.106133 10.5528 0.0379184C9.09796 0.18197 7.71302 0.732439 6.55626 1.62641C5.07764 2.77857 3.90305 4.27468 3.13473 5.9845L0 12.9774L1.15039 13.493L4.28507 6.50017C4.96889 4.97842 6.01429 3.64687 7.33027 2.62144C8.29896 1.87292 9.45869 1.41202 10.6769 1.2914C11.8952 1.17078 13.1228 1.39531 14.2194 1.93933C14.9237 2.29146 15.5487 2.78354 16.0563 3.38547C16.5639 3.98741 16.9434 4.68655 17.1716 5.44015C17.3998 6.19375 17.4718 6.98598 17.3834 7.76838C17.2949 8.55078 17.0478 9.30692 16.6572 9.99057L14.9818 12.9225C14.9196 13.0313 14.8913 13.1562 14.9004 13.2811C14.9095 13.4061 14.9557 13.5255 15.033 13.6242C15.1104 13.7228 15.2153 13.7961 15.3345 13.8348C15.4537 13.8734 15.5817 13.8757 15.7022 13.8413L16.9561 13.483C17.4623 13.3384 18.0036 13.3815 18.4805 13.6043C18.9574 13.8271 19.3378 14.2146 19.5517 14.6956C19.7656 15.1765 19.7986 15.7186 19.6446 16.222C19.4906 16.7253 19.16 17.1561 18.7136 17.4351L10.4459 22.6024L10.1896 22.4798L9.92028 23.0433L8.29584 26.2922L4.34905 24.6304L3.85984 25.7923L8.35089 27.6832C8.4984 27.7455 8.66407 27.7492 8.81423 27.6937C8.96439 27.6381 9.08777 27.5275 9.15926 27.3842L10.9709 23.7609L19.3818 18.5042C19.9379 18.155 20.383 17.6546 20.665 17.0616C20.947 16.4686 21.0543 15.8075 20.9742 15.1558Z" fill="#1071FF"/>
</svg>
