<svg width="40" height="26" viewBox="0 0 40 26" fill="none" xmlns="http://www.w3.org/2000/svg">
<path d="M10.74 22.1177C10.74 22.5211 10.4152 22.8475 10.0104 22.8475C8.15535 22.8475 4.7713 19.5424 3.35747 15.4389C3.22567 15.0568 3.42858 14.6434 3.81121 14.5122C4.19176 14.3767 4.60799 14.5835 4.73901 14.9656C6.07001 18.8282 9.13055 21.3878 10.0104 21.3878C10.4165 21.3878 10.74 21.716 10.74 22.1177ZM39.9998 20.8736C39.9904 21.2685 39.6669 21.586 39.2699 21.586C39.2645 21.586 39.2569 21.586 39.252 21.586L35.0745 21.4863L37.66 23.5143C37.9762 23.7623 38.0301 24.2202 37.7821 24.538C37.6368 24.7231 37.4229 24.8172 37.2065 24.8172C37.0494 24.8172 36.889 24.7664 36.7546 24.6632L33.3184 21.9666C32.5586 24.3507 29.6739 25.5653 24.6898 25.5653C24.4306 25.5653 24.1665 25.5624 23.8886 25.5567C21.2133 25.4939 18.4807 25.1047 16.2151 24.4379C15.1146 25.1774 14.0493 25.5637 13.0699 25.5637C12.5938 25.5637 12.1359 25.4754 11.7056 25.2975C11.5712 25.2417 11.4381 25.1761 11.3073 25.0935C11.1716 25.1761 11.0385 25.243 10.909 25.2975C9.91743 25.7062 8.75156 25.6382 7.53855 25.0907C4.82574 23.8665 1.92383 20.2717 0.63971 16.5446C-0.939527 11.9793 0.437063 8.41583 4.41654 6.76808C6.77693 5.79184 8.90628 5.98589 10.5777 7.28642V0.730101C10.5777 0.326371 10.9059 0 11.3076 0C11.709 0 12.0371 0.326371 12.0371 0.730101V2.73234C12.444 2.0546 13.0064 1.36409 13.7727 0.894458C14.5051 0.446187 15.3793 0.220099 16.3693 0.220099C17.487 0.220099 18.3669 0.516775 18.407 0.528236C18.7581 0.649355 18.9654 1.01714 18.8805 1.38206C18.8542 1.49615 18.2192 4.20192 16.2331 5.42041C15.4978 5.86868 14.6215 6.09477 13.6305 6.09477C12.9621 6.09477 12.4065 5.99266 12.0371 5.90384V7.28564C13.7083 5.98224 15.8377 5.78975 18.1978 6.76887C19.018 7.10748 19.6966 7.54715 20.2956 8.04023L19.4408 3.84117C19.4265 3.78569 19.4379 3.73438 19.4408 3.68098C19.3804 3.54059 19.3402 3.3942 19.3402 3.23401C19.3402 0.961139 25.7997 0.846271 27.0934 0.846271C28.3874 0.846271 34.8456 0.961399 34.8456 3.23401C34.8456 3.39576 34.8057 3.54475 34.7458 3.68645C34.7458 3.74479 34.7541 3.80184 34.7401 3.86175L31.7043 17.2104C32.5409 17.799 33.1127 18.5229 33.3632 19.4041L37.1601 16.9226C37.4956 16.7045 37.9483 16.796 38.1694 17.1348C38.3888 17.4711 38.296 17.9243 37.9556 18.1442L35.0779 20.0255L39.2897 20.1253C39.6911 20.1368 40.0097 20.4733 39.9998 20.8736ZM12.7706 4.56814C13.0168 4.60591 13.3135 4.63795 13.6346 4.63795C14.3525 4.63795 14.9747 4.48505 15.4764 4.17848C16.4165 3.60336 16.9663 2.48516 17.2406 1.75688C16.9929 1.71781 16.6962 1.68421 16.374 1.68421C15.6556 1.68421 15.0373 1.83867 14.5374 2.14394C13.6041 2.71593 13.046 3.83674 12.7706 4.56814ZM30.3678 16.4941L33.0074 4.8979C30.9953 5.5694 27.9392 5.62279 27.0926 5.62279C26.2404 5.62279 23.1559 5.5694 21.1432 4.88592L22.4516 11.3047C22.4729 11.4045 22.4701 11.5037 22.4505 11.5972C22.6852 12.7477 22.6284 14.0391 22.2849 15.4389C22.6146 15.4303 22.9431 15.422 23.2739 15.422C23.5534 15.422 23.8383 15.4254 24.1241 15.4334C26.773 15.4957 28.8318 15.8606 30.3678 16.4941ZM20.9479 3.23688C21.598 3.61612 23.7107 4.16337 27.088 4.16337C30.4676 4.16337 32.5813 3.61612 33.2346 3.23688C32.5813 2.85633 30.4676 2.30908 27.088 2.30908C23.7091 2.30882 21.6022 2.85607 20.9479 3.23688ZM14.4051 23.7951C12.3062 22.9019 10.9273 21.69 10.9637 20.1889C11.0234 17.4912 15.6181 15.9062 20.7697 15.5197C22.0822 11.0479 19.8284 9.02455 17.6407 8.12045C15.9786 7.43124 13.6346 7.11633 11.9022 9.53299C11.8918 9.54653 11.8772 9.5507 11.8686 9.56242C11.7342 9.7273 11.5389 9.838 11.3094 9.838C11.0838 9.838 10.8848 9.72756 10.7522 9.56372C10.74 9.55096 10.7231 9.54809 10.7189 9.53455C8.98469 7.1179 6.64227 7.43307 4.97838 8.12071C2.69873 9.06336 0.338084 11.2073 2.02437 16.0719C3.1681 19.4022 5.80121 22.7089 8.14102 23.7654C8.98755 24.1488 9.73015 24.2129 10.354 23.954C10.5056 23.8909 10.6702 23.7896 10.8611 23.6401C11.1268 23.4302 11.4977 23.4302 11.7621 23.6401C11.953 23.7896 12.1182 23.8909 12.2687 23.954C12.9584 24.2387 13.7161 24.0944 14.4051 23.7951ZM32.0739 20.6853C32.1156 18.8315 30.4835 17.6521 27.2463 17.1578L27.2023 19.1332C27.1937 19.5294 26.8679 19.8458 26.4725 19.8458C26.4667 19.8458 26.4594 19.8458 26.4542 19.8458C26.0534 19.8359 25.7343 19.5038 25.7429 19.0991L25.7905 16.9822C25.2529 16.9382 24.6898 16.9054 24.0829 16.8926C23.8091 16.884 23.5367 16.8809 23.2671 16.8809C22.9652 16.8809 22.6714 16.8895 22.3779 16.8955L22.3305 19.0165C22.3206 19.4127 21.9957 19.7289 21.6009 19.7289C21.5936 19.7289 21.5884 19.7289 21.5824 19.7289C21.182 19.719 20.8611 19.3871 20.8713 18.9821L20.9161 16.9637C19.864 17.0392 18.8831 17.1645 17.9902 17.3286L17.9433 19.4095C17.9347 19.8057 17.6089 20.1219 17.2135 20.1219C17.2075 20.1219 17.2018 20.1219 17.1966 20.1219C16.7952 20.1107 16.4753 19.7802 16.4839 19.3752L16.5235 17.6506C13.9821 18.3096 12.438 19.2913 12.4193 20.2147C12.3859 21.7199 16.7465 23.9219 23.9248 24.0902C29.3121 24.2269 32.0197 23.0725 32.0739 20.6853Z" fill="black"/>
</svg>
