<svg width="2" height="4" viewBox="0 0 2 4" fill="none" xmlns="http://www.w3.org/2000/svg">
<path d="M0.373083 3.79C0.441031 3.81266 0.512779 3.82171 0.584225 3.81663C0.655671 3.81156 0.725416 3.79246 0.78948 3.76042C0.853545 3.72839 0.910672 3.68405 0.957599 3.62994C1.00453 3.57583 1.04034 3.513 1.06298 3.44505L1.97194 0.718186C2.01774 0.580957 2.00716 0.431153 1.94251 0.301729C1.87786 0.172306 1.76445 0.0738644 1.62722 0.0280611C1.48999 -0.0177422 1.34018 -0.00715548 1.21076 0.0574923C1.08134 0.12214 0.982895 0.235553 0.937091 0.372782L0.0281354 3.09965C0.00541141 3.16763 -0.00369029 3.23942 0.00135045 3.31091C0.00639118 3.38241 0.0254743 3.45221 0.0575111 3.51633C0.089548 3.58044 0.133909 3.63762 0.188057 3.68457C0.242205 3.73153 0.305079 3.76736 0.373083 3.79Z" fill="black"/>
</svg>
