<svg width="37" height="37" viewBox="0 0 37 37" fill="none" xmlns="http://www.w3.org/2000/svg">
<path d="M18.5 6.91683e-05C14.8411 2.53196e-05 11.2643 1.085 8.22198 3.11778C5.17966 5.15056 2.80846 8.03985 1.40823 11.4203C0.00800988 14.8007 -0.358348 18.5204 0.355489 22.1091C1.06933 25.6977 2.8313 28.9941 5.41859 31.5813C7.13647 33.2992 9.17589 34.6619 11.4204 35.5916C13.6649 36.5213 16.0706 36.9998 18.5 36.9998C20.9295 36.9998 23.3351 36.5213 25.5797 35.5916C27.8242 34.6619 29.8636 33.2992 31.5815 31.5813C33.2994 29.8634 34.6621 27.824 35.5918 25.5795C36.5215 23.335 37 20.9293 37 18.4999C37 16.0704 36.5215 13.6648 35.5918 11.4202C34.6621 9.17573 33.2994 7.13631 31.5815 5.41843C29.8676 3.69518 27.8289 2.32898 25.5835 1.39892C23.3381 0.468859 20.9305 -0.00659851 18.5 6.91683e-05ZM18.5 0.95318C19.7675 0.952639 21.0313 1.08826 22.2698 1.3577L18.5 4.10091L14.7328 1.35714C15.9705 1.08808 17.2334 0.952651 18.5 0.95318ZM24.3568 17.3762L22.1165 24.3774H14.8842L12.6432 17.3391L18.4988 13.0141L24.3568 17.3762ZM3.8832 8.78291L4.12148 9.72164C4.14759 9.82428 4.20714 9.9153 4.29073 9.98033C4.37433 10.0454 4.4772 10.0807 4.58311 10.0807H4.58398C4.65648 10.0807 4.728 10.0641 4.79312 10.0322C4.85823 10.0003 4.91522 9.95401 4.95973 9.89679C5.00425 9.83957 5.03512 9.77294 5.05 9.70199C5.06488 9.63104 5.06338 9.55762 5.0456 9.48734L4.61098 7.7734C5.06908 7.18256 5.56393 6.62116 6.0926 6.09251C8.16164 4.01435 10.721 2.49104 13.5342 1.66325L17.9821 4.90295L18.0218 12.1813L12.0578 16.5867L6.05876 13.4583L5.85448 12.6625C5.84067 12.6 5.81444 12.541 5.77735 12.4889C5.74026 12.4369 5.69308 12.3928 5.6386 12.3593C5.58412 12.3259 5.52346 12.3037 5.46024 12.2942C5.39702 12.2846 5.33252 12.2879 5.27059 12.3038C5.20867 12.3197 5.15058 12.3479 5.09978 12.3868C5.04898 12.4256 5.00651 12.4742 4.97491 12.5298C4.9433 12.5854 4.9232 12.6468 4.91581 12.7103C4.90841 12.7738 4.91387 12.8381 4.93186 12.8995L5.10255 13.5638L1.1504 15.856C1.5287 13.3257 2.46192 10.9103 3.8832 8.78291ZM0.953341 18.4999C0.953341 18.007 0.974786 17.5174 1.01474 17.0315L5.666 14.3283L11.6835 17.4665L13.9878 24.7038L9.59377 28.7278L4.01704 28.4122C2.01275 25.496 0.944112 22.0385 0.953341 18.4999ZM6.0926 30.9072C5.61899 30.4332 5.17244 29.9329 4.75506 29.4087L9.39354 29.6708L10.5574 34.1553C8.90744 33.3144 7.40059 32.2182 6.0926 30.9072ZM18.5 36.0466C16.157 36.0504 13.8369 35.584 11.6773 34.6751L10.3007 29.3726L14.7148 25.3305H22.3221L26.7229 29.3723L25.3489 34.6638C23.182 35.5801 20.8527 36.0503 18.5 36.0466ZM30.9075 30.9072C29.6066 32.2109 28.109 33.3022 26.4695 34.1412L27.63 29.6711L32.2438 29.4101C31.8268 29.9339 31.3807 30.4337 30.9075 30.9072ZM36.0467 18.4999C36.056 22.0391 34.987 25.4972 32.9821 28.4137L27.4302 28.7278L23.021 24.6783L25.3298 17.463L31.3353 14.3283L35.985 17.0303C36.0253 17.5165 36.0467 18.0065 36.0467 18.4999ZM35.8482 15.8485L31.8981 13.5531L33.1144 8.77933C34.5356 10.9054 35.4692 13.3194 35.8485 15.8485H35.8482ZM30.9385 13.4603L24.9157 16.604L18.9753 12.1806L18.9356 4.96268L23.4685 1.66404C26.2807 2.49207 28.839 4.01508 30.9073 6.09251C31.4354 6.62064 31.9298 7.18144 32.3876 7.77158L30.9385 13.4603Z" fill="black"/>
</svg>
