<svg width="40" height="27" viewBox="0 0 40 27" fill="none" xmlns="http://www.w3.org/2000/svg">
<path d="M34.1666 0H5.83336C2.61664 0 0 2.61672 0 5.83336V20.8334C0 24.05 2.61664 26.6667 5.83336 26.6667H34.1667C37.3834 26.6667 40 24.05 40 20.8334V5.83336C40 2.61672 37.3834 0 34.1666 0ZM38.3334 20.8334C38.3334 23.13 36.465 25 34.1667 25H5.83336C3.535 25 1.66672 23.13 1.66672 20.8334V5.83336C1.66672 3.53672 3.53508 1.66672 5.83336 1.66672H34.1667C36.4651 1.66672 38.3334 3.53672 38.3334 5.83336V20.8334Z" fill="black"/>
</svg>
