<svg width="12" height="14" viewBox="0 0 12 14" fill="none" xmlns="http://www.w3.org/2000/svg">
<path d="M11.6407 0.161206C11.2585 -0.113069 10.7218 -0.0256352 10.4458 0.360102L3.4288 10.1835V0.857219C3.4288 0.384049 3.04475 0 2.57158 0H0.857221C0.38405 0 0 0.384049 0 0.857219C0 1.33039 0.38405 1.71444 0.857221 1.71444H1.71444V12.858C1.71444 13.23 1.95617 13.5609 2.30936 13.674C2.39511 13.7015 2.48423 13.7152 2.57166 13.7152C2.84256 13.7152 3.10486 13.5849 3.26768 13.3569L11.8396 1.35619C12.1156 0.972138 12.0265 0.435481 11.6407 0.161206Z" fill="black"/>
</svg>
