<svg width="40" height="31" viewBox="0 0 40 31" fill="none" xmlns="http://www.w3.org/2000/svg">
<path d="M39.4181 25.857L34.094 24.4509C34.1749 24.3095 34.2526 24.1659 34.3271 24.0202C34.7462 23.1995 35.0606 22.3113 35.2691 21.3623L39.2702 19.802C39.6722 19.6452 39.8709 19.1922 39.7142 18.7904C39.5574 18.3883 39.1045 18.1894 38.7024 18.3463L35.5301 19.5835C35.5601 19.2022 35.5751 18.813 35.5751 18.4162C35.5751 16.0927 35.0554 13.7611 34.0794 11.6096C35.2416 10.9329 36.13 10.0955 36.7237 9.11594C39.1913 5.04496 35.9952 0.758437 35.8579 0.577892C35.7488 0.434378 35.5933 0.333051 35.418 0.29102C35.1555 0.228208 28.9601 -1.20076 26.4729 2.90287C26.3651 3.08092 26.2651 3.26693 26.174 3.45911C25.4053 3.09506 24.6106 2.79787 23.7984 2.5735C23.3825 2.45912 22.9522 2.70264 22.8374 3.11865C22.7225 3.53458 22.9666 3.96481 23.3824 4.07973C29.542 5.78073 34.0126 11.8101 34.0126 18.4162C34.0126 19.0552 33.9703 19.6568 33.8901 20.2231L27.2711 22.8043C26.5754 23.0484 26.6416 24.1303 27.3604 24.2888L31.4713 25.3745C28.2732 28.7101 22.8545 29.1921 20 29.1921C17.1456 29.1921 11.7268 28.71 8.52874 25.3745L12.6402 24.2888C13.3656 24.1285 13.421 23.0342 12.7179 22.8001L6.10994 20.2232C6.0297 19.6569 5.98736 19.0554 5.98736 18.4163C5.98736 11.8026 10.464 5.77152 16.6319 4.07591C17.0479 3.96153 17.2925 3.53154 17.178 3.11552C17.0637 2.69943 16.6337 2.45498 16.2177 2.56928C15.3998 2.79412 14.5997 3.09279 13.826 3.45927C13.7348 3.26709 13.6349 3.08107 13.5271 2.90303C11.0399 -1.20061 4.84463 0.228286 4.58206 0.291098C4.40667 0.333129 4.25128 0.434456 4.14214 0.57797C4.00488 0.758515 0.808813 5.04504 3.27637 9.11601C3.87011 10.0956 4.75846 10.9329 5.92064 11.6096C4.94463 13.761 4.42495 16.0925 4.42495 18.4162C4.42495 18.813 4.44003 19.2022 4.47003 19.5835L1.29764 18.3464C0.895687 18.1895 0.442722 18.3884 0.285927 18.7905C0.129132 19.1924 0.327958 19.6453 0.729907 19.8021L4.73096 21.3624C4.93948 22.3114 5.25393 23.1996 5.67299 24.0202C5.74736 24.166 5.82509 24.3095 5.90611 24.451L0.58194 25.857C0.164756 25.9672 -0.0840696 26.3948 0.0260856 26.8119C0.118585 27.1623 0.43491 27.3939 0.780922 27.3939C0.846937 27.3939 0.914046 27.3855 0.98092 27.3678L6.84423 25.8194C7.47578 26.5973 8.2271 27.2919 9.09194 27.8957C11.7707 29.7659 15.5427 30.7546 20 30.7546C24.4574 30.7546 28.2293 29.766 30.9081 27.8957C31.773 27.2919 32.5243 26.5973 33.1558 25.8194L39.0191 27.3678C39.086 27.3855 39.153 27.3939 39.2191 27.3939C39.5651 27.3939 39.8814 27.1622 39.9739 26.8119C40.0841 26.3948 39.8352 25.9672 39.4181 25.857ZM27.5524 4.20036C27.6296 4.03059 27.7155 3.86731 27.8091 3.71286C29.4507 1.00453 33.6441 1.55132 34.7718 1.75452C35.3208 2.601 37.0196 5.61339 35.3875 8.3061C34.943 9.03937 34.2649 9.68015 33.3681 10.2152C33.0265 9.61492 32.6473 9.03336 32.2323 8.47516C30.9359 6.73182 29.3359 5.27886 27.5524 4.20036ZM4.61253 8.3061C2.9795 5.61183 4.6812 2.5974 5.22869 1.75366C6.3561 1.54827 10.5432 0.994294 12.1909 3.71286C12.2846 3.86739 12.3705 4.03059 12.4476 4.20044C10.6664 5.27746 9.06827 6.72799 7.77258 8.4686C7.35563 9.02875 6.97485 9.61257 6.63181 10.2152C5.73509 9.68007 5.05698 9.03937 4.61253 8.3061ZM6.53993 22.0678L9.92763 23.389L7.47539 24.0367C7.1 23.4485 6.78337 22.7947 6.53993 22.0678ZM30.0724 23.3889L33.4601 22.0678C33.2166 22.7947 32.9 23.4485 32.5246 24.0365L30.0724 23.3889Z" fill="black"/>
</svg>
