<svg width="40" height="40" viewBox="0 0 40 40" fill="none" xmlns="http://www.w3.org/2000/svg">
<path d="M30 3.63639C29.449 3.63639 28.8733 3.70926 28.2755 3.82031C26.2732 1.48628 23.3093 0 20 0C16.6907 0 13.7267 1.48628 11.7245 3.82022C11.1266 3.70926 10.5509 3.6363 10 3.6363C4.48593 3.63639 0 8.12232 0 13.6363C0 17.4147 2.13068 20.8495 5.47584 22.5479L5.45812 36.2863C5.45726 37.2779 5.84249 38.2101 6.54297 38.9115C7.24431 39.6138 8.17558 39.9999 9.16729 39.9999H30.8363C32.8817 39.9999 34.5455 38.3362 34.5455 36.2907V22.5346C37.8782 20.8318 40 17.4023 40 13.6363C39.9999 8.12232 35.514 3.63639 30 3.63639ZM32.7272 36.2908C32.7272 37.3331 31.8785 38.1819 30.8362 38.1819H9.1672C8.66206 38.1819 8.18709 37.9847 7.82931 37.627C7.47237 37.2692 7.27533 36.7943 7.27618 36.2883L7.28096 32.7272H32.7272V36.2908ZM33.2901 21.1195C33.2421 21.139 33.1968 21.1621 33.1542 21.1896C33.0397 21.2606 32.9456 21.3548 32.8754 21.463C32.8044 21.5704 32.7565 21.6947 32.7369 21.8279C32.7289 21.8785 32.7263 21.9291 32.7271 21.9806V30.909H7.28326L7.29493 21.993C7.29578 21.9433 7.29314 21.8926 7.28607 21.8438C7.26655 21.7062 7.21593 21.5783 7.14221 21.4674C7.07292 21.3635 6.9824 21.273 6.87229 21.2037C6.82704 21.1753 6.77905 21.1504 6.72937 21.1299C3.74556 19.8251 1.81815 16.8865 1.81815 13.6363C1.81815 9.12459 5.48829 5.45454 9.99996 5.45454C10.1763 5.45454 10.3624 5.47584 10.5451 5.49025C9.6253 7.08877 9.09084 8.93598 9.09084 10.9091C9.09084 11.4116 9.49746 11.8182 9.99996 11.8182C10.5025 11.8182 10.9091 11.4116 10.9091 10.9091C10.9091 5.89661 14.9875 1.81815 20 1.81815C25.0125 1.81815 29.0908 5.89661 29.0908 10.9091C29.0908 11.4116 29.4975 11.8182 30 11.8182C30.5025 11.8182 30.9091 11.4116 30.9091 10.9091C30.9091 8.93598 30.3746 7.08885 29.4548 5.49025C29.6375 5.47584 29.8236 5.45454 30 5.45454C34.5117 5.45454 38.1818 9.12467 38.1818 13.6363C38.1818 16.875 36.2624 19.8099 33.2901 21.1195Z" fill="#1071FF"/>
</svg>
