<svg width="39" height="40" viewBox="0 0 39 40" fill="none" xmlns="http://www.w3.org/2000/svg">
<path d="M37.4568 4.3999H34.2651V1.20904C34.2646 0.541952 33.727 0 33.056 0H27.5498C26.887 0 26.3407 0.541952 26.3407 1.20904C23.5166 1.24571 20.8367 2.36931 18.803 4.3766C15.3943 1.0058 9.93679 0.239908 5.7427 2.65755C2.20103 4.71532 0 8.61686 0 12.8433C0 14.0523 0.186404 15.2562 0.521672 16.3082C0.756402 17.4227 1.37818 18.3828 1.98011 19.3083C2.49315 20.1014 3.02475 20.923 3.32895 21.8567C3.79884 23.2875 3.54383 28.0546 3.26854 30.8503C3.26854 34.8972 6.29113 38.4648 10.9668 39.94C11.3322 40.0548 11.7288 39.8951 12.0403 39.666C12.3492 39.4399 12.5309 38.9813 12.5309 38.5994C12.5309 30.7885 15.7757 25.5373 18.8065 25.5373C21.8394 25.5373 25.0834 30.789 25.0834 38.5424L26.2454 38.6913V38.6965L25.0691 38.7918C25.0691 39.1784 25.2534 39.5392 25.5645 39.7666C25.7733 39.9176 26.0227 40 26.2773 40C26.3955 40 26.5228 39.981 26.6376 39.9461C31.3163 38.4773 34.3384 34.9024 34.3337 30.7307C34.0597 28.0602 33.8055 23.3048 34.2819 21.8718C34.5839 20.9368 35.1181 20.1139 35.6394 19.3217C36.2396 18.3905 36.8622 17.4283 37.0659 16.4363C37.4326 15.2937 37.6156 14.0894 37.6156 12.8506C37.6156 12.6474 37.6156 12.4739 37.6061 12.3087C38.2063 12.2414 38.6758 11.7503 38.6758 11.1316V5.62663C38.6654 4.94186 38.1273 4.3999 37.4568 4.3999ZM28.7588 5.60894V2.41764H31.847V5.60894C31.847 6.27948 32.3898 6.81798 33.056 6.81798H36.2478V9.90658H33.056C32.3898 9.90658 31.847 10.4447 31.847 11.1152V14.3065H28.7588V11.1152C28.7588 10.4447 28.2151 9.90658 27.5498 9.90658H24.3602V6.81754H27.5498C28.2151 6.81754 28.7588 6.27948 28.7588 5.60894ZM26.3407 4.3999H23.1516C23.0109 4.3999 22.8884 4.43874 22.7633 4.48016C23.8731 3.93131 25.0877 3.64307 26.3407 3.62409V4.3999ZM34.7224 15.8051C34.5809 16.4795 34.1279 17.1781 33.5988 17.9905C33.028 18.8734 32.3816 19.8744 31.9743 21.1025C31.1907 23.4856 31.8453 30.2034 31.9178 30.8377C31.9178 33.3671 30.2091 35.6687 27.451 37.0128C27.0182 29.0984 23.3734 23.1059 18.7979 23.1059C14.2504 23.1059 10.6211 29.025 10.162 37.0223C7.39358 35.6855 5.67927 33.3909 5.67539 30.9646C5.7522 30.2034 6.40288 23.4765 5.62189 21.0938C5.21801 19.8641 4.57466 18.8695 4.00423 17.991C3.47911 17.1785 3.02475 16.4803 2.85344 15.6916C2.56262 14.7608 2.41289 13.8008 2.41289 12.839C2.41289 9.46646 4.15137 6.36966 6.94613 4.74855C10.534 2.68128 15.2445 3.63876 17.8499 6.93059C18.0794 7.21452 18.4281 7.38452 18.7974 7.38452C19.1681 7.38452 19.5163 7.21452 19.7459 6.93059C20.4535 6.03266 21.3242 5.34401 22.2645 4.79213C22.0673 5.00917 21.9387 5.28791 21.9387 5.60463V11.1109C21.9387 11.7728 22.4819 12.3195 23.1473 12.3195H26.336V15.5082C26.336 16.1727 26.8784 16.7168 27.545 16.7168H33.0539C33.7188 16.7168 34.262 16.1727 34.262 15.5082V12.3195H35.1639C35.1755 12.4718 35.1854 12.6168 35.1854 12.8295C35.1902 13.8258 35.0443 14.7841 34.7224 15.8051ZM12.3497 6.84257C12.3497 7.51181 11.809 8.05161 11.1411 8.05161C10.4481 8.05161 9.78404 8.23499 9.17089 8.59356C7.73964 9.42461 6.85206 11.0487 6.85206 12.8437C6.85206 13.3585 6.93275 13.8685 7.08679 14.3501C7.10103 14.401 7.17913 14.6525 7.18819 14.703C7.2348 14.8316 7.51656 15.2566 7.72799 15.5777C8.40888 16.6365 9.25546 17.9448 9.83539 19.7148C10.0429 20.3555 9.6986 21.0356 9.06216 21.2431C8.93918 21.2871 8.8106 21.3009 8.68762 21.3009C8.1789 21.3009 7.70598 20.9752 7.539 20.4621C7.0553 18.9916 6.33686 17.8775 5.70128 16.8903C5.1192 15.9997 4.99536 15.771 4.92071 15.5824C4.89353 15.5172 4.83096 15.229 4.81672 15.1574C4.55179 14.3639 4.43399 13.6075 4.43399 12.8386C4.43399 10.1836 5.78585 7.75647 7.95884 6.49695C8.94608 5.92609 10.0188 5.63397 11.1428 5.63397C11.8142 5.63397 12.3497 6.17549 12.3497 6.84257Z" fill="black"/>
</svg>
