<svg width="18" height="20" viewBox="0 0 18 20" fill="none" xmlns="http://www.w3.org/2000/svg">
<path d="M15.8587 13.8923L7.78968 18.9352L8.45512 20L16.5245 14.9569C16.8421 14.7599 17.0776 14.4546 17.1875 14.0974C17.2974 13.7402 17.2743 13.3553 17.1224 13.0138C16.9705 12.6723 16.7001 12.3974 16.3612 12.2398C16.0224 12.0822 15.6379 12.0527 15.2789 12.1566L11.0649 13.3606L14.2639 7.76263C14.6105 7.15574 14.8297 6.48453 14.9081 5.79005C14.9865 5.09556 14.9224 4.39239 14.7198 3.7235C14.5172 3.05462 14.1803 2.43408 13.7297 1.89982C13.2792 1.36556 12.7244 0.928799 12.0992 0.616241C11.1139 0.123596 10.0092 -0.0801806 8.91286 0.0284586C7.81654 0.137098 6.77335 0.553718 5.9038 1.23018C4.67443 2.18859 3.69768 3.4327 3.05843 4.85441L0 11.6771L1.1458 12.1907L4.20411 5.36826C4.75912 4.13378 5.6072 3.0535 6.67466 2.22132C7.35718 1.6903 8.17603 1.36325 9.03658 1.27796C9.89713 1.19267 10.7643 1.35263 11.5377 1.73935C12.0101 1.97554 12.4294 2.30559 12.7699 2.70932C13.1104 3.11305 13.365 3.58199 13.5181 4.08746C13.6712 4.59293 13.7196 5.12431 13.6604 5.64913C13.6012 6.17395 13.4355 6.68118 13.1736 7.1398L9.20973 14.0764C9.1478 14.1847 9.11959 14.3091 9.12868 14.4336C9.13777 14.558 9.18376 14.677 9.26077 14.7752C9.33779 14.8734 9.44233 14.9465 9.56105 14.985C9.67977 15.0235 9.80727 15.0258 9.92728 14.9915L15.6249 13.3636C15.6516 13.3557 15.6793 13.3516 15.7072 13.3512C15.7777 13.3526 15.8453 13.3792 15.8979 13.4262C15.9504 13.4732 15.9844 13.5374 15.9937 13.6073C16.0001 13.6626 15.9908 13.7187 15.9669 13.7691C15.9431 13.8195 15.9056 13.8622 15.8587 13.8923Z" fill="#1071FF"/>
</svg>
