<svg width="7" height="10" viewBox="0 0 7 10" fill="none" xmlns="http://www.w3.org/2000/svg">
<path d="M6.04018 0.182254C5.90519 0.145616 2.69874 -0.641055 1.4621 1.36554C1.06876 2.0005 0.948771 2.6421 1.10212 3.27042C1.39374 4.47034 2.63703 5.2103 3.23363 5.56692C4.19357 6.13688 4.7019 6.71349 4.59519 7.10518C4.53855 7.30681 4.35185 7.80678 3.8036 8.09848C3.17864 8.43182 2.24369 8.40182 1.10212 8.01512C0.665507 7.87177 0.193815 8.10012 0.0438238 8.53673C-0.102808 8.97334 0.130459 9.44667 0.565433 9.59502C1.35874 9.86501 2.09198 10 2.7553 10C3.43862 10 4.05023 9.85837 4.58855 9.57003C5.3785 9.15005 5.96683 8.41174 6.20509 7.54351C6.43344 6.70021 6.25345 5.42365 4.08686 4.13537C3.71853 3.91538 2.84858 3.39705 2.72194 2.87544C2.70695 2.80881 2.65695 2.60546 2.88194 2.24212C3.37191 1.44217 5.07345 1.6588 5.63177 1.79715C6.08338 1.91215 6.53007 1.6388 6.64171 1.19219C6.75514 0.747218 6.4868 0.295528 6.04018 0.182254Z" fill="black"/>
</svg>
