<svg width="29" height="29" viewBox="0 0 29 29" fill="none" xmlns="http://www.w3.org/2000/svg">
<path d="M24.7519 4.24811C22.0369 1.51598 18.3455 -0.00852878 14.5 3.58926e-05C6.49202 3.58926e-05 0 6.49205 0 14.5C0 22.508 6.49202 29 14.5 29C22.5079 29 29 22.508 29 14.5C29 10.6545 27.4755 6.96311 24.7519 4.24811ZM25.6512 8.22212C26.0794 8.97581 26.422 9.76376 26.6875 10.586L23.3045 10.5688L25.6512 8.22212ZM17.9687 2.18403C18.6967 2.38958 19.4075 2.65508 20.0927 2.98911L17.943 5.13884L17.9687 2.18403ZM10.5517 2.32963L10.5174 5.38721L8.38481 3.25461C9.07855 2.88633 9.80654 2.56944 10.5517 2.32963ZM3.08328 8.72743L5.07028 10.7144L2.29533 10.663C2.50088 10.0036 2.76639 9.35265 3.08328 8.72743ZM2.19255 17.9944L5.13024 17.9516L2.98907 20.0927C2.66361 19.4247 2.39811 18.7224 2.19255 17.9944ZM10.5517 26.6704C9.74659 26.4049 8.96721 26.0709 8.22208 25.6512L10.5517 23.3216V26.6704ZM17.9944 26.7989L17.9515 23.6043L20.264 25.9167C19.536 26.285 18.7823 26.5762 17.9944 26.7989ZM25.7368 20.6152L23.2959 18.1743L26.7646 18.14C26.5076 18.9965 26.1651 19.8272 25.7368 20.6152ZM21.2318 16.4699C20.7608 16.4699 20.3753 16.8639 20.3839 17.3349C20.3839 17.5576 20.4781 17.7717 20.6323 17.9344L24.7861 22.0883C24.4179 22.6022 23.9982 23.0904 23.5443 23.5443C23.0047 24.0839 22.4137 24.5806 21.7885 25.0174L17.6775 20.9064C17.3435 20.5724 16.8039 20.5724 16.4699 20.9064C16.3071 21.0691 16.2129 21.2918 16.2215 21.523L16.3071 27.1672C14.971 27.3556 13.6093 27.3299 12.2732 27.0986L12.2817 21.249C12.2817 20.7779 11.8963 20.3925 11.4253 20.3925C11.194 20.3925 10.9799 20.4867 10.8172 20.6409L6.77465 24.6834C5.65268 23.8269 4.68487 22.7992 3.88836 21.6344L7.84524 17.6775C8.17926 17.3435 8.17926 16.8039 7.84524 16.4699C7.68251 16.3072 7.46839 16.2215 7.23714 16.2215H7.22001L1.83284 16.2986C1.65298 14.9968 1.67011 13.6778 1.88423 12.3845L7.1515 12.4788H7.16863C7.63968 12.4788 8.02509 12.0933 8.02509 11.6223C8.02509 11.391 7.93088 11.1769 7.77672 11.0142L3.99113 7.22862C4.79621 6.07239 5.78115 5.05319 6.91169 4.21385L10.7487 8.05082C11.0827 8.38485 11.6223 8.38485 11.9563 8.05082C12.119 7.88809 12.2047 7.67398 12.2047 7.4513L12.2646 1.90996C13.5836 1.67871 14.9282 1.65302 16.2557 1.84144L16.2129 7.22005C16.2044 7.69111 16.5898 8.07652 17.0608 8.08508C17.2921 8.08508 17.5147 7.99944 17.6775 7.83671L21.6258 3.87983C22.7906 4.66778 23.8269 5.64415 24.6834 6.76612L20.6408 10.8086C20.3068 11.1427 20.3068 11.6822 20.6408 12.0163C20.8036 12.179 21.0177 12.2646 21.2404 12.2646L27.0986 12.2989C27.3299 13.6607 27.347 15.0482 27.1414 16.4185L21.2318 16.4699Z" fill="black"/>
</svg>
