<svg width="38" height="38" viewBox="0 0 38 38" fill="none" xmlns="http://www.w3.org/2000/svg">
<path d="M34.2 0C33.1925 0.00106625 32.2266 0.401765 31.5142 1.11417C30.8018 1.82658 30.4011 2.7925 30.4 3.8C30.4 3.96039 30.4101 4.12062 30.4301 4.27975H30.4C29.9638 4.27853 29.5317 4.36383 29.1286 4.5307C28.7256 4.69757 28.3596 4.9427 28.0519 5.25192L18.5519 14.7519C18.4344 14.8698 18.3679 15.0292 18.3669 15.1957C18.3658 15.3622 18.4303 15.5224 18.5464 15.6417L4.83154 22.0416C3.62635 22.6033 2.5724 23.4442 1.7571 24.4945C0.941799 25.5449 0.388625 26.7745 0.143444 28.0813C-0.101736 29.3882 -0.0318593 30.7347 0.347281 32.0091C0.726421 33.2836 1.4039 34.4493 2.32355 35.4097C2.3663 35.4556 2.41062 35.5007 2.45496 35.545C2.4993 35.5894 2.54443 35.6337 2.59034 35.6765C3.5506 36.5961 4.71626 37.2736 5.99066 37.6527C7.26507 38.0319 8.61149 38.1017 9.9183 37.8566C11.2251 37.6114 12.4546 37.0582 13.5049 36.2429C14.5552 35.4276 15.396 34.3736 15.9576 33.1685L22.3582 19.4536C22.4775 19.5698 22.6378 19.6344 22.8043 19.6333C22.9708 19.6323 23.1302 19.5657 23.2481 19.4481L32.7481 9.94808C33.0573 9.64039 33.3024 9.27444 33.4693 8.8714C33.6362 8.46835 33.7215 8.03622 33.7202 7.6V7.56992C33.8794 7.58994 34.0396 7.59999 34.2 7.6C35.2078 7.6 36.1744 7.19964 36.887 6.48701C37.5996 5.77437 38 4.80782 38 3.8C38 2.79218 37.5996 1.82563 36.887 1.11299C36.1744 0.400356 35.2078 1.50177e-08 34.2 0ZM1.9673 31.3627C1.87686 31.6319 1.80153 31.906 1.74167 32.1836C1.09471 30.5041 1.1091 28.6416 1.78193 26.9723C2.45475 25.3029 3.7359 23.951 5.36671 23.1895L17.8735 17.3533L7.31026 24.6667C4.81572 26.3934 2.76846 28.9592 1.9673 31.3627ZM3.16904 31.7632C3.87679 29.6392 5.78551 27.2626 8.03066 25.7078L18.9675 18.1363L3.00913 34.0947C2.80487 33.512 2.85634 32.7006 3.16904 31.7632ZM3.90529 34.9909L19.8637 19.0325L12.2922 29.9693C10.7374 32.2145 8.36078 34.1232 6.23675 34.831C5.29941 35.1437 4.48796 35.1951 3.9053 34.9909H3.90529ZM14.8105 32.6333C14.049 34.2641 12.6971 35.5452 11.0277 36.2181C9.35839 36.8909 7.49593 36.9053 5.81638 36.2583C6.09399 36.1984 6.36807 36.123 6.63734 36.0327C9.04083 35.2315 11.6066 33.1843 13.3332 30.6897L20.6467 20.1265L14.8105 32.6333ZM32.4536 7.6C32.4543 7.86977 32.4015 8.13701 32.2982 8.38623C32.1949 8.63546 32.0432 8.86172 31.8519 9.05191L22.8 18.1046L19.8954 15.2L28.9481 6.14808C29.1383 5.95676 29.3645 5.80507 29.6138 5.70179C29.863 5.59851 30.1302 5.5457 30.4 5.54642C30.5521 5.54604 30.7038 5.56304 30.852 5.59708C31.2307 5.68253 31.5774 5.87358 31.8519 6.14808C32.1264 6.42258 32.3175 6.76928 32.4029 7.14796C32.437 7.29622 32.454 7.44788 32.4536 7.6ZM34.2 6.33333C33.9341 6.33351 33.6699 6.29183 33.417 6.20983V6.20904C33.0841 5.49193 32.5081 4.91585 31.791 4.58296H31.7902C31.6248 4.07411 31.6247 3.52597 31.79 3.01708C31.9552 2.50819 32.2774 2.06469 32.7102 1.75014C33.143 1.43558 33.6643 1.26613 34.1994 1.26606C34.7344 1.26599 35.2558 1.43531 35.6887 1.74975C36.1216 2.06419 36.4438 2.50761 36.6092 3.01646C36.7746 3.5253 36.7747 4.07345 36.6094 4.58234C36.4441 5.09122 36.122 5.53472 35.6892 5.84927C35.2563 6.16382 34.7351 6.33327 34.2 6.33333Z" fill="#1071FF"/>
</svg>
