<svg width="2" height="2" viewBox="0 0 2 2" fill="none" xmlns="http://www.w3.org/2000/svg">
<path d="M0.477286 1.156C0.518702 1.15602 0.559946 1.15067 0.599991 1.1401C0.921356 1.0549 1.24816 0.991741 1.57814 0.951072C1.64062 0.943783 1.70105 0.924209 1.75595 0.893476C1.81084 0.862743 1.85911 0.821458 1.89799 0.771997C1.93687 0.722535 1.96558 0.665875 1.98247 0.605274C1.99937 0.544674 2.00411 0.48133 1.99643 0.418889C1.98875 0.356449 1.9688 0.296144 1.93772 0.241444C1.90664 0.186744 1.86506 0.13873 1.81535 0.100165C1.76565 0.0615996 1.70881 0.0332438 1.6481 0.0167304C1.5874 0.000216958 1.52402 -0.00412796 1.46163 0.00394444C1.08831 0.0498967 0.718561 0.121317 0.354978 0.217704C0.242972 0.247371 0.145587 0.31678 0.0810011 0.412979C0.0164151 0.509177 -0.0109591 0.625592 0.00398775 0.740492C0.0189346 0.855393 0.0751818 0.960927 0.16223 1.0374C0.249278 1.11387 0.361178 1.15606 0.477047 1.15608L0.477286 1.156Z" fill="black"/>
</svg>
