<svg width="19" height="8" viewBox="0 0 19 8" fill="none" xmlns="http://www.w3.org/2000/svg">
<path d="M19 7.00831V0.870202C19 0.390397 18.6096 0 18.1298 0H0.8702C0.390396 0 0 0.390397 0 0.870202V7.00831C0 7.48812 0.390396 7.87852 0.8702 7.87852H11.4671C11.8048 7.87852 12.0784 7.60483 12.0784 7.26725C12.0784 6.92966 11.8048 6.65598 11.4671 6.65598H1.22254V1.22262H17.7775V6.65598H13.9112C13.5735 6.65598 13.2999 6.92966 13.2999 7.26725C13.2999 7.60483 13.5735 7.87852 13.9112 7.87852H18.1299C18.6096 7.87852 19 7.48812 19 7.00831Z" fill="black"/>
</svg>
