<svg width="2" height="2" viewBox="0 0 2 2" fill="none" xmlns="http://www.w3.org/2000/svg">
<path d="M0.559839 1.45433C0.636245 1.4542 0.711804 1.43833 0.781809 1.40772C1.05356 1.29016 1.33398 1.18398 1.61534 1.09075C1.68512 1.06781 1.7497 1.03135 1.80539 0.983447C1.86108 0.935546 1.90679 0.877145 1.93991 0.811578C1.97304 0.746012 1.99292 0.674563 1.99843 0.601313C2.00393 0.528063 1.99496 0.454445 1.97202 0.384662C1.94908 0.31488 1.91261 0.2503 1.86471 0.19461C1.81681 0.138919 1.75841 0.0932066 1.69284 0.0600857C1.62728 0.0269649 1.55583 0.0070836 1.48258 0.00157513C1.40933 -0.00393335 1.33571 0.00503861 1.26593 0.0279811C0.952505 0.130529 0.640014 0.249672 0.337311 0.38084C0.21918 0.431932 0.122282 0.522199 0.062959 0.636419C0.00363641 0.750639 -0.0144816 0.881823 0.0116605 1.00785C0.0378027 1.13387 0.106606 1.24702 0.206466 1.32822C0.306326 1.40942 0.431133 1.4537 0.559839 1.45359V1.45433Z" fill="black"/>
</svg>
