<svg width="32" height="40" viewBox="0 0 32 40" fill="none" xmlns="http://www.w3.org/2000/svg">
<path d="M19.0695 8.62734V7.37969H21.2713C21.9634 7.37969 22.5266 6.81648 22.5266 6.12422V3.68828C22.5267 1.65453 20.8718 0 18.8377 0H12.54C10.505 0 8.84938 1.65453 8.84938 3.68828V6.12422C8.84938 6.81648 9.41328 7.37969 10.1064 7.37969H12.1332V8.73469C10.161 9.2075 8.29492 10.0587 6.61758 11.2625C6.35469 11.4513 6.29453 11.8173 6.4832 12.0802C6.67195 12.3431 7.03805 12.4033 7.30086 12.2145C8.96008 11.0237 10.819 10.2056 12.7842 9.78938C12.8216 9.78523 12.8579 9.77781 12.8928 9.76695C13.8566 9.57047 14.8452 9.46984 15.8483 9.46984C23.9421 9.46984 30.527 16.0549 30.527 24.149C30.527 32.243 23.9421 38.8281 15.8483 38.8281C7.75563 38.8281 1.1718 32.2431 1.1718 24.149C1.1718 20.3396 2.62305 16.7306 5.25813 13.9869C5.48227 13.7534 5.47477 13.3826 5.24141 13.1584C5.00797 12.9342 4.63703 12.9418 4.41297 13.1752C1.56719 16.1383 6.43867e-10 20.0355 6.43867e-10 24.149C-7.81244e-05 32.8893 7.10945 40 15.8483 40C24.5884 40 31.6988 32.8893 31.6988 24.149C31.6988 16.5122 26.2702 10.1198 19.0695 8.62734ZM10.1064 6.20781C10.0602 6.20781 10.0213 6.16953 10.0213 6.12422V3.68828C10.0213 2.3007 11.1512 1.17188 12.54 1.17188H18.8377C20.2256 1.17188 21.3548 2.3007 21.3548 3.68828V6.12422C21.3548 6.16875 21.3158 6.20781 21.2713 6.20781H19.0695V6.10687C19.0695 4.19391 17.5132 2.63758 15.6002 2.63758C13.6885 2.63758 12.1332 4.19391 12.1332 6.10687V6.20781H10.1064ZM13.3051 8.50062V6.10687C13.3051 4.84008 14.3347 3.80945 15.6002 3.80945C16.867 3.80945 17.8977 4.84008 17.8977 6.10687V8.43031C17.2266 8.34328 16.5427 8.29805 15.8483 8.29805C14.9889 8.29797 14.1393 8.36656 13.3051 8.50062Z" fill="black"/>
</svg>
