<svg width="15" height="29" viewBox="0 0 15 29" fill="none" xmlns="http://www.w3.org/2000/svg">
<path d="M14.4096 9.87202H12.8993V0.590403C12.8993 0.264365 12.635 0 12.3089 0H2.69111C2.36507 0 2.1007 0.264365 2.1007 0.590403V5.14448C2.1007 5.47052 2.36499 5.73488 2.69111 5.73488C3.01714 5.73488 3.28151 5.47052 3.28151 5.14448V1.18073H11.7186V9.87194H3.28151V7.50601C3.28151 7.17997 3.01714 6.91561 2.69111 6.91561C2.36507 6.91561 2.1007 7.17997 2.1007 7.50601V9.87202H0.590403C0.264365 9.87202 0 10.1363 0 10.4624V27.626C0 27.952 0.264287 28.2164 0.590403 28.2164C0.91644 28.2164 1.18081 27.952 1.18081 27.626V15.0617H13.8192V18.9851C13.8192 19.3112 14.0836 19.5755 14.4096 19.5755C14.7356 19.5755 15 19.3112 15 18.9851V10.4623C15 10.1363 14.7356 9.87202 14.4096 9.87202ZM1.18088 13.8809V11.0527H13.8193V13.8809H1.18088Z" fill="black"/>
</svg>
