<svg width="9" height="10" viewBox="0 0 9 10" fill="none" xmlns="http://www.w3.org/2000/svg">
<path d="M7.07125 5.79356C6.67381 5.7952 6.28658 5.91961 5.96255 6.14975C5.63851 6.37989 5.39349 6.70452 5.26101 7.07924H3.55813L2.57137 5.60071V3.74675C3.00028 3.59511 3.36178 3.29672 3.59196 2.90432C3.82215 2.51192 3.90621 2.05078 3.82928 1.60241C3.75235 1.15403 3.51938 0.747279 3.17156 0.454052C2.82374 0.160826 2.38346 0 1.92853 0C1.4736 0 1.03331 0.160826 0.685491 0.454052C0.33767 0.747279 0.104707 1.15403 0.0277775 1.60241C-0.0491521 2.05078 0.0349046 2.51192 0.265091 2.90432C0.495278 3.29672 0.856773 3.59511 1.28569 3.74675V5.79356C1.28589 5.9205 1.32345 6.04459 1.39368 6.15033L2.67936 8.07886C2.73809 8.16687 2.81763 8.23903 2.91093 8.28893C3.00423 8.33883 3.1084 8.36494 3.21421 8.36492H5.26101C5.37944 8.69738 5.58697 8.99089 5.86093 9.21338C6.13489 9.43588 6.46473 9.57879 6.81441 9.6265C7.1641 9.67421 7.52017 9.62488 7.84371 9.48392C8.16726 9.34295 8.44584 9.11576 8.649 8.82718C8.85216 8.53859 8.9721 8.19972 8.99569 7.84759C9.01929 7.49545 8.94564 7.14361 8.7828 6.8305C8.61995 6.51739 8.37418 6.25507 8.07233 6.07219C7.77048 5.88932 7.42418 5.79293 7.07125 5.79356ZM1.92853 1.29367C2.05567 1.29367 2.17996 1.33137 2.28567 1.40201C2.39138 1.47265 2.47378 1.57304 2.52243 1.69051C2.57109 1.80797 2.58382 1.93723 2.55902 2.06192C2.53421 2.18662 2.47299 2.30117 2.38308 2.39107C2.29318 2.48097 2.17864 2.5422 2.05394 2.567C1.92924 2.59181 1.79999 2.57907 1.68252 2.53042C1.56506 2.48176 1.46466 2.39937 1.39402 2.29365C1.32339 2.18794 1.28569 2.06365 1.28569 1.93651C1.28569 1.76602 1.35341 1.60251 1.47397 1.48195C1.59453 1.3614 1.75803 1.29367 1.92853 1.29367ZM7.07125 8.36492C6.94411 8.36492 6.81983 8.32722 6.71411 8.25658C6.6084 8.18595 6.526 8.08555 6.47735 7.96808C6.42869 7.85062 6.41596 7.72137 6.44076 7.59667C6.46557 7.47197 6.52679 7.35742 6.6167 7.26752C6.7066 7.17762 6.82114 7.11639 6.94584 7.09159C7.07054 7.06679 7.19979 7.07952 7.31726 7.12817C7.43472 7.17683 7.53512 7.25922 7.60576 7.36494C7.67639 7.47065 7.71409 7.59494 7.71409 7.72208C7.71409 7.89257 7.64637 8.05608 7.52581 8.17664C7.40526 8.29719 7.24175 8.36492 7.07125 8.36492Z" fill="black"/>
</svg>
