<svg width="21" height="29" viewBox="0 0 21 29" fill="none" xmlns="http://www.w3.org/2000/svg">
<path d="M18.7973 19.0812L20.9165 9.54483C21.094 8.74615 20.9866 7.91055 20.6128 7.18274C20.2391 6.45493 19.6226 5.88074 18.8701 5.55962C18.1176 5.23849 17.2764 5.19066 16.4924 5.42439C15.7083 5.65813 15.0307 6.15872 14.5768 6.83946L14.576 6.84062L14.2179 5.58684C13.8383 4.26163 13.1281 3.05465 12.154 2.07929C10.9501 0.877061 9.35501 0.146329 7.65835 0.0197246C5.96168 -0.106879 4.27585 0.379038 2.90686 1.38928L2.85518 1.36076L2.7906 1.47782C2.01571 2.07443 1.37273 2.82503 0.902168 3.68234C0.431601 4.53965 0.143635 5.4851 0.0564027 6.45917C-0.133885 8.58298 0.158756 10.7223 0.912414 12.717L6.78289 28.1938C6.84198 28.35 6.96041 28.4765 7.11237 28.5458C7.26433 28.615 7.43751 28.6214 7.59417 28.5636L19.63 24.1293C19.7799 24.0741 19.9035 23.9642 19.9758 23.8217C20.0482 23.6792 20.064 23.5146 20.0201 23.3609L18.7973 19.0812ZM18.4054 15.0045L17.3627 14.4293L18.616 11.5039L18.6161 11.5035L19.1214 11.7823L18.4054 15.0045ZM19.7289 8.90798C19.7223 9.02978 19.7059 9.15085 19.6797 9.27L19.4079 10.4933L19.1181 10.3334L19.7289 8.90798ZM15.235 8.13618L15.631 7.54221C15.8052 7.28081 16.0326 7.05901 16.2982 6.89123C16.5638 6.72345 16.8617 6.61343 17.1726 6.56835C17.4835 6.52326 17.8005 6.54411 18.1028 6.62953C18.4051 6.71496 18.6861 6.86305 18.9274 7.06417C18.9811 7.10889 19.0313 7.15642 19.08 7.20516L18.0031 9.71827H18.0031L15.2159 8.18051L15.235 8.13618ZM14.7146 9.35095L17.5012 10.8884L17.5011 10.8886L16.2478 13.8141L13.4605 12.2763L14.7146 9.35095ZM7.30183 15.3899L7.30234 15.3902L10.0888 16.9279L8.83452 19.8529L6.04812 18.3152L7.30183 15.3899ZM6.68862 13.6045L3.90162 12.067L5.15548 9.14129L7.94247 10.6789L6.68862 13.6045ZM7.80356 14.2198L7.80334 14.2197L9.05724 11.294L11.844 12.8315L10.59 15.7576L7.80356 14.2198ZM12.959 13.4466L15.7462 14.9844L14.4921 17.9098L11.7049 16.372L12.959 13.4466ZM12.3456 11.6612L9.55879 10.1237L10.8126 7.1981L13.5997 8.73579L12.3456 11.6612ZM12.1503 4.07685C12.5246 4.65029 12.8109 5.27659 12.9996 5.93489L13.3466 7.14914L11.3142 6.0278L12.1503 4.07685ZM8.46559 1.41771C9.51879 1.66548 10.4823 2.20148 11.2481 2.9657L10.1994 5.41276L7.41242 3.87511L8.46559 1.41771ZM9.69784 6.58304L8.44402 9.50864L5.65703 7.97099L6.91086 5.0454L9.69784 6.58304ZM4.88602 1.71461C5.59927 1.4165 6.36455 1.2628 7.13759 1.2624C7.14294 1.2624 7.14827 1.26279 7.15362 1.26279L6.29765 3.26007L4.15749 2.07928C4.39162 1.94103 4.63504 1.81918 4.88602 1.71461V1.71461ZM3.05757 2.91944L5.7961 4.43036L4.54227 7.35595L1.47445 5.66338C1.73807 4.61985 2.28611 3.66996 3.05757 2.91944ZM2.25673 12.6889L2.21706 12.5843L2.2853 12.6219L2.2854 12.622L2.25673 12.6889ZM2.78653 11.4516L1.64661 10.8224C1.33729 9.57565 1.21613 8.28964 1.28715 7.00703L4.04072 8.52623L2.7869 11.4518L2.78653 11.4516ZM4.93318 17.6999L3.95229 17.159L2.90389 14.395L3.40012 13.2372L3.4002 13.2372L6.18711 14.7747L4.9334 17.7001L4.93318 17.6999ZM7.74497 27.1579L7.43401 26.3381L7.69271 25.7346L9.26048 26.5995L7.74497 27.1579ZM12.6879 25.3368L13.3503 23.7915L14.7646 24.5717L12.6879 25.3368ZM16.3372 23.9923L13.8516 22.6212L14.1509 21.922L13.2118 22.268L12.5142 22.5253L11.6392 22.8476L12.2354 23.1762L11.0506 25.9399L10.8329 26.0202L8.19393 24.5643L8.42197 24.0322L7.70774 24.2959L6.78786 24.6346L5.16896 20.3666L5.54662 19.4854L5.54684 19.4855L8.33329 21.0232L8.15909 21.4295L8.70466 21.2283L9.7966 20.8261L10.2772 20.6487L9.94942 20.4682L11.2037 17.5423L13.9901 19.0801L13.8888 19.3184L14.2087 19.2004L15.5255 18.715L15.7812 18.6216L15.607 18.525L16.8611 15.5995L18.119 16.2935L17.6007 18.6258L17.3307 18.7253L17.5415 19.2975L17.897 20.5419L17.1432 20.8197L18.1324 21.3657L18.6404 23.1437L16.3372 23.9923Z" fill="#1071FF"/>
</svg>
