<svg width="28" height="31" viewBox="0 0 28 31" fill="none" xmlns="http://www.w3.org/2000/svg">
<path d="M25.6136 21.682H23.1544L22.493 1.63165C22.4628 0.716655 21.7221 0 20.8067 0C19.8913 0 19.1505 0.716735 19.1204 1.63165L18.459 21.682H14.1462C13.817 21.682 13.5502 21.9488 13.5502 22.2779C13.5502 22.607 13.817 22.8739 14.1462 22.8739H25.6135C26.1611 22.8739 26.6067 23.3194 26.6067 23.8671V28.8148C26.6067 29.3625 26.1611 29.8081 25.6135 29.8081H0.595957C0.266773 29.8081 0 30.0749 0 30.404C0 30.7332 0.266773 31 0.595957 31H25.6136C26.8185 31 27.7987 30.0197 27.7987 28.8149V23.8672C27.7987 22.6622 26.8184 21.682 25.6136 21.682ZM20.3116 1.6709C20.3205 1.4023 20.538 1.19183 20.8068 1.19183C21.0756 1.19183 21.293 1.4023 21.3019 1.6709L21.9619 21.682H19.6516L20.3116 1.6709Z" fill="black"/>
</svg>
