<svg width="40" height="40" viewBox="0 0 40 40" fill="none" xmlns="http://www.w3.org/2000/svg">
<path d="M35.899 19.5218H34.2566V9.51487C35.9832 9.23362 37.3056 7.73152 37.3056 5.92559V4.827C37.3056 2.82264 35.6749 1.19202 33.6707 1.19202H28.9286C28.6858 0.498747 28.0254 0 27.2503 0H27.0391C26.264 0 25.6035 0.498747 25.3608 1.19202H13.9441C13.7013 0.498747 13.0409 0 12.2658 0H12.0545C11.2795 0 10.619 0.498747 10.3763 1.19202H5.63637C3.63092 1.19202 1.99929 2.82264 1.99929 4.827V5.92567C1.99929 7.73167 3.32264 9.23385 5.05044 9.51502V19.5219H3.44139C1.54374 19.5219 0 21.0668 0 22.9656V25.2096C0 25.7689 0.385935 26.2385 0.905073 26.3695V31.0075C0.905073 33.4164 2.71756 35.4246 5.05044 35.7324V37.1612C5.05044 38.7265 6.32387 40 7.88917 40H31.4157C32.9821 40 34.2566 38.7265 34.2566 37.1612V35.7371C36.6082 35.4471 38.4353 33.4375 38.4353 31.0076V26.3694C38.9545 26.2384 39.3404 25.7688 39.3404 25.2095V22.9655C39.3404 21.0667 37.7967 19.5218 35.899 19.5218ZM35.899 20.6937C37.1505 20.6937 38.1685 21.7128 38.1685 22.9656V25.2095C38.1685 25.2216 38.1576 25.2352 38.1429 25.2352H34.2566V20.6938H35.899V20.6937ZM36.1337 4.827V5.92567C36.1337 7.28504 35.0288 8.39097 33.6707 8.39097H29.0283V2.36389H33.6707C35.0288 2.36389 36.1337 3.46889 36.1337 4.827ZM26.433 15.7009H27.8564V16.585C27.8564 16.9192 27.5845 17.1911 27.2503 17.1911H27.0391C26.7048 17.1911 26.433 16.9192 26.433 16.585V15.7009ZM24.4449 14.5291V12.8631H29.8446V14.5291H24.4449ZM11.4484 15.7009H12.8719V16.585C12.8719 16.9192 12.6 17.1911 12.2658 17.1911H12.0545C11.7203 17.1911 11.4484 16.9192 11.4484 16.585V15.7009ZM9.46026 14.5291V12.8631H14.86V14.5291H9.46026ZM14.0437 2.36389H25.261V8.39089H14.0437V2.36389ZM27.0391 1.17187H27.2503C27.5845 1.17187 27.8564 1.44374 27.8564 1.77796V11.6913H26.433V1.77796C26.433 1.44374 26.7048 1.17187 27.0391 1.17187ZM12.0545 1.17187H12.2658C12.6 1.17187 12.8719 1.44374 12.8719 1.77796V11.6913H11.4484V1.77796C11.4484 1.44374 11.7203 1.17187 12.0545 1.17187ZM3.17115 5.92567V4.827C3.17115 3.46889 4.27708 2.36389 5.63637 2.36389H10.2766V8.39089H5.63637C4.27701 8.39097 3.17115 7.28504 3.17115 5.92567ZM1.17187 22.9655C1.17187 21.7128 2.18999 20.6936 3.44139 20.6936H5.05044V25.2351H1.19749C1.18281 25.2351 1.17187 25.2216 1.17187 25.2094V22.9655ZM2.07694 31.0073V26.407H5.05044V34.5474C3.36537 34.2501 2.07694 32.7711 2.07694 31.0073ZM33.0847 37.161C33.0847 38.0801 32.336 38.8279 31.4157 38.8279H7.88917C6.97004 38.8279 6.22231 38.0801 6.22231 37.161V19.1607C7.4655 21.0119 9.57783 22.2327 11.97 22.2327H18.2526C18.5761 22.2327 18.8385 21.9703 18.8385 21.6467C18.8385 21.3232 18.5761 21.0608 18.2526 21.0608H11.97C8.80073 21.0608 6.22231 18.4813 6.22231 15.3107V9.56284H10.2766V11.6913H9.17682C8.6869 11.6913 8.28839 12.0909 8.28839 12.582V14.8103C8.28839 15.3014 8.6869 15.7009 9.17682 15.7009H10.2766V16.585C10.2766 17.5654 11.0742 18.3629 12.0545 18.3629H12.2658C13.2462 18.3629 14.0437 17.5654 14.0437 16.585V15.7009H15.1435C15.6334 15.7009 16.0319 15.3014 16.0319 14.8103V12.582C16.0319 12.0909 15.6334 11.6913 15.1435 11.6913H14.0437V9.56284H25.261V11.6913H24.1635C23.6724 11.6913 23.2729 12.0909 23.2729 12.582V14.8103C23.2729 15.3014 23.6724 15.7009 24.1635 15.7009H25.261V16.585C25.261 17.5654 26.0586 18.3629 27.039 18.3629H27.2502C28.2306 18.3629 29.0282 17.5654 29.0282 16.585V15.7009H30.1279C30.6179 15.7009 31.0164 15.3014 31.0164 14.8103V12.582C31.0164 12.0909 30.6179 11.6913 30.1279 11.6913H29.0282V9.56284H33.0847V15.3107C33.0847 18.4813 30.5052 21.0608 27.3348 21.0608H21.1101C20.7865 21.0608 20.5242 21.3232 20.5242 21.6467C20.5242 21.9703 20.7865 22.2327 21.1101 22.2327H27.3348C29.7279 22.2327 31.8411 21.0118 33.0847 19.1601V37.161H33.0847ZM34.2566 34.5538V26.407H37.2635V31.0072C37.2635 32.79 35.9599 34.2729 34.2566 34.5538Z" fill="black"/>
</svg>
