<svg width="30" height="40" viewBox="0 0 30 40" fill="none" xmlns="http://www.w3.org/2000/svg">
<path d="M24.1731 4.60487C25.1179 3.51065 25.9946 2.68393 26.6123 2.14698C26.9651 3.60791 27.5146 6.34354 27.617 9.54275C27.6308 9.974 27.9919 10.3126 28.4229 10.2986C28.8541 10.2849 29.1926 9.92408 29.1787 9.49283C29.0193 4.51104 27.853 0.708853 27.8033 0.5494C27.729 0.310103 27.5443 0.121041 27.3068 0.0410406C27.0693 -0.0389594 26.8079 -0.000209408 26.6037 0.145259C26.5361 0.19354 24.9241 1.35252 23.0239 3.54502C21.2728 5.56541 18.9353 8.88775 17.7433 13.2417C17.5662 13.8886 17.4134 14.5614 17.2873 15.2497C16.4088 15.0563 15.5085 14.9573 14.5965 14.9573C13.6844 14.9573 12.7841 15.0563 11.9056 15.2496C11.7795 14.5613 11.6268 13.8885 11.4497 13.2417C10.2577 8.88768 7.92015 5.56541 6.16906 3.54494C4.2689 1.35245 2.65695 0.193462 2.58922 0.145181C2.38516 -0.000287536 2.12375 -0.0391938 1.88625 0.0409624C1.64875 0.120962 1.46406 0.310025 1.38969 0.549322C1.36117 0.640962 0.687344 2.83018 0.285391 6.05877C-0.0864055 9.04541 -0.280546 13.5158 0.906563 17.8516C1.33727 19.4247 1.94727 20.9759 2.72133 22.4674C1.61617 24.556 1.01359 26.8896 1.01359 29.218C1.01359 32.7756 2.42562 35.642 5.09719 37.5072C7.43297 39.138 10.7178 40 14.5966 40C18.4753 40 21.7601 39.138 24.0959 37.5072C26.7674 35.642 28.1794 32.7756 28.1794 29.218C28.1794 26.8896 27.5769 24.556 26.4717 22.4674C27.2458 20.9759 27.8558 19.4247 28.2865 17.8516C28.3886 17.4787 28.4834 17.0938 28.5684 16.7077C28.6612 16.2863 28.3948 15.8695 27.9734 15.7768C27.5519 15.684 27.1352 15.9505 27.0425 16.3718C26.9631 16.7322 26.8747 17.0913 26.7794 17.4389C26.4596 18.607 26.0333 19.7632 25.5076 20.8895C25.117 20.3313 24.6872 19.7986 24.2204 19.2974C24.188 19.2627 24.1555 19.2282 24.123 19.1938C24.4304 18.4477 24.691 17.6867 24.8992 16.9263C25.604 14.3519 25.8363 11.4074 25.5897 8.17455C25.5645 7.84533 25.3351 7.56744 25.0166 7.48041C24.6984 7.39322 24.3594 7.51588 24.1701 7.78658C22.7595 9.8058 21.7369 11.9524 21.1305 14.1667C20.9271 14.9099 20.7619 15.692 20.6368 16.5024C20.0416 16.1799 19.427 15.9058 18.797 15.6821C18.9201 14.9852 19.072 14.3051 19.2503 13.6542C20.3597 9.60244 22.5397 6.49666 24.1731 4.60487ZM2.41367 17.4391C0.731563 11.295 1.96148 4.73119 2.58172 2.14893C4.36297 3.70143 8.30703 7.67963 9.94273 13.6542C10.1209 14.3052 10.2729 14.9852 10.3959 15.6822C9.76601 15.9059 9.15132 16.1799 8.55617 16.5025C8.43109 15.6923 8.26593 14.9101 8.06242 14.1669C7.4557 11.951 6.43312 9.80408 5.02297 7.78588C4.83383 7.51525 4.49508 7.39283 4.17656 7.47979C3.85805 7.56682 3.62867 7.84471 3.60359 8.17393C3.3568 11.4071 3.58898 14.3519 4.2939 16.9265C4.50211 17.687 4.76265 18.4481 5.07 19.1942C5.03742 19.2285 5.005 19.263 4.97265 19.2977C4.50586 19.7988 4.07601 20.3315 3.68547 20.8897C3.15984 19.7634 2.73352 18.6072 2.41367 17.4391ZM6.29578 18.0419C6.10633 17.5356 5.94078 17.0245 5.80094 16.5138C5.33258 14.8031 5.08867 12.907 5.07148 10.8538C5.71125 12.0644 6.20797 13.3106 6.55539 14.5795C6.79875 15.4682 6.98328 16.4202 7.10508 17.4135C6.82961 17.6117 6.55969 17.8212 6.29578 18.0419ZM26.6169 29.2181C26.6169 37.5392 18.2107 38.4376 14.5966 38.4376C10.9823 38.4376 2.57617 37.5392 2.57617 29.2181C2.57617 22.4536 8.1932 16.5198 14.5966 16.5198C20.9999 16.5198 26.6169 22.4536 26.6169 29.2181ZM22.6376 14.5795C22.9848 13.3116 23.4816 12.0655 24.1216 10.8547C24.1044 12.9078 23.8605 14.8033 23.3922 16.5139C23.2524 17.0245 23.0868 17.5357 22.8973 18.0419C22.6334 17.8212 22.3635 17.6117 22.088 17.4136C22.2098 16.4201 22.3943 15.4681 22.6376 14.5795Z" fill="black"/>
</svg>
