<svg width="8" height="8" viewBox="0 0 8 8" fill="none" xmlns="http://www.w3.org/2000/svg">
<path d="M7.16468 4.35476C6.70334 4.35476 6.32937 4.72873 6.32937 5.19008C6.32937 5.60222 5.99424 5.93743 5.58234 5.93743C5.17045 5.93743 4.83532 5.60214 4.83532 5.19008V4.42075C5.89717 4.0695 6.66541 3.06745 6.66541 1.8894V0.835317C6.66541 0.373972 6.29144 0 5.83009 0H2.16982C1.70847 0 1.3345 0.373972 1.3345 0.835317V1.8894C1.3345 3.06753 2.10283 4.0695 3.16468 4.42083V5.19016C3.16468 5.60231 2.82955 5.93752 2.41766 5.93752C2.00576 5.93752 1.67063 5.60222 1.67063 5.19016C1.67063 4.72882 1.29666 4.35484 0.835317 4.35484C0.373971 4.35484 0 4.72882 0 5.19016C0 6.52341 1.08458 7.60815 2.41766 7.60815C3.02218 7.60815 3.57566 7.38504 4 7.01692C4.42434 7.38512 4.97782 7.60815 5.58234 7.60815C6.91542 7.60815 8 6.52341 8 5.19016C8 4.72873 7.62594 4.35476 7.16468 4.35476ZM3.00514 1.67063H4.99478V1.8894C4.99478 2.43796 4.54855 2.88427 4 2.88427C3.45145 2.88427 3.00514 2.43796 3.00514 1.8894V1.67063Z" fill="black"/>
</svg>
