<svg width="40" height="35" viewBox="0 0 40 35" fill="none" xmlns="http://www.w3.org/2000/svg">
<path d="M34.0891 6.46458C30.8287 6.46458 28.1768 9.11615 28.1768 12.3777V19.2358C27.1018 18.9015 25.9679 18.799 24.8556 18.9298V8.99281H25.6008C26.1739 8.99281 26.6457 8.5248 26.6457 7.9491V1.04445C26.6457 0.468011 26.1739 2.22349e-07 25.6008 2.22349e-07H1.04371C0.469501 -0.000372398 0 0.467638 0 1.04445V7.9491C0 8.5248 0.469501 8.99281 1.04371 8.99281H1.78932V33.0171C1.78932 33.5898 2.25733 34.0612 2.8334 34.0612H23.8067C23.9945 34.0612 24.1614 33.9982 24.3123 33.9144C24.7964 34.0105 25.3013 34.063 25.8106 34.063C25.8106 34.063 25.8106 34.063 25.8129 34.063C27.5344 34.063 29.1549 33.4639 30.4907 32.4179C31.5225 33.2135 32.7619 33.6658 34.0869 33.6658C37.3496 33.6658 40 31.015 40 27.7527V12.3777C40.0022 9.11615 37.3496 6.46458 34.0891 6.46458ZM34.0891 8.55237C36.1974 8.55237 37.9144 10.2679 37.9144 12.3777V18.7648H30.2649V12.3777C30.2649 10.2679 31.9786 8.55237 34.0891 8.55237ZM29.7775 22.5141C31.6738 24.4431 31.8687 27.42 30.3845 29.5652L22.7347 21.7886C23.6416 21.1808 24.7025 20.8526 25.8192 20.8526C27.316 20.8544 28.7249 21.4458 29.7775 22.5141ZM2.09003 2.08555H24.5568V6.90278H2.09003V2.08555ZM3.87711 31.9712V8.99095H22.7678V12.5211H10.1744C9.60018 12.5211 9.13068 12.9892 9.13068 13.5652C9.13068 14.1424 9.60055 14.6093 10.1744 14.6093H22.7678V17.2419H13.4792C12.9031 17.2419 12.4351 17.7106 12.4351 18.2859C12.4351 18.8605 12.9031 19.33 13.4792 19.33H22.7674V19.4604C21.9186 19.8107 21.1253 20.3007 20.4524 20.9632C20.1379 21.2751 19.8718 21.6134 19.6233 21.9645H13.4836C12.9094 21.9645 12.4395 22.4313 12.4395 23.0085C12.4395 23.5831 12.9094 24.0526 13.4836 24.0526H18.584C18.3023 24.9048 18.173 25.7939 18.2051 26.6848H13.4792C12.9031 26.6848 12.4351 27.1558 12.4351 27.7285C12.4351 28.3016 12.9031 28.7726 13.4792 28.7726H18.5736C18.9239 29.8636 19.5029 30.9036 20.3585 31.7763C20.4296 31.8497 20.5179 31.9026 20.5932 31.9719H3.87711V31.9712ZM25.8129 31.973C24.3123 31.973 22.9053 31.3813 21.853 30.3111C19.9538 28.3821 19.7623 25.4101 21.2505 23.256L28.9004 31.0351C27.9927 31.6429 26.9263 31.973 25.8129 31.973ZM34.0891 31.5751C33.3163 31.5751 32.5782 31.3511 31.9544 30.9237C34.1361 27.9539 33.9285 23.7579 31.265 21.0504C31.192 20.977 31.1018 20.9237 31.0214 20.8503H37.9185V27.7501C37.9144 29.8625 36.1978 31.5751 34.0891 31.5751Z" fill="black"/>
</svg>
