<svg width="6" height="11" viewBox="0 0 6 11" fill="none" xmlns="http://www.w3.org/2000/svg">
<path d="M3.44225 2.56417V8.9388H2.56418C2.41293 8.67683 2.17947 8.47209 1.9 8.35633C1.62053 8.24057 1.31067 8.22026 1.01849 8.29855C0.726299 8.37684 0.46811 8.54936 0.283962 8.78934C0.0998154 9.02933 0 9.32337 0 9.62586C0 9.92836 0.0998154 10.2224 0.283962 10.4624C0.46811 10.7024 0.726299 10.8749 1.01849 10.9532C1.31067 11.0315 1.62053 11.0112 1.9 10.8954C2.17947 10.7796 2.41293 10.5749 2.56418 10.3129H4.12932C4.31154 10.3129 4.4863 10.2405 4.61515 10.1117C4.744 9.98285 4.81639 9.80809 4.81639 9.62586V2.56417C5.07835 2.41293 5.28309 2.17947 5.39885 1.9C5.51461 1.62053 5.53492 1.31067 5.45663 1.01849C5.37834 0.726299 5.20582 0.468109 4.96584 0.283962C4.72585 0.0998154 4.43181 0 4.12932 0C3.82682 0 3.53278 0.0998154 3.2928 0.283962C3.05281 0.468109 2.88029 0.726299 2.802 1.01849C2.72371 1.31067 2.74402 1.62053 2.85978 1.9C2.97554 2.17947 3.18028 2.41293 3.44225 2.56417Z" fill="black"/>
</svg>
