<svg width="40" height="40" viewBox="0 0 40 40" fill="none" xmlns="http://www.w3.org/2000/svg">
<path d="M39.6288 29.4288L34.0038 26.9288C33.9239 26.8933 33.8374 26.875 33.75 26.875H26.875V24.375C26.875 24.2092 26.8092 24.0503 26.6919 23.9331C26.5747 23.8158 26.4158 23.75 26.25 23.75H25V21.8946L26.2202 20.8487C26.4257 20.6727 26.5906 20.4544 26.7036 20.2086C26.8167 19.9629 26.8751 19.6956 26.875 19.4251V16.5845L28.4717 15.52C28.5573 15.4629 28.6275 15.3856 28.6761 15.2949C28.7246 15.2042 28.75 15.1029 28.75 15V11.25C28.75 11.151 28.7265 11.0534 28.6813 10.9652C28.6362 10.8771 28.5708 10.8009 28.4904 10.743C28.4101 10.6851 28.3171 10.6471 28.2192 10.6322C28.1213 10.6172 28.0213 10.6258 27.9273 10.6571L26.875 11.0078V1.25C26.875 1.10551 26.825 0.965483 26.7334 0.853741C26.6418 0.742 26.5143 0.665447 26.3726 0.637109L23.2476 0.0121094C23.2072 0.00405723 23.1662 1.18389e-06 23.125 0L17.5 0C17.4656 1.46687e-05 17.4312 0.00286283 17.3973 0.00851562L13.6473 0.633516C13.5013 0.657834 13.3688 0.733134 13.2731 0.846019C13.1775 0.958903 13.125 1.10205 13.125 1.25V11.0078L12.0727 10.657C11.9787 10.6257 11.8786 10.6172 11.7807 10.6321C11.6828 10.647 11.5899 10.685 11.5095 10.7429C11.4292 10.8008 11.3638 10.877 11.3186 10.9652C11.2735 11.0533 11.25 11.151 11.25 11.25V15C11.25 15.1029 11.2754 15.2042 11.324 15.2949C11.3725 15.3856 11.4427 15.4629 11.5284 15.52L13.125 16.5845V19.4251C13.1249 19.6956 13.1833 19.9629 13.2964 20.2086C13.4094 20.4544 13.5743 20.6727 13.7798 20.8487L15 21.8946V23.75H13.75C13.5842 23.75 13.4253 23.8158 13.3081 23.9331C13.1908 24.0503 13.125 24.2092 13.125 24.375V26.875H6.875C6.79549 26.875 6.71671 26.8902 6.64289 26.9197L0.392891 29.4197C0.276909 29.4661 0.177489 29.5462 0.107458 29.6496C0.0374269 29.753 -2.1283e-06 29.8751 0 30L0 40H1.25V30.4231L6.99539 28.125H15.625V26.875H14.375V25H15.4248L18.8866 27.4727L10.912 32.5993C10.824 32.6559 10.7516 32.7337 10.7014 32.8255C10.6513 32.9174 10.625 33.0204 10.625 33.125V40H11.875V33.4662L20.338 28.0257L20.337 28.0243C20.3456 28.0187 20.3548 28.0145 20.3632 28.0087L24.5752 25H25.625V27.5C25.625 27.6658 25.6908 27.8247 25.8081 27.9419C25.9253 28.0592 26.0842 28.125 26.25 28.125H33.6172L38.75 30.4062V40H40V30C40 29.8791 39.9649 29.7608 39.8991 29.6594C39.8332 29.558 39.7393 29.4779 39.6288 29.4288ZM27.5 12.1172V14.6655L26.875 15.0822V12.3255L27.5 12.1172ZM17.5517 1.25H23.0631L25.625 1.76242V8.75H23.75V3.75H22.5V8.75H20.625V2.5H19.375V8.75H17.5V3.75H16.25V8.75H14.375V1.77945L17.5517 1.25ZM12.5 14.6655V12.1172L13.125 12.3255V15.0823L12.5 14.6655ZM14.375 19.4251V10H25.625V19.4251C25.625 19.5152 25.6056 19.6044 25.5679 19.6863C25.5302 19.7682 25.4752 19.841 25.4067 19.8996L23.2398 21.757L22.2909 20.808C22.2329 20.75 22.164 20.704 22.0882 20.6726C22.0123 20.6412 21.9311 20.625 21.849 20.625H18.099C18.0169 20.625 17.9356 20.6412 17.8598 20.6726C17.784 20.704 17.7151 20.75 17.657 20.808L16.7321 21.733L14.5933 19.8997C14.5248 19.841 14.4698 19.7682 14.4321 19.6863C14.3944 19.6044 14.375 19.5153 14.375 19.4251ZM22.288 22.5729L21.8192 22.9745C21.706 23.0716 21.5617 23.1249 21.4126 23.125H18.5873C18.4382 23.125 18.2939 23.0716 18.1806 22.9745L17.684 22.5488L18.3578 21.875H21.5901L22.288 22.5729ZM20 26.732L16.25 24.0534V22.9661L17.3672 23.9237C17.7071 24.2148 18.1398 24.3749 18.5873 24.375H21.4126C21.8601 24.3749 22.2929 24.2148 22.6328 23.9237L23.75 22.9661V24.0534L20 26.732Z" fill="#1071FF"/>
</svg>
