<svg width="38" height="38" viewBox="0 0 38 38" fill="none" xmlns="http://www.w3.org/2000/svg">
<path d="M30.4128 3.81136C26.3849 0.78406 21.3195 -0.519197 16.3307 0.18829C11.342 0.895777 6.83866 3.55605 3.81136 7.58389C0.784059 11.6117 -0.519197 16.6772 0.18829 21.6659C0.895777 26.6547 3.55605 31.158 7.58389 34.1853C10.859 36.6614 14.8528 38.0008 18.9585 38C19.8643 37.9998 20.769 37.9359 21.6659 37.8085C25.3862 37.281 28.8665 35.662 31.6667 33.1565C34.4669 30.6509 36.4612 27.3712 37.3975 23.7322C38.3337 20.0932 38.1699 16.2583 36.9266 12.7124C35.6833 9.16651 33.4165 6.06892 30.4128 3.81136ZM4.57657 8.15893C4.72016 7.96787 4.8679 7.78121 5.01787 7.59693C6.53076 9.05177 7.72918 10.8014 8.53907 12.7378C9.34895 14.6741 9.75308 16.756 9.72648 18.8547C9.71006 20.3331 9.47589 21.8009 9.03151 23.211C6.12702 22.1772 3.40193 20.6959 0.954845 18.8206C0.984222 14.9698 2.25428 11.231 4.57657 8.15909V8.15893ZM1.13609 21.5315C1.06541 21.0333 1.01643 20.5355 0.987233 20.0388C3.35447 21.7611 5.95722 23.1338 8.71545 24.1147C7.8471 26.3605 6.46605 28.3725 4.68243 29.9901C2.78731 27.5255 1.56525 24.6107 1.13609 21.5315ZM18.5161 37.0364C14.7706 36.9474 11.1482 35.6822 8.16168 33.4201C7.10957 32.6309 6.14603 31.7301 5.2879 30.7334C7.21113 29.0009 8.69757 26.8382 9.62597 24.4219C12.501 25.3449 15.4969 25.8369 18.5161 25.8819V37.0364ZM18.5161 24.9246C15.6041 24.882 12.7146 24.408 9.94171 23.5179C10.4177 22.0122 10.6682 20.4443 10.6852 18.8652C10.7135 16.6267 10.2806 14.4064 9.41336 12.3426C8.54613 10.2788 7.2632 8.41562 5.64448 6.86925C8.4663 3.74532 12.2985 1.71543 16.4682 1.13605C17.1468 1.03828 17.8306 0.980139 18.5161 0.961905V24.9246ZM19.4733 0.959592C23.2233 1.04603 26.8507 2.3116 29.8406 4.57661C30.7219 5.23959 31.5412 5.98125 32.2884 6.79243C30.452 8.288 28.9661 10.1683 27.9357 12.3008C26.9053 14.4332 26.3553 16.7658 26.3247 19.1339C26.288 20.7275 26.4909 22.3176 26.9264 23.8509C24.4982 24.5262 21.9934 24.887 19.4733 24.9246V0.959592ZM21.5345 36.8606C20.8514 36.9589 20.1632 37.017 19.4733 37.0348V25.8819C22.0913 25.8426 24.6933 25.4669 27.2154 24.7638C28.1507 27.4181 29.7639 29.7816 31.8949 31.6198C29.1195 34.469 25.4742 36.313 21.5345 36.8606ZM33.42 29.8376C33.1398 30.2104 32.8473 30.5703 32.5425 30.9172C30.5387 29.1956 29.0187 26.9811 28.1325 24.4924C28.3656 24.4196 28.5981 24.3447 28.8298 24.2662C31.7578 23.2736 34.5179 21.842 37.0158 20.0202C36.82 23.5774 35.5681 26.9955 33.42 29.8376ZM28.5224 23.3596C28.2965 23.4362 28.0697 23.509 27.8424 23.58C27.4354 22.1405 27.2464 20.6482 27.2817 19.1527C27.3103 16.918 27.83 14.7169 28.8041 12.7055C29.7782 10.694 31.1829 8.92149 32.9185 7.51349C35.037 10.0743 36.4019 13.1737 36.8606 16.4655C36.9705 17.2415 37.0305 18.0238 37.0402 18.8074C34.4695 20.7811 31.5919 22.319 28.5224 23.3596Z" fill="black"/>
</svg>
