<svg width="40" height="40" viewBox="0 0 40 40" fill="none" xmlns="http://www.w3.org/2000/svg">
<path d="M34.1415 5.85125C30.3974 2.0904 25.3018 -0.01669 19.9963 9.95717e-05C8.94882 9.95717e-05 0 8.94892 0 19.9964C0 25.3019 2.10709 30.3891 5.85955 34.1332C13.6667 41.9403 26.326 41.9403 34.1415 34.1332C41.957 26.3261 41.9486 13.6668 34.1415 5.85125ZM32.9494 32.9496C25.7971 40.1019 14.1955 40.1019 7.04321 32.9496C-0.109132 25.7972 -0.109132 14.1956 7.04321 7.04331C14.1955 -0.109032 25.7971 -0.109032 32.9494 7.04331C40.1018 14.1956 40.1018 25.7972 32.9494 32.9496Z" fill="black"/>
</svg>
