<svg width="15" height="15" viewBox="0 0 15 15" fill="none" xmlns="http://www.w3.org/2000/svg">
<path d="M14.7329 0.276389C14.3706 -0.0858772 13.7854 -0.0951667 13.4232 0.2671C13.4232 0.2671 13.4232 0.2671 13.4139 0.276389L4.30147 9.38878C2.84311 8.65496 1.05965 9.24016 0.316535 10.6985C-0.417287 12.1569 0.167914 13.9403 1.62627 14.6834C3.08463 15.4173 4.86809 14.8321 5.6112 13.3737C6.03849 12.5377 6.03849 11.5438 5.6112 10.7078L14.7236 1.58612C15.0859 1.22386 15.0952 0.638656 14.7329 0.276389ZM2.97316 13.1322C2.36009 13.1322 1.86778 12.6399 1.86778 12.0268C1.86778 11.4138 2.36009 10.9214 2.97316 10.9214C3.58623 10.9214 4.07854 11.4138 4.07854 12.0268C4.07854 12.6399 3.58623 13.1322 2.97316 13.1322Z" fill="black"/>
</svg>
