<svg width="4" height="4" viewBox="0 0 4 4" fill="none" xmlns="http://www.w3.org/2000/svg">
<path d="M2 0C1.60444 0 1.21776 0.117298 0.888861 0.33706C0.559962 0.556822 0.303618 0.869178 0.152243 1.23463C0.000867516 1.60008 -0.0387404 2.00221 0.03843 2.39017C0.1156 2.77813 0.306083 3.1345 0.585788 3.4142C0.865493 3.69391 1.22186 3.88439 1.60982 3.96156C1.99778 4.03873 2.39991 3.99912 2.76537 3.84775C3.13082 3.69637 3.44318 3.44003 3.66294 3.11113C3.8827 2.78223 4 2.39556 4 1.99999C3.9993 1.46978 3.78836 0.96148 3.41344 0.58656C3.03852 0.211641 2.53022 0.000702244 2 0ZM2 2.66666C1.86815 2.66666 1.73925 2.62756 1.62962 2.55431C1.51999 2.48105 1.43454 2.37693 1.38408 2.25512C1.33362 2.1333 1.32042 1.99925 1.34614 1.86993C1.37187 1.74061 1.43536 1.62183 1.5286 1.52859C1.62183 1.43536 1.74062 1.37186 1.86994 1.34614C1.99926 1.32042 2.1333 1.33362 2.25512 1.38408C2.37694 1.43453 2.48106 1.51998 2.55431 1.62961C2.62757 1.73925 2.66667 1.86814 2.66667 1.99999C2.66643 2.17673 2.59612 2.34616 2.47114 2.47114C2.34617 2.59611 2.17674 2.66642 2 2.66666Z" fill="#1071FF"/>
</svg>
