<svg width="2" height="2" viewBox="0 0 2 2" fill="none" xmlns="http://www.w3.org/2000/svg">
<path d="M0.600187 1.99999C0.679026 2.00009 0.757112 1.98462 0.829954 1.95446C0.902795 1.9243 0.968958 1.88004 1.02464 1.82422L1.81843 1.03033C1.8754 0.974878 1.92079 0.908656 1.95196 0.835513C1.98313 0.762369 1.99945 0.683762 1.99999 0.604256C2.00052 0.524751 1.98525 0.445932 1.95507 0.372376C1.92489 0.298819 1.8804 0.231992 1.82418 0.175775C1.76795 0.119559 1.70112 0.0750728 1.62756 0.0449004C1.554 0.014728 1.47518 -0.000530117 1.39568 1.40592e-05C1.31617 0.000558235 1.23756 0.0168928 1.16443 0.0480693C1.09129 0.0792458 1.02507 0.124644 0.969622 0.181625L0.175735 0.975413C0.0918134 1.05936 0.0346678 1.16631 0.0115221 1.28273C-0.0116236 1.39915 0.000268067 1.51983 0.0456989 1.62949C0.0911297 1.73915 0.16806 1.83289 0.266756 1.89883C0.365453 1.96478 0.481485 1.99998 0.600187 1.99999Z" fill="black"/>
</svg>
