<svg width="21" height="11" viewBox="0 0 21 11" fill="none" xmlns="http://www.w3.org/2000/svg">
<path d="M19.8941 0H1.10822C0.497118 0 0 0.496056 0 1.10585V4.7498C0 5.15821 0.222672 5.51476 0.552398 5.70702V8.88818C0.552398 9.77316 1.27235 10.4931 2.15733 10.4931H9.03894C9.37665 10.4931 9.65045 10.2193 9.65045 9.8816C9.65045 9.54388 9.37665 9.27009 9.03894 9.27009H2.15733C1.95031 9.27009 1.77542 9.0952 1.77542 8.88818V5.85794H9.88967V6.27002C9.88967 6.60774 10.1635 6.88153 10.5012 6.88153C10.8389 6.88153 11.1127 6.60774 11.1127 6.27002V5.85794H19.2246V8.88818C19.2246 9.0952 19.0497 9.27009 18.8428 9.27009H11.2833C10.9456 9.27009 10.6718 9.54388 10.6718 9.8816C10.6718 10.2193 10.9456 10.4931 11.2833 10.4931H18.8428C19.7277 10.4931 20.4476 9.77316 20.4476 8.88818V5.70767C20.7772 5.51566 21 5.15862 21 4.74972V1.10577C20.9999 0.496056 20.5039 0 19.8941 0ZM10.5012 2.31632C10.1635 2.31632 9.88967 2.59011 9.88967 2.92783V4.635H1.22302V1.22302H19.7769V4.63508H11.1127V2.92791C11.1127 2.59011 10.8389 2.31632 10.5012 2.31632Z" fill="black"/>
</svg>
