<svg width="40" height="39" viewBox="0 0 40 39" fill="none" xmlns="http://www.w3.org/2000/svg">
<path d="M38.1828 0.436731C38.0438 0.153797 37.7491 -0.0178215 37.4338 0.00147291C37.1071 0.0215485 29.4002 0.547185 26.6109 5.34666C26.5431 5.46328 26.4764 5.61553 26.3757 5.84613C26.3301 5.95018 26.28 6.06477 26.2243 6.18843C25.4497 5.75856 24.6393 5.41907 23.7981 5.18676C23.3828 5.07185 22.952 5.31588 22.8372 5.73177C22.7223 6.14757 22.9663 6.57783 23.3822 6.69266C26.193 7.46897 28.8761 9.75634 30.9371 13.1333C32.8905 16.3338 34.0108 20.0659 34.0108 23.3727C34.0108 25.9605 33.2896 28.417 31.9242 30.478C31.9053 30.5067 31.8865 30.5347 31.867 30.5625C31.8649 30.5656 31.8627 30.5687 31.8607 30.5718C31.3144 31.3802 30.6777 32.1197 29.9571 32.7841L30.9115 29.3011V29.3011C31.1897 28.2861 31.0341 27.1893 30.4846 26.292C29.9412 25.4047 29.087 24.8009 28.08 24.592C27.8281 24.5397 27.5682 24.5126 27.307 24.5116C25.1984 24.5048 25.0103 24.2479 25.0103 23.5156C25.0103 22.3433 24.5539 21.2413 23.7254 20.4128C22.8968 19.5842 21.7951 19.1279 20.6234 19.1279H19.3766C16.9572 19.1279 14.9889 21.0962 14.9889 23.5156C14.9889 24.0948 14.7909 24.226 14.5703 24.3186C14.1459 24.4967 13.4165 24.5116 12.7057 24.5116C12.4468 24.5116 12.1864 24.5379 11.9313 24.5899C10.921 24.7965 10.064 25.3996 9.51825 26.2881C8.96653 27.1864 8.8099 28.2846 9.08854 29.3011L10.043 32.7841C9.32242 32.1197 8.68578 31.3802 8.13944 30.5718C8.13741 30.5687 8.13522 30.5657 8.13311 30.5625C8.11359 30.5346 8.09476 30.5066 8.07476 30.4762C6.7104 28.417 5.98932 25.9606 5.98932 23.3727C5.98932 20.0632 7.11121 16.3289 9.06729 13.1273C11.1313 9.74907 13.818 7.46264 16.6326 6.68907C17.0486 6.57471 17.2931 6.14484 17.1788 5.7288C17.0644 5.31283 16.6345 5.06826 16.2185 5.18262C15.3714 5.4154 14.5557 5.75676 13.7762 6.18936C13.7204 6.06547 13.6701 5.95057 13.6245 5.84636C13.5236 5.61576 13.4571 5.46344 13.3892 5.34681C10.5998 0.547185 2.89284 0.0214704 2.56624 0.00139484C2.25175 -0.0171966 1.95624 0.153798 1.81727 0.436652C1.67291 0.730443 -1.68533 7.68699 1.10408 12.4865C1.19985 12.6513 1.31983 12.8634 1.45904 13.1095C2.62342 15.1671 3.94927 17.4308 5.08928 18.5401C4.65715 20.1874 4.42694 21.8308 4.42694 23.3725C4.42694 26.2682 5.23793 29.023 6.7711 31.3371C6.79649 31.3756 6.8218 31.4133 6.84796 31.4509C7.92814 33.0481 9.31953 34.4036 10.9837 35.48C10.9854 35.4811 10.9871 35.4823 10.9889 35.4834C13.5923 37.1652 16.7084 38.0542 20 38.0542C23.2916 38.0542 26.4076 37.1652 29.011 35.4834C29.0127 35.4822 29.0145 35.4811 29.0163 35.48C30.6804 34.4035 32.0717 33.0481 33.1519 31.4509C33.1782 31.4132 33.2035 31.3756 33.2278 31.3388C34.7621 29.023 35.573 26.2682 35.573 23.3725C35.573 21.8311 35.3427 20.1876 34.9105 18.5401C36.0506 17.4308 37.3765 15.1671 38.5409 13.1094C38.6802 12.8634 38.8001 12.6513 38.8959 12.4865C41.6854 7.68707 38.3271 0.730443 38.1828 0.436731ZM7.01122 13.5919C6.29749 12.166 5.45869 10.3263 5.38057 10.1321C4.87079 8.85965 4.82392 7.20314 5.23809 5.40938C6.60893 5.70544 8.2731 6.19296 10.1287 9.11548C8.91966 10.4247 7.8694 11.955 7.01122 13.5919ZM2.81879 12.3401C2.67599 12.0878 2.55296 11.8704 2.45477 11.7016C0.467442 8.28215 2.33299 3.19701 3.0022 1.61361C4.70995 1.81609 10.0512 2.71246 12.0381 6.13117C12.0634 6.17585 12.1353 6.34028 12.1931 6.47245C12.2618 6.62946 12.3462 6.82241 12.4467 7.03871C12.0401 7.33375 11.6456 7.65363 11.2637 7.99554C9.00847 4.6062 6.80992 4.14337 5.32722 3.83122C5.15958 3.79592 5.00124 3.76264 4.85306 3.72733C4.44866 3.63101 4.03926 3.8688 3.92255 4.26812C3.42715 5.96291 3.02634 8.45681 3.93036 10.7133C4.03582 10.9763 5.38354 13.9336 6.17367 15.3651C5.97425 15.8367 5.79052 16.3135 5.6232 16.7928C4.62567 15.5334 3.44886 13.4538 2.81879 12.3401ZM12.0861 34.3285L10.5953 28.888C10.4305 28.2867 10.523 27.637 10.8495 27.1056C11.1666 26.5894 11.6618 26.2395 12.2438 26.1205C12.396 26.0895 12.5513 26.0737 12.7057 26.0737C13.6117 26.0737 14.4823 26.0497 15.1749 25.759C15.8028 25.4954 16.5512 24.8923 16.5512 23.5155C16.5512 21.9575 17.8187 20.69 19.3766 20.69H20.6234C21.3778 20.69 22.0871 20.9838 22.6207 21.5174C23.1542 22.0508 23.448 22.7604 23.448 23.5155C23.448 24.8918 24.2008 25.4943 24.8323 25.7573C25.5226 26.0448 26.3592 26.0707 27.3016 26.0737C27.4575 26.0743 27.6124 26.0904 27.7622 26.1215C28.3429 26.242 28.8365 26.5921 29.1522 27.1077C29.4772 27.6385 29.5693 28.2875 29.4046 28.8881L27.9138 34.3285C25.6144 35.7449 22.8852 36.492 19.9999 36.492C17.1146 36.492 14.3854 35.745 12.0861 34.3285ZM29.8717 9.11478C31.7272 6.19296 33.3913 5.70536 34.7619 5.40931C35.1761 7.20306 35.1293 8.85957 34.6196 10.1318C34.5414 10.3262 33.7025 12.166 32.9888 13.5918C32.1306 11.9548 31.0805 10.4242 29.8717 9.11478ZM37.5453 11.7016C37.4471 11.8704 37.324 12.0878 37.1813 12.3401C36.5512 13.4538 35.3742 15.5336 34.3768 16.7929C34.2095 16.3136 34.0258 15.8368 33.8264 15.3651C34.6163 13.934 35.9642 10.9763 36.0698 10.713C36.9737 8.45673 36.5729 5.96283 36.0776 4.26797C35.9608 3.86864 35.5514 3.63109 35.147 3.72717C34.9989 3.7624 34.8405 3.79576 34.673 3.83107C33.1904 4.14314 30.9921 4.60605 28.7369 7.99468C28.3551 7.65269 27.9605 7.33273 27.5539 7.03762C27.6542 6.82155 27.7386 6.62884 27.8071 6.47206C27.8648 6.34013 27.9367 6.17585 27.9616 6.13171C29.9492 2.71176 35.2923 1.8157 36.9986 1.61346C37.6691 3.19529 39.5374 8.27363 37.5453 11.7016Z" fill="black"/>
</svg>
