<svg width="40" height="34" viewBox="0 0 40 34" fill="none" xmlns="http://www.w3.org/2000/svg">
<path d="M38.1203 18.3374L31.6495 17.5036L28.5179 12.2155C27.1806 9.9543 26.493 9.58805 25.3636 9.58484L23.3155 9.58156V8.22773H26.5053C27.1826 8.22773 27.7335 7.6768 27.7335 6.99953C27.7335 5.47172 26.6609 4.165 24.6318 3.22078C23.0879 2.50234 21.3545 2.17914 20.6168 2.17914H16.3352V1.67555C16.3352 0.75164 15.5825 0 14.6573 0H7.03922C6.11406 0 5.36141 0.75164 5.36141 1.67555V2.23672C3.97461 2.51055 2.92539 3.73648 2.92539 5.20344V6.99953C2.92539 7.6768 3.47539 8.22773 4.15141 8.22773H5.77781V9.5532L4.83078 9.55164C4.82883 9.55164 4.82695 9.55164 4.82492 9.55164C4.30742 9.55164 3.81953 9.75398 3.45062 10.1218C3.07906 10.4923 2.87445 10.9839 2.87445 11.5062V12.9458V14.7051H2.0232C0.907656 14.705 0 15.6127 0 16.7283V23.7021C0 24.8177 0.907656 25.7254 2.0232 25.7254H2.87445V27.3917C2.87445 28.4695 3.75125 29.3463 4.82898 29.3463H6.15445C6.63625 31.6697 8.69867 33.4212 11.1627 33.4212C13.6267 33.4212 15.6891 31.6698 16.1709 29.3463H19.8948C20.2184 29.3463 20.4808 29.084 20.4808 28.7603C20.4808 28.4366 20.2184 28.1743 19.8948 28.1743H16.2741C16.2037 25.4148 13.9387 23.1913 11.1627 23.1913C8.38672 23.1913 6.12172 25.4148 6.05133 28.1743H4.82906C4.3975 28.1743 4.04648 27.8232 4.04648 27.3916V25.1394V18.6341H5.88328C6.63016 18.6341 7.23383 18.2605 7.67758 17.5234L9.66148 14.2711C9.9025 13.8748 9.9193 13.4315 9.70742 13.0546C9.47734 12.6454 8.98578 12.3596 8.51195 12.3596H4.04648V11.5061C4.04648 11.2975 4.12875 11.1005 4.2782 10.9516C4.42578 10.8045 4.61992 10.7234 4.82586 10.7234H4.82812H25.3556C25.8732 10.7249 26.2351 10.7605 27.2342 12.3596H13.2954C13.1127 12.3596 12.4855 12.4156 12.0835 13.1369L10.1234 16.6608C9.8818 17.096 9.88297 17.583 10.1266 17.9968C10.3545 18.3839 10.7586 18.6341 11.1562 18.6341H31.2534L37.9696 19.4995C38.397 19.5552 38.8281 19.8211 38.8281 20.2892V20.3876H36.5195C35.973 20.3876 35.5283 20.8323 35.5283 21.3788V22.2248C35.5283 23.2366 36.3515 24.0598 37.3633 24.0598H38.828V27.3916C38.828 27.8231 38.4769 28.1742 38.0453 28.1742H36.9358C36.644 25.629 34.4777 23.6453 31.8555 23.6453C29.2334 23.6453 27.0671 25.629 26.7754 28.1742H22.9797C22.6561 28.1742 22.3937 28.4366 22.3937 28.7602C22.3937 29.0839 22.656 29.3462 22.9797 29.3462H26.7755C27.0673 31.8915 29.2336 33.8752 31.8556 33.8752C34.4777 33.8752 36.6441 31.8915 36.9359 29.3462H38.0454C39.1231 29.3462 40 28.4694 40 27.3916V23.474V20.9737V20.2894C40 19.2846 39.2274 18.482 38.1203 18.3374ZM11.1628 24.3634C13.3369 24.3634 15.1056 26.1322 15.1056 28.3064C15.1056 30.4806 13.3369 32.2494 11.1628 32.2494C8.98875 32.2494 7.22 30.4806 7.22 28.3064C7.22 26.1322 8.98867 24.3634 11.1628 24.3634ZM2.0232 24.5534C1.55383 24.5534 1.17195 24.1716 1.17195 23.7021V16.7283C1.17195 16.2588 1.55383 15.877 2.0232 15.877H2.87445V18.0482V24.5534H2.0232ZM8.51188 13.5317C8.56094 13.532 8.65266 13.5816 8.68078 13.6209C8.67789 13.6291 8.67203 13.6427 8.66055 13.6616L6.69758 16.8794L6.67352 16.9191C6.50367 17.2012 6.29031 17.4623 5.88328 17.4623H4.04648V15.291V13.5317H8.51188ZM22.1434 9.57961L19.843 9.57586V8.22758H22.1434V9.57961ZM6.53344 1.67547C6.53344 1.39781 6.76039 1.17187 7.0393 1.17187H14.6574C14.9363 1.17187 15.1633 1.39781 15.1633 1.67547V2.17906H6.53344V1.67547ZM4.15141 7.0557C4.12367 7.0557 4.09742 7.02836 4.09742 6.99945V5.20336C4.09742 4.18195 4.92734 3.35102 5.94742 3.35102H20.6167C21.2287 3.35102 22.7707 3.64727 24.1373 4.2832C25.2431 4.79781 26.5615 5.6868 26.5615 6.99945C26.5615 7.02781 26.5337 7.0557 26.5052 7.0557H15.7823C15.4588 7.0557 15.1963 7.31805 15.1963 7.64172C15.1963 7.96539 15.4587 8.22773 15.7823 8.22773H18.671L18.67 9.5607H10.4245V8.22773H13.0784C13.402 8.22773 13.6644 7.96539 13.6644 7.64172C13.6644 7.31805 13.402 7.0557 13.0784 7.0557H4.15141ZM6.94977 8.22766H9.25242V9.55875L6.94977 9.555V8.22766ZM20.5755 17.4623H11.1914C11.1702 17.448 11.1376 17.4154 11.123 17.3733C11.1132 17.3452 11.1071 17.3034 11.1478 17.2302L13.1074 13.7071C13.198 13.5445 13.2899 13.5324 13.2954 13.5316H20.5755V17.4623ZM21.7475 13.5317H27.9352L30.2629 17.4623H21.7475V13.5317ZM31.8557 32.7033C29.6816 32.7033 27.9129 30.9345 27.9129 28.7603C27.9129 26.5861 29.6816 24.8173 31.8557 24.8173C34.0298 24.8173 35.7985 26.5861 35.7985 28.7603C35.7985 30.9345 34.0298 32.7033 31.8557 32.7033ZM37.3633 22.888C36.9977 22.888 36.7002 22.5906 36.7002 22.225V21.5598H38.828V22.8881H37.3633V22.888Z" fill="black"/>
</svg>
