<svg width="26" height="15" viewBox="0 0 26 15" fill="none" xmlns="http://www.w3.org/2000/svg">
<path d="M24.4564 5.14486L22.5455 4.27207L20.8367 1.52508C20.2395 0.569608 19.2013 0 18.0897 0H10.4918C9.48123 0 8.52576 0.477736 7.9194 1.27703L5.69609 4.18938L1.96607 5.20916C0.808477 5.53072 0.00918724 6.57807 0 7.77241V9.24237C0 10.7123 1.20353 11.9434 2.6643 11.9434H2.70105C3.16041 13.1378 4.36394 14.0932 5.76959 14.0932C7.17524 14.0932 8.37877 13.1378 8.83813 11.9434H16.9137C17.3731 13.1378 18.5766 14.0932 19.9823 14.0932C21.3879 14.0932 22.5914 13.1378 23.0508 11.9434H23.3723C24.8423 11.9434 25.9999 10.7123 25.9999 9.24237V7.5611C26.0091 6.52294 25.4027 5.57666 24.4564 5.14486ZM5.76959 12.2098C4.97949 12.2098 4.33638 11.5667 4.33638 10.7766C4.33638 9.98653 4.97949 9.34342 5.76959 9.34342C6.55969 9.34342 7.2028 9.98653 7.2028 10.7766C7.2028 11.5759 6.55969 12.2098 5.76959 12.2098ZM19.9823 12.2098C19.1921 12.2098 18.549 11.5667 18.549 10.7766C18.549 9.98653 19.1921 9.34342 19.9823 9.34342C20.7724 9.34342 21.4155 9.98653 21.4155 10.7766C21.4063 11.5759 20.7724 12.2098 19.9823 12.2098ZM24.1624 9.25155C24.1624 9.70173 23.8225 10.1152 23.3723 10.1152H23.1702C22.7752 8.3512 21.0296 7.24873 19.2656 7.64378C18.0346 7.9194 17.0699 8.88406 16.7943 10.1152H8.95756C8.5717 8.3512 6.83531 7.23036 5.07136 7.61622C3.83108 7.88265 2.86642 8.84731 2.58162 10.0784C2.159 10.0325 1.83745 9.67416 1.83745 9.25155V7.78159C1.83745 7.4141 2.0855 7.08336 2.44381 6.99149L6.46782 5.88902C6.66075 5.8339 6.83531 5.72365 6.95474 5.55828L9.37099 2.38868C9.63742 2.03957 10.0508 1.83745 10.4826 1.83745H18.0805C18.5674 1.83745 19.0176 2.0855 19.2656 2.49893L21.1398 5.48478C21.2317 5.64096 21.3695 5.7604 21.5349 5.8339L23.6847 6.81693C23.9879 6.95474 24.1716 7.24873 24.1624 7.57029V9.25155Z" fill="black"/>
</svg>
