<svg width="26" height="26" viewBox="0 0 26 26" fill="none" xmlns="http://www.w3.org/2000/svg">
<path d="M23.7809 19.1503C24.0774 19.3012 24.4401 19.1834 24.5911 18.887C25.526 17.0519 26 15.0709 26 12.9991C26 5.83137 20.1677 0 12.9988 0C5.8313 0 0 5.83137 0 12.9991C0 20.1669 5.8313 25.9983 12.9988 25.9983C16.884 25.9983 20.535 24.2807 23.0156 21.2859C23.2278 21.0297 23.1922 20.65 22.936 20.4378C22.6798 20.2256 22.2999 20.2611 22.0878 20.5174C19.8368 23.235 16.524 24.7935 12.9988 24.7935C6.49552 24.7935 1.20468 19.5026 1.20468 12.9991C1.20468 6.49568 6.4956 1.20476 12.9988 1.20476C19.5034 1.20476 24.7952 6.49568 24.7952 12.9991C24.7952 14.8791 24.3654 16.676 23.5176 18.3401C23.3665 18.6366 23.4844 18.9993 23.7809 19.1503Z" fill="black"/>
</svg>
