<svg width="2" height="2" viewBox="0 0 2 2" fill="none" xmlns="http://www.w3.org/2000/svg">
<path d="M0.181257 1.02854L0.973659 1.82104C1.02913 1.87743 1.09522 1.92227 1.1681 1.95298C1.24099 1.98369 1.31924 1.99967 1.39833 1.99999C1.47743 2.00032 1.5558 1.98498 1.62894 1.95486C1.70207 1.92474 1.76852 1.88044 1.82445 1.82451C1.88038 1.76858 1.92468 1.70213 1.9548 1.62899C1.98492 1.55586 2.00026 1.47748 1.99994 1.39839C1.99962 1.31929 1.98364 1.24105 1.95292 1.16816C1.92221 1.09527 1.87737 1.02918 1.82098 0.973712L1.02858 0.181307C0.97323 0.124425 0.907131 0.0791076 0.834119 0.0479855C0.761106 0.0168634 0.682637 0.000557262 0.603271 1.40347e-05C0.523904 -0.000529193 0.44522 0.0147023 0.371789 0.0448221C0.298358 0.0749419 0.231643 0.119349 0.175518 0.175467C0.119393 0.231586 0.0749773 0.298299 0.0448489 0.371726C0.0147206 0.445154 -0.000520316 0.523836 1.35553e-05 0.603203C0.000547427 0.68257 0.016844 0.761039 0.0479574 0.834055C0.0790708 0.907071 0.124382 0.973178 0.181257 1.02854Z" fill="black"/>
</svg>
