<svg width="15" height="19" viewBox="0 0 15 19" fill="none" xmlns="http://www.w3.org/2000/svg">
<path d="M3.16436 13.0803C3.27885 13.1571 3.34718 13.2835 3.34718 13.418V16.3598C3.34718 17.8156 4.53163 19 5.98744 19H8.30493C9.76075 19 10.9451 17.8156 10.9451 16.3598V13.4179C10.9451 13.2834 11.0128 13.1576 11.1263 13.0814C13.1086 11.7497 14.2921 9.53084 14.2921 7.14611C14.2921 3.24076 11.1588 0.0537595 7.24461 0.000708164C5.89639 -0.0183339 4.57723 0.346991 3.42468 1.05492C3.14806 1.22481 3.06155 1.58669 3.23144 1.86331C3.4014 2.13985 3.76336 2.22636 4.03974 2.05647C5.00243 1.46522 6.10616 1.16384 7.22862 1.17599C10.4489 1.21956 13.1166 3.83749 13.1166 7.14611C13.1166 9.13871 12.1275 10.9927 10.4707 12.1057C10.0316 12.4005 9.76952 12.8911 9.76952 13.4179V13.7829H7.73375V10.2291C8.5372 9.97829 9.12209 9.22734 9.12209 8.34224C9.12209 8.01758 8.85903 7.75452 8.53438 7.75452C8.20972 7.75452 7.94666 8.01758 7.94666 8.34224C7.94666 8.78373 7.58752 9.14294 7.14603 9.14294C6.70453 9.14294 6.34532 8.78373 6.34532 8.34224C6.34532 8.01758 6.08226 7.75452 5.7576 7.75452C5.43295 7.75452 5.16989 8.01758 5.16989 8.34224C5.16989 9.22734 5.75478 9.97829 6.55831 10.2291V13.7829H4.52246V13.418C4.52246 12.8913 4.25979 12.4005 3.81994 12.1047C2.12903 10.9682 1.1408 9.07438 1.17638 7.03891C1.19903 5.74186 1.63574 4.5129 2.43935 3.48486C2.63925 3.22908 2.59396 2.85968 2.33826 2.65986C2.08233 2.46004 1.71316 2.50525 1.51326 2.76095C0.551206 3.99186 0.0282942 5.46406 0.00110247 7.01846C-0.0412916 9.4542 1.1412 11.7204 3.16436 13.0803ZM9.76976 14.9584V16.3598C9.76976 17.1675 9.11261 17.8246 8.30501 17.8246H5.98752C5.17976 17.8246 4.52269 17.1674 4.52269 16.3598V14.9584H9.76976Z" fill="black"/>
</svg>
