<svg width="33" height="40" viewBox="0 0 33 40" fill="none" xmlns="http://www.w3.org/2000/svg">
<path d="M26.7166 0.96084C26.5221 0.263902 25.8001 -0.144046 25.1028 0.0489936L17.2767 2.33189C16.87 0.92148 16.8503 0.495077 16.2467 0.160514C15.9459 -0.00377302 15.5927 -0.0438012 15.2627 0.0489936L5.10779 3.01413C4.41414 3.20867 4.00709 3.92612 4.19595 4.62135L8.78798 21.8283L1.84089 29.0903C-0.572035 31.4453 -0.619028 35.3104 1.73593 37.7233C4.09089 40.1363 7.95602 40.1833 10.3689 37.8283L11.3267 37.0017C12.3677 38.3257 13.9068 39.1639 15.5838 39.3202C17.2607 39.4765 18.9282 38.9371 20.1959 37.8283C24.637 34.0038 26.2574 32.5147 29.5636 30.2121C32.3721 28.2745 33.6313 24.7611 32.6928 21.4807C27.3332 2.66645 38.3541 41.9415 26.7166 0.96084ZM6.85932 9.44298L17.1258 6.55656L17.526 7.93417L7.23325 10.8337L6.85932 9.44298ZM19.1397 8.74761L26.9659 6.55656L27.366 7.93417L19.5399 10.1646L19.1397 8.74761ZM25.457 1.30852L26.5985 5.24455L18.7724 7.47497C18.7264 7.32409 17.5916 3.40118 17.644 3.5783L25.457 1.30852ZM15.617 1.30852C16.1943 3.27654 14.9019 -1.17117 16.7584 5.24455L6.5182 8.17689L5.47515 4.24086C16.0499 1.17732 15.5514 1.30852 15.617 1.30852ZM10.0869 21.4807L7.57437 12.0998L17.8868 9.18058L20.6813 18.8107C15.9647 21.297 13.9901 25.9153 17.0733 30.527C14.8495 32.2063 13.1373 33.7414 10.2246 36.208C8.69267 33.3133 6.43139 30.8689 3.66458 29.1166L9.77198 22.7468C10.0883 22.4073 10.2074 21.9288 10.0869 21.4807ZM18.1426 29.7398C15.6039 25.9021 17.1717 22.3007 21.0618 20.0899L21.5735 21.848C22.3369 24.5882 21.2844 27.5116 18.9495 29.1362C18.6805 29.333 18.4116 29.5167 18.1426 29.7398ZM5.9278 38.0448C4.10189 37.9205 2.50811 36.7624 1.82601 35.0641C1.14391 33.3659 1.49379 31.427 2.7265 30.0743C5.48847 31.7577 7.72971 34.1738 9.20126 37.0542C8.26894 37.7755 7.10361 38.1281 5.9278 38.0448ZM12.3042 36.1621C14.4493 34.3515 13.9376 34.7385 16.109 32.9673C17.2765 34.1909 18.2619 35.5761 19.0348 37.0805C18.019 37.8502 16.7388 38.1845 15.4764 38.0097C14.2139 37.835 13.0727 37.1656 12.3042 36.1489V36.1621ZM20.0581 36.2145C19.2684 34.7325 18.2844 33.3625 17.1324 32.1407C17.972 31.4847 18.8314 30.8287 19.7104 30.2252C22.5037 28.2791 23.7572 24.7769 22.833 21.5003L19.9073 11.3913L27.7268 9.18058L30.5214 18.8173C25.8244 21.2904 23.817 25.9021 26.9134 30.5335C24.3287 32.4687 23.3185 33.4527 20.0581 36.2014V36.2145ZM28.7961 29.1362C28.5206 29.3265 28.2516 29.5298 27.9761 29.7266C25.4636 25.9218 26.9855 22.3072 30.9019 20.0899L31.4136 21.8415C32.1835 24.5823 31.133 27.5101 28.7961 29.1362Z" fill="black"/>
</svg>
