<svg width="20" height="20" viewBox="0 0 20 20" fill="none" xmlns="http://www.w3.org/2000/svg">
<path d="M19.375 5.625C19.5408 5.625 19.6997 5.55915 19.8169 5.44194C19.9342 5.32473 20 5.16576 20 5V3.125C20 2.95924 19.9342 2.80027 19.8169 2.68306C19.6997 2.56585 19.5408 2.5 19.375 2.5H18.125C18.125 2.33424 18.0592 2.17527 17.9419 2.05806C17.8247 1.94085 17.6658 1.875 17.5 1.875V0.625C17.5 0.45924 17.4342 0.300268 17.3169 0.183058C17.1997 0.0658476 17.0408 0 16.875 0H15C14.8342 0 14.6753 0.0658476 14.5581 0.183058C14.4408 0.300268 14.375 0.45924 14.375 0.625V1.875H13.75V0.625C13.75 0.45924 13.6842 0.300268 13.5669 0.183058C13.4497 0.0658476 13.2908 0 13.125 0H11.25C11.0842 0 10.9253 0.0658476 10.8081 0.183058C10.6908 0.300268 10.625 0.45924 10.625 0.625V1.875H9.375V0.625C9.375 0.45924 9.30915 0.300268 9.19194 0.183058C9.07473 0.0658476 8.91576 0 8.75 0H6.875C6.70924 0 6.55027 0.0658476 6.43306 0.183058C6.31585 0.300268 6.25 0.45924 6.25 0.625V1.875H5.625V0.625C5.625 0.45924 5.55915 0.300268 5.44194 0.183058C5.32473 0.0658476 5.16576 0 5 0H3.125C2.95924 0 2.80027 0.0658476 2.68306 0.183058C2.56585 0.300268 2.5 0.45924 2.5 0.625V1.875C2.33424 1.875 2.17527 1.94085 2.05806 2.05806C1.94085 2.17527 1.875 2.33424 1.875 2.5H0.625C0.45924 2.5 0.300268 2.56585 0.183058 2.68306C0.0658476 2.80027 0 2.95924 0 3.125V5C0 5.16576 0.0658476 5.32473 0.183058 5.44194C0.300268 5.55915 0.45924 5.625 0.625 5.625H1.875V6.25H0.625C0.45924 6.25 0.300268 6.31585 0.183058 6.43306C0.0658476 6.55027 0 6.70924 0 6.875V8.75C0 8.91576 0.0658476 9.07473 0.183058 9.19194C0.300268 9.30915 0.45924 9.375 0.625 9.375H1.875V10.625H0.625C0.45924 10.625 0.300268 10.6908 0.183058 10.8081C0.0658476 10.9253 0 11.0842 0 11.25V13.125C0 13.2908 0.0658476 13.4497 0.183058 13.5669C0.300268 13.6842 0.45924 13.75 0.625 13.75H1.875V14.375H0.625C0.45924 14.375 0.300268 14.4408 0.183058 14.5581C0.0658476 14.6753 0 14.8342 0 15V16.875C0 17.0408 0.0658476 17.1997 0.183058 17.3169C0.300268 17.4342 0.45924 17.5 0.625 17.5H1.875C1.875 17.6658 1.94085 17.8247 2.05806 17.9419C2.17527 18.0592 2.33424 18.125 2.5 18.125V19.375C2.5 19.5408 2.56585 19.6997 2.68306 19.8169C2.80027 19.9342 2.95924 20 3.125 20H5C5.16576 20 5.32473 19.9342 5.44194 19.8169C5.55915 19.6997 5.625 19.5408 5.625 19.375V18.125H6.25V19.375C6.25 19.5408 6.31585 19.6997 6.43306 19.8169C6.55027 19.9342 6.70924 20 6.875 20H8.75C8.91576 20 9.07473 19.9342 9.19194 19.8169C9.30915 19.6997 9.375 19.5408 9.375 19.375V18.125H10.625V19.375C10.625 19.5408 10.6908 19.6997 10.8081 19.8169C10.9253 19.9342 11.0842 20 11.25 20H13.125C13.2908 20 13.4497 19.9342 13.5669 19.8169C13.6842 19.6997 13.75 19.5408 13.75 19.375V18.125H14.375V19.375C14.375 19.5408 14.4408 19.6997 14.5581 19.8169C14.6753 19.9342 14.8342 20 15 20H16.875C17.0408 20 17.1997 19.9342 17.3169 19.8169C17.4342 19.6997 17.5 19.5408 17.5 19.375V18.125C17.6658 18.125 17.8247 18.0592 17.9419 17.9419C18.0592 17.8247 18.125 17.6658 18.125 17.5H19.375C19.5408 17.5 19.6997 17.4342 19.8169 17.3169C19.9342 17.1997 20 17.0408 20 16.875V15C20 14.8342 19.9342 14.6753 19.8169 14.5581C19.6997 14.4408 19.5408 14.375 19.375 14.375H18.125V13.75H19.375C19.5408 13.75 19.6997 13.6842 19.8169 13.5669C19.9342 13.4497 20 13.2908 20 13.125V11.25C20 11.0842 19.9342 10.9253 19.8169 10.8081C19.6997 10.6908 19.5408 10.625 19.375 10.625H18.125V9.375H19.375C19.5408 9.375 19.6997 9.30915 19.8169 9.19194C19.9342 9.07473 20 8.91576 20 8.75V6.875C20 6.70924 19.9342 6.55027 19.8169 6.43306C19.6997 6.31585 19.5408 6.25 19.375 6.25H18.125V5.625H19.375ZM18.125 3.75H18.75V4.375H18.125V3.75ZM1.875 16.25H1.25V15.625H1.875V16.25ZM1.875 12.5H1.25V11.875H1.875V12.5ZM1.875 8.125H1.25V7.5H1.875V8.125ZM1.875 4.375H1.25V3.75H1.875V4.375ZM15.625 1.25H16.25V1.875H15.625V1.25ZM11.875 1.25H12.5V1.875H11.875V1.25ZM7.5 1.25H8.125V1.875H7.5V1.25ZM3.75 1.25H4.375V1.875H3.75V1.25ZM4.375 18.75H3.75V18.125H4.375V18.75ZM8.125 18.75H7.5V18.125H8.125V18.75ZM12.5 18.75H11.875V18.125H12.5V18.75ZM16.25 18.75H15.625V18.125H16.25V18.75ZM16.875 16.875H3.125V3.125H16.875V16.875ZM18.75 15.625V16.25H18.125V15.625H18.75ZM18.75 11.875V12.5H18.125V11.875H18.75ZM18.75 7.5V8.125H18.125V7.5H18.75Z" fill="black"/>
</svg>
