<svg width="10" height="10" viewBox="0 0 10 10" fill="none" xmlns="http://www.w3.org/2000/svg">
<path d="M7.02678 2.58159C5.7652 1.97826 5.00024 1.55828 5.00024 0.83332C5.00024 0.373342 4.62689 0 4.16691 0C3.70693 0 3.33359 0.373342 3.33359 0.83332C3.33359 2.65987 4.98188 3.44983 6.30681 4.0848C7.56839 4.68813 8.33336 5.10811 8.33336 5.83308C8.33336 7.42136 6.81507 8.33296 4.16691 8.33296C3.66858 8.33296 2.18037 7.66799 1.42204 6.91139C1.09706 6.5864 0.568723 6.5864 0.243739 6.91139C-0.0812462 7.23637 -0.0812462 7.7647 0.243739 8.08969C1.22705 9.07128 3.13196 9.9996 4.16691 9.9996C8.46835 9.9996 10 7.84634 10 5.83316C9.99992 4.00653 8.35172 3.21656 7.02678 2.58159Z" fill="black"/>
</svg>
