<svg width="26" height="40" viewBox="0 0 26 40" fill="none" xmlns="http://www.w3.org/2000/svg">
<path d="M14 38.6667C14 39.403 14.597 40 15.3333 40H23.3333C24.0697 40 24.6667 39.403 24.6667 38.6667V5.81333C25.0767 5.5766 25.3305 5.14015 25.3333 4.66667V2C25.3333 1.26362 24.7364 0.666667 24 0.666667H21.1467C20.9099 0.256607 20.4735 0.00285795 20 0H18.6667C18.1932 0.00285795 17.7567 0.256607 17.52 0.666667H7.81334C7.5766 0.256607 7.14015 0.00285795 6.66667 0H5.33334C4.85985 0.00285795 4.42341 0.256607 4.18667 0.666667H1.33333C0.596954 0.666667 0 1.26362 0 2V4.66667C0.00285795 5.14015 0.256607 5.5766 0.666667 5.81333V38.6667C0.666667 39.403 1.26362 40 2 40H10C10.7364 40 11.3333 39.403 11.3333 38.6667V16.6667C11.3323 16.295 11.4864 15.9398 11.7585 15.6867C12.0306 15.4335 12.3961 15.3055 12.7667 15.3333C13.4891 15.4257 14.0231 16.052 14 16.78V38.6667ZM24 4.66667H21.3333V2H24V4.66667ZM8 2H10.12C10.0424 2.21378 10.0018 2.43924 10 2.66667C10 4.06667 9.96 4.21333 10.12 4.66667H8V2ZM15.2133 2H17.3333V4.66667H15.2133C15.291 4.45288 15.3315 4.22743 15.3333 4C15.3333 2.6 15.3733 2.44667 15.2133 2ZM13.3333 2C13.7015 2 14 2.29848 14 2.66667V4C14 4.36819 13.7015 4.66667 13.3333 4.66667H12C11.6318 4.66667 11.3333 4.36819 11.3333 4V2.66667C11.3333 2.29848 11.6318 2 12 2H13.3333ZM1.33333 2H4V4.66667H1.33333V2ZM2 38.6667V26H2.66667C3.03486 26 3.33334 25.7015 3.33334 25.3333C3.33334 24.9651 3.03486 24.6667 2.66667 24.6667H2V23.3333H3.33334C3.70152 23.3333 4 23.0349 4 22.6667C4 22.2985 3.70152 22 3.33334 22H2V13.2733C3.92307 12.9483 5.33136 11.2837 5.33334 9.33333V8.66667C5.33334 8.29848 5.03486 8 4.66667 8C4.29848 8 4 8.29848 4 8.66667V9.33333C3.99606 10.5461 3.17427 11.6035 2 11.9067V6H4C4 6.36819 4.29848 6.66667 4.66667 6.66667C5.03486 6.66667 5.33334 6.36819 5.33334 6V1.33333H6.66667V6C6.66667 6.36819 6.96515 6.66667 7.33334 6.66667C7.70153 6.66667 8 6.36819 8 6H12V10C12 11.1046 12.8954 12 14 12H14.6667C15.0349 12 15.3333 11.7015 15.3333 11.3333C15.3333 10.9651 15.0349 10.6667 14.6667 10.6667H14C13.6318 10.6667 13.3333 10.3682 13.3333 10V6H17.3333C17.3333 6.36819 17.6318 6.66667 18 6.66667C18.3682 6.66667 18.6667 6.36819 18.6667 6V1.33333H20V6C20 6.36819 20.2985 6.66667 20.6667 6.66667C21.0349 6.66667 21.3333 6.36819 21.3333 6H23.3333V11.9067C22.1591 11.6035 21.3373 10.5461 21.3333 9.33333V8.66667C21.3333 8.29848 21.0349 8 20.6667 8C20.2985 8 20 8.29848 20 8.66667V9.33333C20.002 11.2837 21.4103 12.9483 23.3333 13.2733V22H22C21.6318 22 21.3333 22.2985 21.3333 22.6667C21.3333 23.0349 21.6318 23.3333 22 23.3333H23.3333V24.6667H22.6667C22.2985 24.6667 22 24.9651 22 25.3333C22 25.7015 22.2985 26 22.6667 26H23.3333V38.6667H15.3333V24.6667H16C16.3682 24.6667 16.6667 24.3682 16.6667 24C16.6667 23.6318 16.3682 23.3333 16 23.3333H15.3333V16.78C15.3319 16.2716 15.1962 15.7725 14.94 15.3333H16C16.3682 15.3333 16.6667 15.0349 16.6667 14.6667C16.6667 14.2985 16.3682 14 16 14H9.33334C8.96515 14 8.66667 14.2985 8.66667 14.6667C8.66667 15.0349 8.96515 15.3333 9.33334 15.3333H10.3667C10.1293 15.7378 10.0029 16.1977 10 16.6667V23.3333H9.33334C8.96515 23.3333 8.66667 23.6318 8.66667 24C8.66667 24.3682 8.96515 24.6667 9.33334 24.6667H10V38.6667H2Z" fill="black"/>
</svg>
