<svg width="38" height="38" viewBox="0 0 38 38" fill="none" xmlns="http://www.w3.org/2000/svg">
<path d="M37.3667 0H0.633333C0.465363 0 0.304272 0.066726 0.185499 0.185499C0.066726 0.304272 0 0.465363 0 0.633333V37.3667C0 37.5346 0.066726 37.6957 0.185499 37.8145C0.304272 37.9333 0.465363 38 0.633333 38H37.3667C37.5346 38 37.6957 37.9333 37.8145 37.8145C37.9333 37.6957 38 37.5346 38 37.3667V0.633333C38 0.465363 37.9333 0.304272 37.8145 0.185499C37.6957 0.066726 37.5346 0 37.3667 0ZM36.7333 11.4H34.656C34.5166 11.1585 34.3014 10.9698 34.0438 10.8631C33.7862 10.7564 33.5005 10.7377 33.2312 10.8098C32.9619 10.882 32.7239 11.041 32.5541 11.2622C32.3844 11.4835 32.2924 11.7545 32.2924 12.0333C32.2924 12.3122 32.3844 12.5832 32.5541 12.8044C32.7239 13.0256 32.9619 13.1847 33.2312 13.2568C33.5005 13.329 33.7862 13.3103 34.0438 13.2036C34.3014 13.0969 34.5166 12.9081 34.656 12.6667H36.7333V36.7333H1.26667V1.26667H36.7333V11.4Z" fill="black"/>
</svg>
