<svg width="12" height="6" viewBox="0 0 12 6" fill="none" xmlns="http://www.w3.org/2000/svg">
<path d="M0.46312 5.6H11.5369C11.6596 5.59964 11.7772 5.55073 11.864 5.46396C11.9507 5.37719 11.9996 5.2596 12 5.13688V0.50488C11.9995 0.371065 11.9461 0.242879 11.8514 0.148293C11.7568 0.0537082 11.6285 0.000400387 11.4947 0H9.92C9.7927 0 9.67061 0.0505709 9.58059 0.140588C9.49057 0.230606 9.44 0.352696 9.44 0.48C9.44 0.607304 9.49057 0.729394 9.58059 0.819412C9.67061 0.909429 9.7927 0.96 9.92 0.96H11.04V4.64H0.96V0.96H6.72C6.8473 0.96 6.96939 0.909429 7.05941 0.819412C7.14943 0.729394 7.2 0.607304 7.2 0.48C7.2 0.352696 7.14943 0.230606 7.05941 0.140588C6.96939 0.0505709 6.8473 0 6.72 0H0.50528C0.371394 0.000400952 0.243108 0.0537635 0.148436 0.148435C0.0537647 0.243107 0.000400952 0.371396 0 0.505281V5.13728C0.000464213 5.25993 0.0494188 5.37741 0.136182 5.4641C0.222944 5.55079 0.340472 5.59964 0.46312 5.6Z" fill="black"/>
</svg>
