<svg width="8" height="14" viewBox="0 0 8 14" fill="none" xmlns="http://www.w3.org/2000/svg">
<path d="M7.40492 5.46899C7.49894 5.24029 7.44559 4.97736 7.26975 4.80339L2.59268 0.176342C2.35504 -0.0587806 1.97238 -0.0587806 1.73474 0.176342L0.181027 1.71346C-0.0584874 1.95045 -0.0606007 2.3366 0.176311 2.57604C0.413467 2.81571 0.799616 2.81758 1.03889 2.58075L2.16359 1.46793L5.35681 4.62707H4.77962C4.17453 4.62707 3.68216 5.11944 3.68216 5.72453V13.39C3.68216 13.727 3.95519 14 4.29213 14C4.62908 14 4.9021 13.727 4.9021 13.39V5.84709H6.84066C7.08815 5.84709 7.31091 5.69777 7.40492 5.46899Z" fill="black"/>
</svg>
