<svg width="40" height="31" viewBox="0 0 40 31" fill="none" xmlns="http://www.w3.org/2000/svg">
<path d="M38.4701 11.4957L37.5983 10.5726L34.5385 2.32479C34.0171 0.931624 32.6838 0.00854701 31.1966 0H9.34188C7.8547 0 6.52137 0.931624 6 2.32479L2.98291 10.4701L1.7265 11.6325C0.632479 12.5641 0 13.9316 0 15.3675V27.3846C0.00854701 29.3504 1.60684 30.9402 3.57265 30.9402H5.82906C7.79487 30.9402 9.39316 29.3504 9.40171 27.3846V25.641H30.5983V27.3846C30.6068 29.3504 32.2051 30.9402 34.1709 30.9402H36.4274C38.3932 30.9402 39.9915 29.3504 40 27.3846V15.0513C39.9915 13.7094 39.4444 12.4274 38.4701 11.4957ZM7.60684 2.90598C7.88034 2.17949 8.57265 1.7094 9.34188 1.7094H31.2051C31.9744 1.7094 32.6667 2.18803 32.9402 2.90598L35.6068 10.0855H33.6154C33.1453 6.88034 30.1624 4.66667 26.9573 5.1453C24.4017 5.52137 22.3932 7.52991 22.0171 10.0855H4.94017L7.60684 2.90598ZM31.8718 10.0855H23.7436C24.2137 7.83761 26.4188 6.40171 28.6667 6.87179C30.2735 7.21367 31.5299 8.47009 31.8718 10.0855ZM7.69231 27.3846C7.68376 28.4103 6.8547 29.2308 5.82906 29.2308H3.57265C2.54701 29.2308 1.71795 28.4103 1.7094 27.3846V25.1453C2.22222 25.4786 2.89744 25.641 3.57265 25.641H7.69231V27.3846ZM38.2906 27.3846C38.2821 28.4103 37.453 29.2308 36.4274 29.2308H34.1709C33.1453 29.2308 32.3162 28.4017 32.3077 27.3846V25.641H36.4274C37.1026 25.641 37.7778 25.4786 38.2906 25.1453V27.3846ZM36.4274 23.9316H3.57265C2.55556 23.9402 1.71795 23.1282 1.7094 22.1026V15.3675C1.7094 14.4274 2.12821 13.5299 2.84615 12.9231C2.8547 12.9145 2.87179 12.8974 2.88034 12.8889L4.04274 11.7949H36.4103L37.2308 12.6752C37.2393 12.6923 37.265 12.7009 37.2735 12.7179C37.9145 13.3248 38.2821 14.1709 38.2821 15.0513V22.1026H38.2906C38.2821 23.1197 37.4444 23.9402 36.4274 23.9316Z" fill="black"/>
</svg>
