<svg width="25" height="38" viewBox="0 0 25 38" fill="none" xmlns="http://www.w3.org/2000/svg">
<path d="M24.7792 6.8699C24.7792 4.20346 22.6099 2.03414 19.9435 2.03414H8.92705L9.78811 0.968314C9.99446 0.712895 9.95467 0.338646 9.69925 0.132218C9.44375 -0.0742102 9.0695 -0.0344943 8.86315 0.221083L7.7481 1.60131L6.93665 0.282996C6.76455 0.00339849 6.39823 -0.0838816 6.11871 0.0883794C5.83903 0.260482 5.75191 0.626725 5.92402 0.906322L6.61821 2.03414H5.8667C2.6318 2.03414 7.92298e-05 4.66586 7.92298e-05 7.90077V9.54847C7.92298e-05 9.8769 0.266279 10.143 0.594629 10.143C0.922979 10.143 1.18918 9.8769 1.18918 9.54847V7.90077C1.18918 5.32161 3.28754 3.22324 5.8667 3.22324H7.68016C7.68095 3.22324 7.68174 3.22332 7.68254 3.22332C7.68301 3.22332 7.68349 3.22324 7.68388 3.22324H19.9435C21.9543 3.22324 23.5901 4.85913 23.5901 6.8699C23.5901 7.9756 22.6905 8.8752 21.5847 8.8752H8.26567C7.48015 8.8752 6.84105 9.5143 6.84105 10.2999V19.5233C6.84105 20.0567 6.40695 20.4908 5.87344 20.4908C3.29048 20.4908 1.1891 18.3894 1.1891 15.8065V11.9257C1.1891 11.5973 0.9229 11.3312 0.59455 11.3312C0.2662 11.3312 0 11.5973 0 11.9257V15.8065C0 18.3586 1.63676 20.5347 3.91531 21.343V30.2077H3.54748C2.93977 30.2077 2.44534 30.7022 2.44534 31.3099V34.5981C2.44534 35.3244 2.91211 35.9553 3.60678 36.1678L9.36408 37.928C9.52112 37.976 9.6826 38.0001 9.84408 38C10.0056 38 10.167 37.976 10.3239 37.9281L12.9588 37.1224C13.2728 37.0264 13.4495 36.6941 13.3535 36.3801C13.2575 36.066 12.9251 35.8893 12.6111 35.9854L9.97623 36.791C9.88966 36.8175 9.79826 36.8172 9.71177 36.791L3.95463 35.0306C3.7631 34.972 3.63452 34.7981 3.63452 34.598V31.3968H16.0538V34.598C16.0538 34.7981 15.9251 34.972 15.734 35.0305L14.9016 35.2849C14.5876 35.3809 14.4109 35.7133 14.5069 36.0273C14.6028 36.3413 14.935 36.5176 15.2493 36.4221L16.0816 36.1676C16.7763 35.9551 17.243 35.3243 17.243 34.5979V31.3098C17.243 30.7021 16.7485 30.2077 16.1409 30.2077H14.5271V25.2053H15.4246C18.8751 25.2053 21.6595 22.3934 21.6595 18.9703C21.6595 18.569 21.8821 18.2075 22.2404 18.0268L23.2448 17.5204C23.583 17.3498 23.8272 17.0407 23.9147 16.6721C24.0022 16.3037 23.9232 15.9176 23.6979 15.6132L21.9441 13.2443C21.7606 12.9965 21.6595 12.6902 21.6595 12.3818V10.0624C23.3864 10.0224 24.7792 8.60614 24.7792 6.8699ZM22.742 16.3206C22.7763 16.3669 22.7609 16.4326 22.7093 16.4586L21.705 16.965C20.9435 17.3491 20.4704 18.1174 20.4704 18.9703C20.4704 19.7325 20.2995 20.4551 19.9957 21.1037C18.1891 21.3664 16.6181 20.701 15.5985 20.0768C15.3185 19.9055 14.9525 19.9934 14.7811 20.2734C14.6096 20.5534 14.6977 20.9194 14.9777 21.0908C15.9792 21.704 17.4431 22.3499 19.1654 22.3526C18.2414 23.3736 16.9067 24.0162 15.4245 24.0162H10.0107C9.68236 24.0162 9.41616 24.2823 9.41616 24.6107C9.41616 24.9392 9.68236 25.2053 10.0107 25.2053H13.3379V30.2077H5.10441V21.6278C5.35634 21.661 5.61263 21.6798 5.87344 21.6798C7.06262 21.6798 8.03015 20.7124 8.03015 19.5232V10.2998C8.03015 10.1699 8.13582 10.0642 8.26567 10.0642H20.4704V12.3817C20.4704 12.943 20.6543 13.5005 20.9883 13.9518L22.742 16.3206Z" fill="black"/>
</svg>
