<svg width="40" height="33" viewBox="0 0 40 33" fill="none" xmlns="http://www.w3.org/2000/svg">
<path d="M39.4141 15.7611C39.7377 15.7611 40 15.4987 40 15.1752V4.46039C40 3.64312 39.3351 2.9782 38.5178 2.9782H36.7609V1.11859C36.7609 0.501796 36.2591 0 35.6423 0H24.2466C22.4159 0 20.8198 1.0232 20 2.52773C19.1802 1.0232 17.5841 0 15.7534 0H8.57555C8.25195 0 7.98961 0.262344 7.98961 0.585937C7.98961 0.909531 8.25195 1.17187 8.57555 1.17187H15.7534C17.7719 1.17187 19.414 2.81406 19.414 4.8325V13.5293L14.0009 16.508H7.40414C7.08055 16.508 6.8182 16.7702 6.8182 17.0939C6.8182 17.4176 7.08055 17.6798 7.40414 17.6798H11.8714L9.13094 19.1879C8.86758 19.3327 8.70398 19.6094 8.70391 19.9099C8.70383 20.2105 8.86742 20.4873 9.13078 20.6322L9.80461 21.003H4.41094V1.17187H6.23281C6.55641 1.17187 6.81875 0.909531 6.81875 0.585937C6.81875 0.262344 6.55641 0 6.23281 0H4.35766C3.74086 0 3.23906 0.501796 3.23906 1.11859V2.9782H1.48219C0.664922 2.9782 0 3.64312 0 4.46039V21.8927C0 23.9183 1.64789 25.5662 3.67336 25.5662H12.5809V29.6135C12.5809 30.2814 12.9799 30.8799 13.5976 31.1385C15.376 31.8827 17.1842 32.3209 18.972 32.4406C18.9852 32.4416 18.9985 32.4419 19.0116 32.4419C19.3174 32.4419 19.5749 32.2047 19.5957 31.8951C19.6173 31.5723 19.3731 31.293 19.0502 31.2714C17.3915 31.1603 15.7091 30.7519 14.0499 30.0575C13.8693 29.9819 13.7527 29.8077 13.7527 29.6136V23.1756L19.6025 26.3947C19.727 26.4632 19.8634 26.4974 19.9999 26.4974C20.1364 26.4974 20.2729 26.4632 20.3973 26.3948L23.451 24.7144V28.8337C23.451 29.1573 23.7133 29.4196 24.037 29.4196C24.3606 29.4196 24.6229 29.1573 24.6229 28.8337V24.0695L26.2471 23.1758V29.6135C26.2471 29.8076 26.1305 29.9819 25.9498 30.0574C24.4077 30.7029 22.8434 31.1019 21.3002 31.2435C20.978 31.2731 20.7407 31.5583 20.7702 31.8805C20.7981 32.1846 21.0536 32.4129 21.353 32.4129C21.3709 32.4129 21.3891 32.4121 21.4073 32.4105C23.0693 32.258 24.7499 31.83 26.4023 31.1384C27.0198 30.8799 27.419 30.2814 27.419 29.6135V25.5662H36.3266C38.352 25.5662 39.9999 23.9183 39.9999 21.8927V17.5179C39.9999 17.1942 39.7377 16.9319 39.414 16.9319C39.0903 16.9319 38.828 17.1942 38.828 17.5179V21.8927C38.828 23.272 37.7059 24.3943 36.3266 24.3943H27.4191V22.5309L28.0659 22.175H35.6423C36.2591 22.175 36.7609 21.6732 36.7609 21.0564V4.15016H38.5177C38.6888 4.15016 38.828 4.28937 38.828 4.46047V15.1752C38.8281 15.4987 39.0904 15.7611 39.4141 15.7611ZM12.5809 24.3943H3.67336C2.29406 24.3943 1.17188 23.2721 1.17188 21.8927V4.46039C1.17188 4.2893 1.31109 4.15008 1.48219 4.15008H3.23906V21.0563C3.23906 21.6732 3.74086 22.1749 4.35766 22.1749H11.9342L12.5809 22.5308V24.3943ZM20 25.2759L10.2493 19.9101C11.6942 19.115 18.5496 15.3427 20 14.5445C21.448 15.3414 28.3032 19.1136 29.7507 19.9101L24.1288 23.0038L20.4023 19.4842C20.167 19.2619 19.7961 19.2725 19.574 19.5079C19.3518 19.7431 19.3624 20.114 19.5977 20.3362L23.0505 23.5973L20 25.2759ZM35.5891 21.003H30.1955L30.8693 20.6323C30.8693 20.6322 30.8694 20.6322 30.8694 20.6322C31.1327 20.4873 31.2962 20.2105 31.2961 19.91C31.296 19.6094 31.1324 19.3328 30.8693 19.188L28.1287 17.6799H32.5959C32.9195 17.6799 33.1818 17.4177 33.1818 17.094C33.1818 16.7703 32.9195 16.508 32.5959 16.508H25.9991L20.5859 13.5294V4.83258C20.5859 2.81406 22.228 1.17195 24.2465 1.17195H35.5891V21.003Z" fill="black"/>
</svg>
