<svg width="41" height="40" viewBox="0 0 41 40" fill="none" xmlns="http://www.w3.org/2000/svg">
<path d="M0.267947 35.8667C0.494613 36.0333 5.94128 40 20.0013 40C34.0613 40 39.508 36 39.7346 35.8667C39.9869 35.6784 40.0731 35.3392 39.9413 35.0533C36.1413 26.9067 34.668 10.5267 34.668 1.33333C34.668 0.596954 34.071 0 33.3346 0H6.66795C5.93157 0 5.33462 0.596954 5.33462 1.33333C5.38783 3.9873 5.29881 6.64222 5.06795 9.28667C4.52128 16.6667 3.20128 28.3267 0.06128 35.0533C-0.0705083 35.3392 0.0156625 35.6784 0.267947 35.8667ZM33.7546 11.3333H28.668V10H33.648C33.6546 10.0667 33.748 11.2533 33.7546 11.3333ZM23.3346 9.18L26.4413 8.04667C26.6617 7.95131 26.9164 7.98187 27.108 8.12667C27.4346 8.35333 27.3813 8.59333 27.3813 9.33333V12.6667C27.3742 12.8825 27.263 13.0816 27.0829 13.2008C26.9028 13.32 26.6761 13.3445 26.4746 13.2667L23.3346 12.1533C23.3346 11.84 23.3346 9.49333 23.3346 9.18ZM28.668 8.66667C28.664 8.01957 28.3472 7.41438 27.8177 7.0424C27.2882 6.67042 26.6114 6.57762 26.0013 6.79333L22.8146 7.96C22.4306 7.55336 21.8939 7.32609 21.3346 7.33333H18.668C18.1203 7.33533 17.5974 7.56184 17.2213 7.96L14.0346 6.79333C13.4206 6.56391 12.7331 6.64994 12.1945 7.02362C11.6559 7.39729 11.3347 8.01116 11.3346 8.66667C11.3346 8.73333 11.7013 8.66667 6.44795 8.66667C6.55462 7.16667 6.61462 6 6.64128 5.33333H33.3346C33.3346 6 33.4213 7.16667 33.528 8.66667H28.668ZM22.0013 9.33333V12C22.0013 12.3682 21.7028 12.6667 21.3346 12.6667H18.668C18.2998 12.6667 18.0013 12.3682 18.0013 12V9.33333C18.0013 8.96514 18.2998 8.66667 18.668 8.66667H21.3346C21.7028 8.66667 22.0013 8.96514 22.0013 9.33333ZM6.35462 10H11.3346V11.3333H6.24128C6.28128 10.8733 6.32128 10.4267 6.35462 10ZM12.668 12V8.66667C12.675 8.4508 12.7862 8.25174 12.9664 8.13254C13.1465 8.01335 13.3732 7.9888 13.5746 8.06667L16.668 9.18V12.1533L13.5613 13.2867C13.3503 13.3694 13.1117 13.3392 12.928 13.2067C12.6146 12.98 12.668 12.74 12.668 12ZM6.66795 1.33333H33.3346V4H6.66795V1.33333ZM6.12128 12.6667C11.668 12.6667 11.3346 12.6267 11.3346 12.6667C11.3346 13.7712 12.23 14.6667 13.3346 14.6667C13.8146 14.6667 13.7613 14.6667 17.2213 13.3733C17.5974 13.7715 18.1203 13.998 18.668 14H21.3346C21.8823 13.998 22.4052 13.7715 22.7813 13.3733L26.0013 14.54C26.6114 14.7557 27.2882 14.6629 27.8177 14.2909C28.3472 13.919 28.664 13.3138 28.668 12.6667H33.8813C34.548 19.7333 35.8813 29.0533 38.488 35.08C37.4685 35.6468 36.3996 36.1198 35.2946 36.4933C32.608 31.6333 32.0013 23.3733 32.0013 23.2867C31.9893 23.1097 31.9074 22.9448 31.7735 22.8284C31.6396 22.7121 31.4649 22.6538 31.288 22.6667C31.111 22.6786 30.9461 22.7606 30.8297 22.8945C30.7133 23.0284 30.6551 23.2031 30.668 23.38C30.668 23.7333 31.2813 31.78 34.0013 36.9067C31.6756 37.5772 29.2952 38.0412 26.888 38.2933C26.097 35.1345 25.5773 31.9139 25.3346 28.6667C25.3052 28.2985 24.9828 28.0239 24.6146 28.0533C24.2464 28.0828 23.9718 28.4051 24.0013 28.7733C24.2476 32.0351 24.7649 35.2707 25.548 38.4467C21.8568 38.76 18.1458 38.76 14.4546 38.4467C15.2384 35.2664 15.7558 32.0262 16.0013 28.76C16.0271 28.3918 15.7495 28.0724 15.3813 28.0467C15.0131 28.0209 14.6937 28.2985 14.668 28.6667C14.426 31.9184 13.9063 35.1435 13.1146 38.3067C10.7069 38.0502 8.32659 37.5817 6.00128 36.9067C8.72128 31.78 9.33462 23.7333 9.33462 23.38C9.36039 23.0118 9.08281 22.6924 8.71462 22.6667C8.34643 22.6409 8.02706 22.9185 8.00128 23.2867C8.00128 23.3733 7.40128 31.6267 4.70795 36.4933C3.60239 36.1212 2.53343 35.6481 1.51461 35.08C4.15462 29.0467 5.46795 19.7333 6.12128 12.6667Z" fill="black"/>
</svg>
