<svg width="9" height="9" viewBox="0 0 9 9" fill="none" xmlns="http://www.w3.org/2000/svg">
<path d="M8.18866 5.07598C7.74064 5.07598 7.37733 5.43922 7.37733 5.88732C7.37733 6.45712 6.91389 6.92072 6.34433 6.92072C5.77477 6.92072 5.31134 6.45712 5.31134 5.88732V4.87087C6.54173 4.5177 7.44458 3.38231 7.44458 2.04003V0.811339C7.44458 0.363236 7.08127 0 6.63325 0H2.36675C1.91873 0 1.55541 0.363236 1.55541 0.811339V2.04003C1.55541 3.38239 2.45835 4.51778 3.68866 4.87087V5.88732C3.68866 6.45712 3.22523 6.92072 2.65567 6.92072C2.08603 6.92072 1.62267 6.45712 1.62267 5.88732C1.62267 5.43922 1.25936 5.07598 0.811337 5.07598C0.363317 5.07598 0 5.43922 0 5.88732C0 7.35186 1.19137 8.5434 2.65567 8.5434C3.37143 8.5434 4.02196 8.2587 4.5 7.79656C4.97804 8.2587 5.62857 8.5434 6.34433 8.5434C7.80871 8.5434 9 7.35186 9 5.88732C9 5.43922 8.63677 5.07598 8.18866 5.07598ZM3.17801 2.04003V1.62268H5.82183V2.04003C5.82183 2.76894 5.22882 3.36194 4.49992 3.36194C3.77101 3.36186 3.17801 2.76894 3.17801 2.04003Z" fill="black"/>
</svg>
