<svg width="40" height="40" viewBox="0 0 40 40" fill="none" xmlns="http://www.w3.org/2000/svg">
<path d="M38.6665 11.4883H28.5103V1.33348C28.5103 0.597256 27.914 0 27.1768 0H12.8189C12.0822 0 11.4854 0.597256 11.4854 1.33348V11.4883H1.33348C0.597732 11.4883 0 12.086 0 12.8213V27.1821C0 27.9159 0.597732 28.5155 1.33348 28.5155H11.4883V38.666C11.4883 39.3999 12.086 39.9995 12.8217 39.9995H27.1821C27.9169 39.9995 28.5155 39.3999 28.5155 38.666V28.5094H38.6665C39.4008 28.5094 40 27.9135 40 27.1764V12.8184C39.9995 12.0831 39.4008 11.4883 38.6665 11.4883ZM37.333 25.8434H27.1768C26.4435 25.8434 25.8434 26.4425 25.8434 27.1768V37.333H14.1524V27.1764C14.1524 26.442 13.5546 25.8429 12.8189 25.8429H2.66695V14.149H12.8217C13.558 14.149 14.1552 13.5513 14.1552 12.816V2.66648H25.8491V12.8213C25.8491 13.5565 26.4482 14.1543 27.1825 14.1543H37.3335V25.8434H37.333Z" fill="black"/>
</svg>
