<svg width="41" height="40" viewBox="0 0 41 40" fill="none" xmlns="http://www.w3.org/2000/svg">
<path d="M8.66798 10.2933C6.75337 10.4597 5.13653 11.7828 4.59465 13.6267L0.134646 29.0467C-0.120699 29.9102 -0.00980958 30.8407 0.441312 31.62C0.509707 31.7411 0.590112 31.855 0.681312 31.96L0.161312 34C-0.00733429 34.7057 0.419273 35.4167 1.12131 35.6L4.99465 36.5933C5.33769 36.6824 5.70206 36.6312 6.00728 36.451C6.3125 36.2709 6.53345 35.9767 6.62132 35.6333L7.13465 33.6333C7.37817 33.5275 7.60323 33.3835 7.80132 33.2067L7.84132 34.7267C7.86681 35.7199 8.44232 36.6165 9.33465 37.0533V38.6667C9.33465 39.403 9.9316 40 10.668 40H29.3347C30.071 40 30.668 39.403 30.668 38.6667V37.0533C31.5577 36.6147 32.1304 35.7184 32.1547 34.7267L32.1947 33.2067C32.3906 33.3863 32.6161 33.5307 32.8613 33.6333L33.3747 35.6333C33.5138 36.2361 34.0494 36.664 34.668 36.6667C34.9213 36.6667 34.7347 36.6667 38.8747 35.6333C39.2207 35.547 39.5178 35.3257 39.6994 35.0187C39.8811 34.7118 39.9322 34.3449 39.8413 34L39.3213 32C39.4125 31.895 39.4929 31.7811 39.5613 31.66C40.0125 30.8807 40.1233 29.9502 39.868 29.0867L35.428 13.6267C34.8861 11.7828 33.2693 10.4597 31.3547 10.2933C30.1813 9.02667 29.0547 8.84667 27.3547 8.36C27.8213 7.83133 28.0545 7.1365 28.0013 6.43333C27.888 5.24667 27.048 0 20.0013 0C12.9547 0 12.1147 5.24667 12.0013 6.43333C11.9412 7.12936 12.1567 7.82117 12.6013 8.36C10.9347 8.85333 9.81465 9.03333 8.66798 10.2933ZM1.47465 34.2933L1.82798 32.9133C2.04037 33.0268 2.26374 33.1184 2.49465 33.1867C5.06131 33.8533 5.16132 33.9 5.66798 33.9133L5.33465 35.3333L1.47465 34.2933ZM7.73465 31.02C7.61979 31.5545 7.29115 32.0187 6.82517 32.3045C6.35919 32.5904 5.7965 32.6731 5.26798 32.5333L2.84131 31.9067C2.31829 31.7726 1.87167 31.4329 1.60298 30.9645C1.33429 30.4962 1.26637 29.9392 1.41465 29.42L5.85465 14C6.12275 13.0838 6.77084 12.3264 7.63465 11.92C7.42231 12.4819 7.32045 13.0795 7.33465 13.68C7.80798 32.2933 7.77465 30.7867 7.71465 31.0333L7.73465 31.02ZM10.668 38.6667V37.3333H29.3347V38.6667H10.668ZM34.668 35.3333L34.3147 33.96C34.5664 33.953 34.8166 33.9195 35.0613 33.86C37.5013 33.2333 37.688 33.1933 38.188 32.96L38.5413 34.34L34.668 35.3333ZM34.148 14L38.588 29.42C38.7363 29.9392 38.6684 30.4962 38.3997 30.9645C38.131 31.4329 37.6844 31.7726 37.1613 31.9067L34.7347 32.5333C34.2108 32.6672 33.6551 32.5833 33.1942 32.3007C32.7332 32.0181 32.4063 31.5609 32.288 31.0333C32.228 30.7867 32.2013 32.1933 32.668 13.7C32.6831 13.0973 32.5812 12.4973 32.368 11.9333C33.2289 12.3368 33.8766 13.0888 34.148 14ZM23.928 2.21333C24.3547 2.58 24.8147 3.04667 24.5947 3.58C24.3147 4.44 22.508 5.33333 20.0013 5.33333C17.4947 5.33333 15.688 4.44 15.3813 3.58C15.2347 3.16667 15.4613 2.71333 16.048 2.24667C18.5365 1.05333 21.4295 1.04109 23.928 2.21333ZM14.0347 9.33333H15.3347C15.7028 9.33333 16.0013 9.03486 16.0013 8.66667C16.0013 8.29848 15.7028 8 15.3347 8C14.4813 8 14.4147 8.05333 14.0013 7.82C13.5187 7.529 13.2564 6.97808 13.3347 6.42C13.4082 5.57724 13.6751 4.76279 14.1147 4.04C15.3747 7.52667 24.5613 7.54 25.8547 4.04C26.3147 4.8 26.8747 6.38667 26.5613 7.14667C26.3652 7.65504 25.8795 7.99292 25.3347 8H24.668C24.2998 8 24.0013 8.29848 24.0013 8.66667C24.0013 9.03486 24.2998 9.33333 24.668 9.33333H26.0013L28.668 10.1267C30.2494 10.5679 31.341 12.0115 31.3347 13.6533L30.8213 34.7C30.8213 35.4364 30.2244 36.0333 29.488 36.0333H10.5147C9.77827 36.0333 9.18132 35.4364 9.18132 34.7L8.66798 13.6467C8.66462 12.0073 9.7556 10.5672 11.3347 10.1267L14.0347 9.33333Z" fill="black"/>
</svg>
