<svg width="7" height="5" viewBox="0 0 7 5" fill="none" xmlns="http://www.w3.org/2000/svg">
<path d="M6.49585 4.34818C6.59811 4.34827 6.69798 4.31724 6.78218 4.25919C6.86638 4.20115 6.93091 4.11886 6.96721 4.02325C7.0035 3.92764 7.00984 3.82325 6.98537 3.72396C6.9609 3.62466 6.90679 3.53517 6.83023 3.46737C5.04359 1.88715 2.93633 0.71204 0.652946 0.0226165C0.589384 0.00289849 0.522542 -0.00402808 0.456286 0.00223696C0.390031 0.008502 0.325673 0.0278345 0.266933 0.0591173C0.208193 0.0904002 0.156235 0.133013 0.11406 0.184494C0.0718845 0.235975 0.0403307 0.295304 0.0212186 0.359051C0.00210651 0.422799 -0.00418457 0.489702 0.00271087 0.555895C0.00960632 0.622088 0.0295498 0.686258 0.0613905 0.744698C0.0932311 0.803138 0.136338 0.854688 0.188219 0.896371C0.240099 0.938054 0.299723 0.969043 0.36365 0.987548C2.50697 1.63478 4.48496 2.73789 6.16197 4.22125C6.25391 4.30312 6.37275 4.3483 6.49585 4.34818Z" fill="black"/>
</svg>
