<svg width="8" height="8" viewBox="0 0 8 8" fill="none" xmlns="http://www.w3.org/2000/svg">
<path d="M4 0C2.9358 0 2.06998 0.865823 2.06998 1.93002V2.06998H1.93002C0.865822 2.06998 0 2.9358 0 4C0 5.0642 0.86574 5.93002 1.93002 5.93002H2.06998V6.06998C2.06998 7.13418 2.9358 8 4 8C5.06419 8 5.93002 7.13418 5.93002 6.06998V5.93002H6.06997C7.13417 5.93002 7.99999 5.0642 7.99999 4C7.99999 2.9358 7.13425 2.06998 6.06997 2.06998H5.93002V1.93002C5.92993 0.865823 5.06419 0 4 0ZM6.06997 3.30655C6.45232 3.30655 6.76342 3.61765 6.76342 4C6.76342 4.38235 6.45232 4.69345 6.06997 4.69345H5.31169C4.97023 4.69345 4.69344 4.97023 4.69344 5.31169V6.06998C4.69344 6.45241 4.38235 6.76343 4 6.76343C3.61765 6.76343 3.30647 6.45233 3.30647 6.06998V5.31169C3.30647 4.97023 3.02968 4.69345 2.68822 4.69345H1.93002C1.54767 4.69345 1.23657 4.38235 1.23657 4C1.23657 3.61757 1.54767 3.30655 1.93002 3.30655H2.68822C3.02968 3.30655 3.30647 3.02976 3.30647 2.68831V1.93002C3.30647 1.54759 3.61756 1.23657 4 1.23657C4.38235 1.23657 4.69344 1.54767 4.69344 1.93002V2.68831C4.69344 3.02976 4.97023 3.30655 5.31169 3.30655H6.06997Z" fill="black"/>
</svg>
