<svg width="31" height="15" viewBox="0 0 31 15" fill="none" xmlns="http://www.w3.org/2000/svg">
<path d="M30.9689 7.0309L29.9123 3.88478C29.852 3.70518 29.7097 3.56507 29.5292 3.50755C29.3489 3.45011 29.1517 3.482 28.9985 3.59363C28.353 4.06413 27.5891 4.31279 26.7893 4.31279C25.7594 4.31279 24.7982 3.90321 24.0827 3.15952C23.9706 3.04299 23.816 2.97716 23.6543 2.97716H16.8528C16.6912 2.97716 16.5364 3.04306 16.4244 3.15952C15.709 3.90329 14.7477 4.31279 13.7178 4.31279C12.918 4.31279 12.154 4.06405 11.5086 3.59363C11.3555 3.48208 11.1585 3.45011 10.9779 3.50755C10.7974 3.56507 10.6551 3.70518 10.5948 3.88478L8.23339 10.916C7.91076 11.8768 7.22498 12.6369 6.30233 13.0564C5.37961 13.4758 4.35601 13.4928 3.41991 13.1044C1.85618 12.4553 0.959958 10.8359 1.24034 9.16624L2.66324 0.692928C2.7176 0.369107 2.49924 0.062533 2.17541 0.00818046C1.8512 -0.0456974 1.54502 0.172186 1.49067 0.496008L0.0677685 8.96932C-0.304788 11.188 0.886222 13.3401 2.9642 14.2025C3.55203 14.4465 4.17879 14.5682 4.80538 14.5681C5.48554 14.5681 6.16554 14.4247 6.79451 14.1388C8.00277 13.5895 8.93808 12.5528 9.36064 11.2946L11.4848 4.96977C12.1729 5.31954 12.9323 5.50191 13.7179 5.50191C14.9874 5.50191 16.1775 5.0295 17.0969 4.16619H23.4106C24.3299 5.02943 25.52 5.50191 26.7895 5.50191C27.5751 5.50191 28.3345 5.31962 29.0226 4.96977L29.8419 7.40947C29.9464 7.72071 30.2834 7.88859 30.5948 7.78377C30.9059 7.67917 31.0734 7.34214 30.9689 7.0309Z" fill="black"/>
</svg>
