<svg width="119" height="117" viewBox="0 0 119 117" fill="none" xmlns="http://www.w3.org/2000/svg">
<path d="M45.2065 23.6143V38.916H29.9057C28.3593 38.916 27.1029 40.1724 27.1029 41.7188V64.3598C27.1029 65.9143 28.3593 67.1627 29.9057 67.1627H45.2065V82.4614C45.2065 83.9988 46.4628 85.2642 48.0093 85.2642H70.6543C72.1918 85.2642 73.4571 83.9988 73.4571 82.4614V67.1627H88.7498C90.2993 67.1627 91.5527 65.9143 91.5527 64.3598V41.7178C91.5527 40.1714 90.2993 38.915 88.7498 38.915H73.4571V23.6143C73.4571 22.0688 72.1918 20.8124 70.6543 20.8124H48.0093C46.4628 20.8124 45.2065 22.0678 45.2065 23.6143ZM50.8122 41.7238V26.4221H67.8514V41.7238C67.8514 43.2733 69.1048 44.5257 70.6543 44.5257H85.947V61.5689H70.6543C69.1048 61.5689 67.8514 62.8223 67.8514 64.3718V79.6645H50.8122V64.3718C50.8122 62.8223 49.5558 61.5689 48.0093 61.5689H32.7086V44.5257H48.0093C49.5618 44.5257 50.8122 43.2783 50.8122 41.7238ZM117.216 14.4625C100.052 5.00054 80.0422 0 59.3308 0C38.6164 0 18.5983 5.00654 1.44798 14.4625C0.489688 14.9936 -0.0724851 16.0299 0.00753955 17.1303C3.19052 60.0195 24.8402 97.2129 57.9144 116.623C58.3535 116.885 58.8446 117 59.3308 117C59.8199 117 60.3111 116.885 60.7492 116.623C93.8234 97.2129 115.483 60.0085 118.653 17.1253C118.734 16.0199 118.173 14.9816 117.216 14.4625ZM59.3308 110.93C29.1035 92.5075 9.20237 58.1799 5.7423 18.5047C21.7122 10.0491 40.1909 5.59372 59.3308 5.59372C78.4587 5.59372 96.9444 10.0491 112.921 18.5037C109.468 58.1799 89.5711 92.4995 59.3308 110.93Z" fill="black"/>
</svg>
