<svg width="10" height="3" viewBox="0 0 10 3" fill="none" xmlns="http://www.w3.org/2000/svg">
<path d="M1.33823 2.6631C1.57093 2.6624 1.79935 2.60052 2.00057 2.48366C2.2018 2.36681 2.36876 2.19909 2.4847 1.99733H7.51529C7.66185 2.25118 7.88808 2.44957 8.15889 2.56175C8.42969 2.67392 8.72995 2.6936 9.01308 2.61773C9.29621 2.54187 9.5464 2.3747 9.72484 2.14215C9.90328 1.9096 10 1.62467 10 1.33155C10 1.03843 9.90328 0.753503 9.72484 0.520955C9.5464 0.288407 9.29621 0.121237 9.01308 0.045372C8.72995 -0.0304931 8.42969 -0.0108134 8.15889 0.101359C7.88808 0.213531 7.66185 0.411927 7.51529 0.665777H2.4847C2.36768 0.463112 2.19933 0.294865 1.99659 0.177986C1.79385 0.0611062 1.56388 -0.000277752 1.32987 1.83852e-05C1.09585 0.000314522 0.86604 0.0622802 0.663596 0.179672C0.461152 0.297065 0.293221 0.465737 0.176722 0.668697C0.0602235 0.871657 -0.000728664 1.10174 6.57364e-06 1.33575C0.000741811 1.56977 0.0631385 1.79946 0.18091 2.00168C0.298682 2.20391 0.467669 2.37152 0.670847 2.48764C0.874025 2.60376 1.10422 2.66428 1.33823 2.6631Z" fill="black"/>
</svg>
