<svg width="3" height="7" viewBox="0 0 3 7" fill="none" xmlns="http://www.w3.org/2000/svg">
<path d="M1.65455 2.1C2.18201 1.79629 2.51793 1.24441 2.54545 0.636364C2.54545 0.284932 2.26052 0 1.90909 0C1.55766 0 1.27273 0.284932 1.27273 0.636364C1.27273 0.769364 1.20909 0.84 0.890909 1.08182C0.363443 1.38552 0.0275227 1.93741 0 2.54545C0.0275227 3.1535 0.363443 3.70539 0.890909 4.00909C1.20909 4.25027 1.27273 4.32091 1.27273 4.45455C1.27273 4.58818 1.20909 4.65946 0.890909 4.9C0.363443 5.2037 0.0275227 5.75559 0 6.36364C0 6.71507 0.284932 7 0.636364 7C0.987795 7 1.27273 6.71507 1.27273 6.36364C1.27273 6.22936 1.33636 6.15873 1.65455 5.91818C2.18201 5.61448 2.51793 5.06259 2.54545 4.45455C2.51793 3.8465 2.18201 3.29461 1.65455 2.99091C1.33636 2.74973 1.27273 2.67909 1.27273 2.54545C1.27273 2.41182 1.33636 2.33991 1.65455 2.1Z" fill="#1071FF"/>
</svg>
