<svg width="33" height="38" viewBox="0 0 33 38" fill="none" xmlns="http://www.w3.org/2000/svg">
<path d="M32.4541 9.05864C32.1045 8.69086 31.6249 8.47459 31.1178 8.45617C30.6107 8.43775 30.1166 8.61864 29.7413 8.96009L28.5027 10.0769C25.7315 7.11052 21.9589 5.27699 17.9142 4.93087V3.30335H19.3112C19.4373 3.30614 19.5595 3.25919 19.6513 3.17264C19.7431 3.08609 19.7972 2.96689 19.8019 2.8408V2.39815C19.7971 1.76108 19.5409 1.15168 19.089 0.702556C18.6371 0.253435 18.0262 0.000935728 17.3891 0H15.6342C15.3215 0.001474 15.0121 0.0647866 14.724 0.186293C14.4358 0.3078 14.1745 0.485102 13.9551 0.707993C13.7357 0.930884 13.5626 1.19496 13.4457 1.48503C13.3287 1.7751 13.2703 2.08543 13.2738 2.39815V2.8408C13.2702 2.90043 13.2789 2.96016 13.2994 3.01629C13.3198 3.07242 13.3516 3.12375 13.3926 3.16712C13.4337 3.21048 13.4833 3.24494 13.5382 3.26838C13.5932 3.29181 13.6523 3.30371 13.7121 3.30335H15.1615V4.92615C11.0912 5.26139 7.29235 7.10289 4.50785 10.0905L3.20924 8.95262C2.83304 8.62269 2.34361 8.45141 1.84378 8.47476C1.34394 8.49811 0.872609 8.71428 0.528806 9.07785C0.185003 9.44141 -0.00451067 9.92408 8.15491e-05 10.4244C0.00467376 10.9248 0.203014 11.4039 0.553432 11.7611L2.12465 13.3639C0.775764 15.7947 0.0694798 18.5295 0.0726378 21.3094C0.0726378 30.3739 7.44712 37.7484 16.5117 37.7484C25.5762 37.7484 32.9507 30.3739 32.9507 21.3094C32.9539 18.5246 32.2451 15.7852 30.8917 13.3513L32.4392 11.7727C32.7959 11.412 32.9972 10.9259 33 10.4187C33.0027 9.91141 32.8068 9.42322 32.4541 9.05864ZM14.1843 2.35953C14.1925 1.98072 14.349 1.62024 14.6201 1.35554C14.8912 1.09083 15.2553 0.943003 15.6342 0.943813H17.3891C17.768 0.943003 18.1321 1.09083 18.4032 1.35554C18.6743 1.62024 18.8308 1.98072 18.839 2.35953H14.1843ZM16.9704 3.30335V4.87708C16.818 4.87291 16.6651 4.87039 16.5117 4.87039C16.3758 4.87039 16.2403 4.87212 16.1053 4.87558V3.30335H16.9704ZM1.22747 11.1004C1.04828 10.9175 0.946908 10.6723 0.944648 10.4162C0.942388 10.1602 1.03941 9.91317 1.21535 9.72712C1.39129 9.54106 1.63247 9.4304 1.88825 9.41835C2.14404 9.40631 2.39455 9.49382 2.58719 9.66252L3.88289 10.7977C3.4262 11.3454 3.00543 11.9221 2.62321 12.5242L1.22747 11.1004ZM32.0069 21.3093C32.0069 29.8534 25.0558 36.8045 16.5117 36.8045C7.96756 36.8045 1.01645 29.8534 1.01645 21.3094C1.01645 12.7654 7.96756 5.8142 16.5117 5.8142C25.0558 5.8142 32.0069 12.7651 32.0069 21.3094V21.3093ZM31.7652 11.1118L30.3926 12.5118C30.0091 11.9088 29.5868 11.3314 29.1285 10.7831L30.3733 9.66064C30.5673 9.485 30.8221 9.3919 31.0837 9.4011C31.3452 9.4103 31.5929 9.52108 31.7741 9.70991C31.9552 9.89875 32.0557 10.1508 32.0541 10.4125C32.0525 10.6742 31.9489 10.9249 31.7654 11.1115L31.7652 11.1118Z" fill="black"/>
</svg>
