<svg width="3" height="2" viewBox="0 0 3 2" fill="none" xmlns="http://www.w3.org/2000/svg">
<path d="M2.42552 0.238712C1.87318 0.139316 1.31009 0.0598002 0.751973 0.00247453C0.570792 -0.0128673 0.390834 0.0435655 0.250858 0.159619C0.110881 0.275672 0.0220851 0.442059 0.00359635 0.622945C-0.0148924 0.803831 0.0384036 0.984742 0.152007 1.12671C0.26561 1.26869 0.430431 1.36036 0.610969 1.38199C1.13442 1.43596 1.66272 1.51051 2.18085 1.60378C2.22165 1.61126 2.26303 1.61513 2.30451 1.61534C2.47827 1.61584 2.64588 1.55111 2.77418 1.43393C2.90248 1.31676 2.98212 1.15569 2.99733 0.982605C3.01255 0.809519 2.96223 0.637028 2.85634 0.499269C2.75045 0.36151 2.5967 0.268523 2.42552 0.238712Z" fill="black"/>
</svg>
