<svg width="22" height="40" viewBox="0 0 22 40" fill="none" xmlns="http://www.w3.org/2000/svg">
<path d="M20.9069 18.6315C20.9069 18.0858 20.7364 17.5572 20.4294 17.1053C21.2224 16.5937 21.6828 15.741 21.6999 14.8202C21.6999 13.3451 20.455 12.0746 18.9714 12.0746H15.774V10.1988C16.1491 9.96861 16.4902 9.71282 16.8142 9.41439C16.8227 9.40586 16.8313 9.39734 16.8313 9.38881C18.9543 7.26572 18.9543 3.66755 16.8313 1.54446C16.3197 1.03287 15.7143 0.649182 14.9299 0.333702L14.2563 0.0608555C14.0005 -0.0414621 13.7106 -0.0158827 13.4804 0.14612C13.2501 0.308123 13.1137 0.572443 13.1222 0.853817V4.11945C13.1222 4.23882 13.0711 4.28998 12.9517 4.28998C12.8323 4.28998 12.7812 4.23882 12.7812 4.11945V0.853817C12.7641 0.367808 12.3634 -0.0158827 11.8774 0.00117023C11.7751 0.00117023 11.6813 0.0267496 11.5875 0.0608555L10.9139 0.325176C10.1977 0.589496 9.54965 0.998767 9.00396 1.53593C7.96373 2.57616 7.39245 3.99156 7.40098 5.45811C7.39245 6.92466 7.96373 8.34005 9.00396 9.38881C9.04659 9.43144 9.08069 9.42292 9.12333 9.50818H5.77242C2.575 9.50818 0 12.1088 0 15.3062C0 15.3147 0 15.3232 0 15.3232V23.1761C0 26.3821 2.57499 29.0338 5.78095 29.0338H10.0612V29.8012C9.6946 30.0314 9.34501 30.2872 9.02101 30.5856C9.01248 30.5941 9.01248 30.6027 9.00396 30.6112C6.87234 32.794 6.87234 36.2813 9.00396 38.4555C9.51554 38.9671 10.1209 39.3508 10.9054 39.6663L11.5789 39.9391C11.8518 40.0415 12.1502 40.0159 12.389 39.8539C12.6277 39.7004 12.7727 39.4361 12.7812 39.1462V35.8805C12.7812 35.7612 12.8323 35.71 12.9517 35.71C13.0711 35.71 13.1222 35.7612 13.1222 35.8805V39.1462C13.1137 39.4276 13.2501 39.6919 13.4804 39.8539C13.7106 40.0159 14.0005 40.0415 14.2563 39.9391L14.9213 39.6748C15.6376 39.4105 16.2856 39.0012 16.8227 38.4641C18.9458 36.341 18.9544 32.7428 16.8227 30.6197C16.5158 30.2957 16.1491 30.0229 15.7569 29.8097V29.0423H17.0359C18.1273 29.0423 19.3977 27.8316 19.3977 26.2968C19.3977 25.7682 19.2357 25.248 18.9458 24.8047C19.7047 24.259 20.1566 23.3893 20.1736 22.4599C20.1736 21.8971 19.9946 21.3514 19.6706 20.8995C20.438 20.388 20.8984 19.5353 20.9069 18.6315ZM10.2318 2.73817C10.479 2.4909 10.7604 2.27774 11.0844 2.12426V4.11093C11.0844 5.15116 11.92 5.98675 12.9602 5.98675C14.0005 5.98675 14.8361 5.15116 14.8361 4.11093V2.13279C15.0919 2.30332 15.4073 2.49943 15.6461 2.73817C17.1126 4.20472 17.1126 6.68592 15.6461 8.161C15.3306 8.45943 14.964 8.70669 14.5717 8.88575C14.2648 9.02217 14.0687 9.32913 14.0687 9.66166V12.0661H11.7665V9.67871C11.7665 9.34618 11.579 9.03923 11.272 8.9028C10.8798 8.73227 10.5217 8.49353 10.2232 8.18658C8.74816 6.70297 8.75669 4.21325 10.2318 2.73817ZM15.6376 37.2533C15.3903 37.4835 15.1174 37.6882 14.8275 37.8672V35.8805C14.8275 34.8403 13.9919 34.0047 12.9517 34.0047C11.9115 34.0047 11.0759 34.8403 11.0759 35.8805V37.8587C10.7604 37.7052 10.479 37.5006 10.2232 37.2533C8.75669 35.7868 8.73964 33.3056 10.2062 31.8305C10.5131 31.532 10.8713 31.2848 11.272 31.1057C11.579 30.9693 11.7665 30.6623 11.758 30.3298V29.0338H14.0602V30.3213C14.0602 30.6538 14.2563 30.9608 14.5547 31.0972C14.9469 31.2677 15.3135 31.5065 15.6205 31.8134C17.0956 33.2885 17.1126 35.7782 15.6376 37.2533ZM18.9629 15.8178H17.9312C17.4878 15.8178 17.0956 16.1418 17.0529 16.5852C17.0018 17.0882 17.4025 17.5231 17.9056 17.5231H17.9312L17.9909 17.5401C18.0932 17.5657 18.204 17.5827 18.3063 17.5913C18.8009 17.6595 19.2101 18.1199 19.2101 18.623C19.2101 19.1687 18.7327 19.6632 18.187 19.6632H17.1297C16.6607 19.6632 16.277 20.0384 16.277 20.4988C16.277 20.9251 16.5755 21.2747 16.9762 21.3429C17.0529 21.36 17.1297 21.377 17.1979 21.4026C17.2746 21.4282 17.3599 21.4452 17.4452 21.4452C17.9909 21.4452 18.4683 21.9312 18.4683 22.4769C18.4683 23.0482 17.9738 23.4234 17.8118 23.5086H16.3879C15.9189 23.5001 15.5438 23.8753 15.5352 24.3357C15.5267 24.7535 15.8337 25.1116 16.2344 25.1798C16.2856 25.1884 16.3367 25.2054 16.3879 25.2225C16.4731 25.248 16.5499 25.2651 16.6351 25.2736C17.0274 25.2907 17.394 25.4953 17.5731 25.8449C17.9653 26.6464 17.2491 27.2262 17.0274 27.337H5.77242C3.52143 27.337 1.69677 25.5124 1.69677 23.2614V15.3318C1.67971 13.0808 3.49585 11.2391 5.74684 11.222C5.75537 11.222 5.7639 11.222 5.77242 11.222H10.0527V12.0746H7.81878C7.3754 12.0746 6.98318 12.3987 6.94055 12.842C6.88939 13.3451 7.29013 13.7799 7.7932 13.7799H18.9288C19.4574 13.7799 19.9264 14.1722 19.9775 14.7008C20.0457 15.3062 19.5597 15.8178 18.9629 15.8178Z" fill="black"/>
</svg>
