<svg width="2" height="2" viewBox="0 0 2 2" fill="none" xmlns="http://www.w3.org/2000/svg">
<path d="M1.02859 0.181308C0.973239 0.124426 0.907138 0.0791076 0.834125 0.0479855C0.761112 0.0168633 0.682644 0.000557262 0.603277 1.40347e-05C0.52391 -0.000529193 0.445225 0.0147023 0.371793 0.0448221C0.298361 0.0749419 0.231645 0.11935 0.17552 0.175469C0.119394 0.231588 0.0749779 0.298298 0.0448493 0.371726C0.0147207 0.445154 -0.00052032 0.523836 1.35554e-05 0.603203C0.000547431 0.682569 0.0168457 0.76104 0.0479593 0.834056C0.079073 0.907072 0.124383 0.973178 0.181258 1.02854L0.973667 1.82104C1.02914 1.87742 1.09523 1.92226 1.16811 1.95298C1.241 1.98369 1.31925 1.99967 1.39834 1.99999C1.47744 2.00032 1.55581 1.98498 1.62895 1.95486C1.70209 1.92474 1.76854 1.88044 1.82447 1.82451C1.88039 1.76858 1.9247 1.70213 1.95482 1.62899C1.98494 1.55586 2.00028 1.47748 1.99995 1.39839C1.99963 1.31929 1.98365 1.24105 1.95294 1.16816C1.92222 1.09527 1.87738 1.02918 1.821 0.973712L1.02859 0.181308Z" fill="black"/>
</svg>
