<svg width="40" height="40" viewBox="0 0 40 40" fill="none" xmlns="http://www.w3.org/2000/svg">
<path d="M38.8811 30.9521C38.6318 30.5407 38.2835 30.2651 37.8735 30.1482C37.8609 30.1437 29.7413 28.1473 29.7413 28.1473C30.5167 27.4747 31.1803 26.6704 31.6328 25.7081C32.5586 23.7392 32.453 21.4178 31.3194 18.809C31.145 18.4068 30.8262 18.3603 30.6972 18.3589C30.2283 18.3577 30.0451 18.7529 29.8136 19.2581C29.3866 20.1893 28.8982 21.0983 28.0425 21.0983C27.5982 21.0983 27.2649 20.9464 27.0518 20.6467C26.7949 20.2852 26.7856 19.836 26.8372 19.6878C28.0655 16.1817 28.0303 13.4449 27.7846 11.7665C27.4714 9.62872 26.6983 8.2273 26.0791 7.62862C25.5402 7.10768 25.1027 7.16869 24.8899 7.25143C24.6938 7.32768 24.3593 7.54698 24.3219 8.15995C24.2087 10.0318 23.6687 11.3328 22.8775 11.6404C22.4984 11.7875 22.0735 11.6833 21.7404 11.3611C21.401 11.0325 21.1305 10.4191 21.3892 9.68325C22.38 6.8683 21.6057 4.59313 20.7816 3.18014C19.8844 1.64169 18.5423 0.484104 17.6749 0.0596474C17.4652 -0.0429316 17.2145 -0.0113688 17.037 0.140195C16.8594 0.291681 16.7887 0.534261 16.857 0.757466C17.5338 2.96702 16.7105 4.28148 16.1667 5.14961C15.6601 5.95181 15.1701 6.74041 14.7438 7.56823C14.5957 7.85597 14.7088 8.20925 14.9965 8.35745C15.2843 8.50558 15.6375 8.39238 15.7857 8.1048C16.1902 7.31924 16.6655 6.55463 17.1587 5.77353C17.6217 5.0343 18.4045 3.78476 18.2669 1.91568C18.773 2.37787 19.3233 3.00585 19.7692 3.7703C20.7866 5.51485 20.9597 7.37323 20.2837 9.29418C19.9136 10.3471 20.1595 11.4616 20.9254 12.203C21.5861 12.8424 22.4965 13.0455 23.3019 12.7325C24.0001 12.4611 25.1757 11.5743 25.4563 8.68183C26.2823 9.77575 27.7624 13.502 25.7309 19.3014C25.5556 19.8049 25.625 20.6619 26.0967 21.3255C26.5297 21.9347 27.2208 22.2702 28.0425 22.2702C29.4243 22.2702 30.1788 21.1583 30.628 20.2731C31.0035 21.4017 31.1993 22.6151 31.0069 23.7989C30.8294 24.8913 30.3072 25.8817 29.5615 26.6935C29.0607 27.2388 28.5771 27.519 28.0322 27.9743C26.9181 28.7073 25.6549 29.2184 24.5231 29.5698C25.0673 28.8243 25.4686 27.942 25.6704 26.9999C26.0425 25.2633 25.6996 23.5122 24.705 22.0691C24.5705 21.8741 24.3319 21.7793 24.1004 21.8286C23.8687 21.878 23.6896 22.062 23.6464 22.2949C23.4742 23.2249 23.0029 23.7638 22.6379 23.8709C22.4842 23.916 22.3677 23.8851 22.2603 23.7706C21.866 23.3508 21.7128 22.0144 22.579 19.6291C22.9929 18.4851 22.789 17.1019 22.0465 16.0196C21.3561 15.0131 20.2892 14.4217 19.1194 14.397C18.9421 14.3934 18.7709 14.4709 18.6567 14.6079C18.5427 14.7449 18.4972 14.9265 18.5331 15.1011C19.1591 18.1366 18.7567 18.6774 18.3307 19.2499C17.8635 19.8779 17.5198 20.4878 17.5822 21.9128C17.1654 21.6298 16.7277 21.4555 16.28 21.3976C15.4805 21.2944 14.666 21.568 13.925 22.1896C13.7838 22.3081 13.7065 22.486 13.7165 22.67C13.7264 22.854 13.8222 23.0227 13.9753 23.1252C15.4844 24.1366 15.6245 25.5847 15.7729 27.1178C15.8516 27.9313 15.9322 28.7595 16.2394 29.4847C15.8457 29.3504 15.4694 29.1991 15.1126 29.032C14.0836 28.5257 13.121 27.9001 12.3707 27.0198C12.1659 26.7796 11.9792 26.5237 11.8158 26.2535C11.5503 25.8132 11.5239 24.732 11.4984 23.6864C11.4596 22.0962 11.4156 20.2937 10.5578 19.261C9.81705 18.3701 9.01978 17.742 8.45219 17.3332C10.5357 16.2571 12.2733 16.2794 14.7483 18.6808C14.9366 18.8636 15.2236 18.8987 15.4506 18.767C15.6776 18.6351 15.7892 18.3684 15.7237 18.1143C14.8033 14.5402 14.5621 12.3629 14.8908 10.599C14.9501 10.2809 14.7402 9.97497 14.4221 9.91567C14.104 9.85614 13.798 10.0662 13.7387 10.3843C13.4358 12.01 13.5579 13.9001 14.1703 16.6675C11.5593 14.8234 9.4122 15.3528 7.09296 16.7547C6.91749 16.86 6.80874 17.0445 6.80202 17.2483C6.7903 17.6028 7.02296 17.7642 7.40843 18.0316C7.90664 18.3773 8.83407 19.0208 9.6565 20.01C10.2541 20.7293 10.2928 22.3155 10.3269 23.715C10.3588 25.0228 10.3864 26.1523 10.8127 26.8593C11.0853 27.3102 11.4163 27.732 11.7957 28.1231L8.23797 29.4274C7.93414 29.5388 7.77812 29.8754 7.88953 30.1793C7.97648 30.4166 8.20086 30.5637 8.43969 30.5637C8.50665 30.5637 8.57477 30.5521 8.64133 30.5277L12.8 29.003C13.2061 29.3075 13.6454 29.5858 14.1133 29.8351C13.9309 30.3998 13.878 30.9563 13.9413 31.4511L6.40413 34.356C6.40397 34.356 6.40381 34.3561 6.40374 34.3561C6.40366 34.3561 6.4035 34.3562 6.40342 34.3562C5.89428 34.5533 5.53654 34.9901 5.35756 35.5557L4.43481 35.8936C4.51364 35.3206 4.43645 34.6801 4.21106 34.0637C4.2109 34.0633 4.21083 34.0629 4.21067 34.0625C3.98426 33.4473 3.62957 32.9095 3.19965 32.5236L6.17022 31.4333C6.47397 31.3217 6.62983 30.9852 6.51835 30.6813C6.40686 30.3775 6.07022 30.2216 5.76639 30.3331L1.21119 32.0051C1.20963 32.0056 1.20822 32.0064 1.20674 32.007C0.641967 32.2156 0.228291 32.7421 0.0714149 33.4528C-0.0673364 34.0815 -0.00257018 34.8135 0.254073 35.5143C0.511653 36.2156 0.935563 36.8165 1.44752 37.2065C1.84877 37.5122 2.28714 37.6706 2.70659 37.6706C2.8941 37.6706 3.07793 37.6389 3.25293 37.5746C3.25332 37.5744 5.24873 36.8435 5.24873 36.8435C5.28584 37.1815 5.37006 37.5323 5.5056 37.8833C6.00115 39.1723 7.00382 40.0001 7.9625 40C8.13899 39.9999 8.31383 39.9702 8.48391 39.9118C8.50196 39.9068 20.5815 35.2496 20.5815 35.2496L31.8977 39.6128C31.8979 39.6129 31.8982 39.613 31.8984 39.613C31.8985 39.613 31.8987 39.6131 31.8987 39.6131C31.9159 39.6197 31.9332 39.6255 31.9505 39.6303C32.1206 39.689 32.2955 39.7188 32.4722 39.7188C33.4298 39.7188 34.4339 38.8912 34.9319 37.602C35.1997 36.9056 35.2767 36.1747 35.1488 35.5441C35.1418 35.5095 35.1336 35.4756 35.1254 35.4418L36.1418 35.8034C36.3424 35.8918 36.5588 35.9381 36.7781 35.9381C37.8032 35.9381 38.8007 34.9521 39.1525 33.5146C39.3843 32.5732 39.2829 31.6151 38.8811 30.9521ZM3.2491 35.8741C3.17972 36.1882 3.03457 36.407 2.84941 36.4746C2.66527 36.5425 2.41323 36.4694 2.15753 36.2746C1.82581 36.0219 1.53291 35.5976 1.35416 35.111C1.17619 34.6251 1.12572 34.1129 1.21564 33.7056C1.28486 33.3919 1.42986 33.1735 1.61487 33.1056H1.61494L1.61596 33.1052C1.66088 33.0888 1.70979 33.0806 1.76182 33.0806C1.92299 33.0806 2.11417 33.1582 2.30737 33.3052C2.63886 33.5575 2.93167 33.981 3.11058 34.467C3.28847 34.9539 3.33894 35.4667 3.2491 35.8741ZM15.3019 22.6898C15.5812 22.5684 15.8579 22.5248 16.1294 22.5599C16.7267 22.6373 17.3351 23.0923 17.8888 23.8759C18.047 24.1 18.3396 24.1841 18.5928 24.0786C18.846 23.973 18.9921 23.706 18.9443 23.4358C18.5088 20.9737 18.879 20.4763 19.2709 19.9497C19.8792 19.1322 20.2823 18.3213 19.8389 15.7017C20.473 15.9253 20.8731 16.3808 21.0801 16.6826C21.6047 17.4472 21.7604 18.4474 21.4772 19.2299C20.2426 22.6298 20.9027 24.0368 21.406 24.5728C21.818 25.0117 22.3871 25.1655 22.9678 24.9954C23.5093 24.8365 23.9802 24.4242 24.3198 23.841C24.664 24.7562 24.7381 25.7578 24.5246 26.7545C24.2312 28.124 23.4016 29.3779 22.3485 30.0587C20.9648 30.2474 19.5362 30.2183 18.1507 29.9728C17.2202 29.4314 17.0825 28.4842 16.9394 27.0052C16.8065 25.633 16.6455 23.9687 15.3019 22.6898ZM8.1168 38.8005L8.11625 38.8008C7.7039 38.9591 6.96741 38.4207 6.59897 37.4623C6.22881 36.5039 6.41374 35.6091 6.82499 35.4499C6.87288 35.4315 6.92515 35.4225 6.98077 35.4225C7.40335 35.4225 8.01649 35.9415 8.34243 36.7877C8.3425 36.7879 8.34258 36.7881 8.34266 36.7882C8.71274 37.7465 8.52797 38.641 8.1168 38.8005ZM9.69166 38.1932C9.7597 37.6357 9.68103 37.0011 9.43579 36.3661C9.1915 35.732 8.8243 35.2098 8.40032 34.8427L14.3491 32.5499C14.5392 32.8139 14.7885 33.0163 15.0916 33.1331L18.9527 34.6218L9.69166 38.1932ZM30.9993 36.087C30.9991 36.0872 30.999 36.0875 30.9989 36.0879C30.7555 36.721 30.6774 37.3536 30.7448 37.9097C30.745 37.9108 30.7448 37.9117 30.745 37.9127L15.513 32.0397C15.3689 31.9842 15.2537 31.837 15.1794 31.6295C15.1767 31.6214 15.1745 31.6132 15.1714 31.6051C15.1695 31.6002 15.1671 31.5958 15.1651 31.591C15.0631 31.2728 15.0559 30.8237 15.1869 30.3376C16.7955 30.9955 18.6399 31.3537 20.5243 31.3537C21.3852 31.3537 22.2544 31.2785 23.1129 31.1238L32.0357 34.5632C32.0354 34.5635 32.0351 34.5639 32.0347 34.5642C31.5987 34.9432 31.2355 35.4754 30.9993 36.087ZM33.8384 37.181C33.4683 38.139 32.7305 38.6779 32.3199 38.52C31.909 38.3609 31.7245 37.4672 32.0925 36.5093C32.2794 36.0257 32.5792 35.6064 32.9152 35.3591C33.1745 35.1684 33.4281 35.0997 33.6123 35.1709C33.795 35.2411 33.9363 35.4621 34.0003 35.7774C34.0831 36.1861 34.024 36.6981 33.8384 37.181ZM33.9977 34.0635L25.0749 30.6241C26.1888 30.2645 27.406 29.7589 28.5178 29.0534L35.8957 30.8658C35.8954 30.8661 35.8953 30.8665 35.8949 30.8668C35.5104 31.298 35.2174 31.8718 35.0606 32.5082C35.0605 32.5086 35.0604 32.509 35.0602 32.5094C34.9015 33.1592 34.9023 33.7882 35.0343 34.3264C35.0347 34.3279 35.0347 34.3293 35.035 34.3308L33.9977 34.0635ZM38.0145 33.2356C37.7705 34.232 37.1082 34.8597 36.6804 34.7548L36.6798 34.7546C36.6753 34.7535 36.6707 34.7518 36.6662 34.7505C36.2455 34.6292 35.9575 33.774 36.1984 32.7887C36.3224 32.2856 36.5667 31.832 36.8685 31.5441C37.0142 31.4052 37.2014 31.2737 37.4085 31.2592C37.6189 31.2445 37.7762 31.3901 37.8788 31.5595C38.1193 31.9563 38.1714 32.5982 38.0145 33.2356Z" fill="black"/>
</svg>
