<svg width="40" height="24" viewBox="0 0 40 24" fill="none" xmlns="http://www.w3.org/2000/svg">
<path d="M39.375 6.875H26.875V5.625H27.5C27.8452 5.625 28.125 5.34516 28.125 5C28.125 4.65484 27.8452 4.375 27.5 4.375H26.875V3.75C26.875 2.3693 27.9943 1.25 29.375 1.25C30.7557 1.25 31.875 2.3693 31.875 3.75C31.875 4.09516 32.1548 4.375 32.5 4.375C32.8452 4.375 33.125 4.09516 33.125 3.75C33.125 1.67891 31.4461 0 29.375 0C27.3039 0 25.625 1.67891 25.625 3.75V6.875H15.1375C15.4496 6.53336 15.6234 6.08773 15.625 5.625V1.875C15.625 1.52984 15.3452 1.25 15 1.25H5.625C5.27984 1.25 5 1.52984 5 1.875V5.625C5.00164 6.08773 5.17539 6.53336 5.4875 6.875H0.625C0.279844 6.875 0 7.15484 0 7.5V22.5C0 22.8452 0.279844 23.125 0.625 23.125H39.375C39.7202 23.125 40 22.8452 40 22.5V7.5C40 7.15484 39.7202 6.875 39.375 6.875ZM6.25 2.5H14.375V5.625C14.375 5.97016 14.0952 6.25 13.75 6.25H6.875C6.52984 6.25 6.25 5.97016 6.25 5.625V2.5ZM10 21.875H1.25V14.375H10V21.875ZM10 13.125H1.25V8.125H3.125C3.125 8.47016 3.40484 8.75 3.75 8.75H7.5C7.84516 8.75 8.125 8.47016 8.125 8.125H10V13.125ZM28.75 21.875H11.25V8.125H28.75V21.875ZM38.75 21.875H30V14.375H38.75V21.875ZM38.75 13.125H30V8.125H31.875C31.875 8.47016 32.1548 8.75 32.5 8.75H36.25C36.5952 8.75 36.875 8.47016 36.875 8.125H38.75V13.125Z" fill="#1071FF"/>
</svg>
