<svg width="25" height="31" viewBox="0 0 25 31" fill="none" xmlns="http://www.w3.org/2000/svg">
<path d="M10.9451 29.6153H2.17097C1.62685 29.6153 1.18421 29.1727 1.18421 28.6285V23.7127C1.18421 23.1686 1.62685 22.726 2.17097 22.726H24.4079C24.735 22.726 25 22.4609 25 22.1339C25 21.8069 24.735 21.5418 24.4079 21.5418H9.27967L8.62257 1.62109C8.59255 0.712021 7.85666 0 6.94719 0C6.03764 0 5.30167 0.7121 5.27173 1.62109L4.97272 10.6857C4.96193 11.0126 5.21815 11.2862 5.54497 11.297C5.87006 11.3053 6.14543 11.0516 6.15622 10.7247L6.45523 1.66009C6.46405 1.39323 6.68009 1.18413 6.94719 1.18413C7.21421 1.18413 7.43025 1.39323 7.43907 1.66009L8.09484 21.5418H5.79946L6.07814 13.0913C6.08893 12.7645 5.83271 12.4908 5.50589 12.48C5.17947 12.4697 4.90536 12.7255 4.89464 13.0523L4.61462 21.5418H2.17097C0.973918 21.5418 0 22.5157 0 23.7127V28.6285C0 29.8255 0.973918 30.7995 2.17097 30.7995H10.9451C11.2722 30.7995 11.5372 30.5343 11.5372 30.2073C11.5372 29.8804 11.2721 29.6153 10.9451 29.6153Z" fill="black"/>
</svg>
