<svg width="27" height="37" viewBox="0 0 27 37" fill="none" xmlns="http://www.w3.org/2000/svg">
<path d="M26.5185 3.73244H20.4085V3.20555C20.7405 3.14047 21.0429 2.97064 21.2713 2.72102C21.4996 2.4714 21.6419 2.15513 21.6773 1.81866C21.7898 0.852805 21.0478 0.000184136 20.1002 0.000184136H6.96328C6.55974 -0.00588303 6.16833 0.13817 5.86499 0.404392C5.56166 0.670615 5.36803 1.04002 5.32168 1.44095C5.27533 1.84187 5.37957 2.24571 5.61415 2.57412C5.84874 2.90253 6.19696 3.13209 6.59125 3.21826V3.73244H0.481312C0.218149 3.73244 0.000248838 3.98393 0.000248838 4.24709V6.37773C-0.0112449 7.71928 0.375669 9.03407 1.11198 10.1556V22.2628C1.11643 22.3621 1.15046 22.4577 1.2097 22.5374C1.26894 22.6172 1.35069 22.6774 1.44442 22.7103C1.53814 22.7432 1.63957 22.7473 1.73566 22.7221C1.83174 22.6969 1.91809 22.6435 1.98358 22.5688L3.79269 20.4145L5.59942 22.5688C5.64438 22.6222 5.70049 22.6652 5.76381 22.6947C5.82714 22.7241 5.89614 22.7394 5.96598 22.7394C6.01984 22.7393 6.07326 22.7296 6.12368 22.7106C6.21504 22.6769 6.29375 22.6158 6.34903 22.5357C6.4043 22.4555 6.43343 22.3602 6.43243 22.2628V13.0234H6.74483C7.26035 15.2468 8.80447 17.1324 10.8333 18.0115L11.3045 21.8523C10.9043 21.8872 10.532 22.0717 10.2619 22.3689C9.99172 22.6662 9.84359 23.0544 9.84704 23.4561V23.9819H8.91088C8.05104 23.9819 7.38534 24.6978 7.38534 25.5577V26.3642H5.47951C5.35315 26.3642 5.23196 26.4144 5.14261 26.5037C5.05325 26.5931 5.00306 26.7143 5.00306 26.8406V36.4492C5.00306 36.5756 5.05325 36.6968 5.14261 36.7861C5.23196 36.8755 5.35315 36.9257 5.47951 36.9257H21.5203C21.6466 36.9257 21.7678 36.8755 21.8572 36.7861C21.9465 36.6968 21.9967 36.5756 21.9967 36.4492V26.8406C21.9967 26.7143 21.9465 26.5931 21.8572 26.5037C21.7678 26.4144 21.6466 26.3642 21.5203 26.3642H19.6144V25.5577C19.6144 24.6978 18.9487 23.9819 18.0889 23.9819H17.1527V23.4561C17.1564 23.0537 17.0086 22.6646 16.7385 22.3663C16.4685 22.0679 16.096 21.8821 15.6952 21.8458L16.1586 17.9927C18.1605 17.1069 19.703 15.2468 20.2366 13.0234H20.5673V22.2628C20.5661 22.3602 20.5951 22.4556 20.6503 22.5358C20.7056 22.616 20.7843 22.6771 20.8757 22.7107C20.9672 22.7442 21.0668 22.7486 21.1608 22.7232C21.2548 22.6978 21.3386 22.6438 21.4007 22.5688L23.2033 20.4145L25.0068 22.5688C25.0515 22.6222 25.1074 22.6652 25.1705 22.6947C25.2336 22.7242 25.3024 22.7394 25.3721 22.7394C25.4212 22.7393 25.4698 22.7295 25.515 22.7106C25.6047 22.6761 25.6813 22.6144 25.734 22.534C25.7867 22.4537 25.8129 22.3588 25.8089 22.2628V10.1554C26.603 9.08337 27 7.78106 27 6.37773V4.24709C26.9995 3.98393 26.7816 3.73244 26.5185 3.73244ZM5.47951 20.9519L4.15734 19.3665C4.11318 19.3132 4.0578 19.2702 3.99514 19.2408C3.93248 19.2113 3.86409 19.196 3.79484 19.196C3.72249 19.1958 3.65093 19.211 3.58482 19.2404C3.5187 19.2698 3.45952 19.3127 3.41113 19.3665L2.0649 20.9519V11.2798C3.01526 12.1549 4.20335 12.7293 5.47951 12.9305V20.9519ZM6.39479 12.0704C3.39676 12.0704 0.953164 9.50282 0.953164 6.37773V4.68535H6.59125V5.24122H1.98843C1.72534 5.24122 1.50903 5.49112 1.50903 5.75421V6.37773C1.50903 9.19725 3.70241 11.5146 6.39479 11.5146H6.56044C6.56425 11.6734 6.57489 11.8322 6.5922 12.0704H6.39479ZM6.59125 6.19414V10.5617H6.39479C4.22786 10.5617 2.46195 8.67172 2.46195 6.37773V6.19414H6.59125ZM21.0438 27.3171V36.0522H5.95597V27.3171H21.0438ZM18.0889 24.9348C18.4233 24.9348 18.6615 25.2233 18.6615 25.5577V26.3642H8.33826V25.5577C8.33826 25.2233 8.57649 24.9348 8.91088 24.9348H18.0889ZM16.1998 23.4561V23.9819H10.8V23.4561C10.8 23.0898 11.0595 22.7907 11.4258 22.7907H15.574C15.9402 22.7907 16.1998 23.0898 16.1998 23.4561ZM11.8329 18.3405C12.9271 18.6214 14.075 18.6179 15.1675 18.3303L14.7557 21.8378H12.2439L11.8329 18.3405ZM19.4556 11.2989C19.4556 14.7711 16.7673 17.5961 13.485 17.5961C10.1911 17.5961 7.54416 14.7871 7.54416 11.3343V10.6411H10.9917L10.7338 12.1283C10.7188 12.2147 10.7287 12.3037 10.7623 12.3848C10.7958 12.4659 10.8517 12.5358 10.9234 12.5864C10.9957 12.6381 11.081 12.6685 11.1697 12.6742C11.2583 12.6799 11.3468 12.6607 11.4252 12.6187L13.4999 11.5259L15.5746 12.6157C15.6534 12.6568 15.7421 12.6752 15.8307 12.6686C15.9194 12.6621 16.0044 12.6309 16.0763 12.5787C16.1478 12.5297 16.2037 12.4613 16.2373 12.3814C16.271 12.3016 16.2809 12.2138 16.266 12.1284L16.0081 10.6411H19.4556V11.2989ZM14.888 9.71635L15.1635 11.322L13.7216 10.5639C13.6532 10.5279 13.5771 10.5092 13.4999 10.5092C13.4226 10.5092 13.3465 10.5279 13.2782 10.5639L11.8363 11.322L12.1117 9.71635C12.1248 9.64022 12.1191 9.56206 12.0952 9.4886C12.0714 9.41515 12.03 9.3486 11.9747 9.29468L10.8079 8.15754L12.4199 7.92328C12.4964 7.91219 12.569 7.88267 12.6315 7.83727C12.694 7.79186 12.7446 7.73194 12.7788 7.66266L13.4999 6.20208L14.2208 7.66321C14.255 7.7325 14.3055 7.79242 14.368 7.83782C14.4305 7.88323 14.5032 7.91275 14.5796 7.92384L16.1916 8.15809L15.025 9.29524C14.9698 9.3491 14.9285 9.41556 14.9046 9.48891C14.8808 9.56226 14.8751 9.64031 14.888 9.71635ZM10.9805 9.68816H7.54416V8.25879H9.55108L10.9805 9.68816ZM19.4556 9.68816H16.0192L17.4486 8.25879H19.4556V9.68816ZM20.1002 2.30306H11.9911C11.8647 2.30306 11.7435 2.35326 11.6542 2.44261C11.5648 2.53197 11.5146 2.65316 11.5146 2.77952C11.5146 2.90589 11.5648 3.02707 11.6542 3.11643C11.7435 3.20578 11.8647 3.25598 11.9911 3.25598H19.4556V7.30587H16.9871L14.9644 7.01412L13.9272 4.91334C13.8878 4.83363 13.8268 4.76653 13.7513 4.71965C13.6757 4.67277 13.5886 4.64796 13.4996 4.64805C13.4107 4.64813 13.3236 4.67309 13.2481 4.72012C13.1726 4.76714 13.1118 4.83435 13.0726 4.91413L12.0353 7.01396L10.0127 7.30587H7.54416V3.25598H8.81472C8.94108 3.25598 9.06227 3.20578 9.15162 3.11643C9.24098 3.02707 9.29118 2.90589 9.29118 2.77952C9.29118 2.65316 9.24098 2.53197 9.15162 2.44261C9.06227 2.35326 8.94108 2.30306 8.81472 2.30306H6.94947C6.80234 2.30514 6.65834 2.26062 6.53806 2.17588C6.41777 2.09114 6.32738 1.97052 6.2798 1.83129C6.24841 1.73207 6.24038 1.62692 6.25635 1.52408C6.27232 1.42124 6.31186 1.32349 6.37187 1.23846C6.43188 1.15343 6.51074 1.08343 6.60229 1.03393C6.69383 0.984423 6.79559 0.95676 6.8996 0.9531H20.0503C20.1974 0.951028 20.3414 0.995547 20.4617 1.08029C20.582 1.16502 20.6724 1.28564 20.72 1.42487C20.7514 1.5241 20.7594 1.62924 20.7434 1.73208C20.7275 1.83492 20.6879 1.93268 20.6279 2.01771C20.5679 2.10273 20.489 2.17274 20.3975 2.22224C20.3059 2.27174 20.2042 2.2994 20.1002 2.30306ZM20.4085 6.19414H24.5378V6.37773C24.5378 8.67172 22.7719 10.5617 20.605 10.5617H20.4085V6.19414ZM24.8555 20.9519L23.5475 19.3665C23.5049 19.3133 23.4509 19.2703 23.3894 19.2408C23.328 19.2113 23.2607 19.1959 23.1925 19.1959C23.1243 19.1959 23.057 19.2113 22.9956 19.2408C22.9341 19.2703 22.8801 19.3133 22.8375 19.3665L21.5203 20.9519V12.9307C22.7781 12.7454 23.9453 12.1677 24.8555 11.2799V20.9519ZM26.0466 6.37773C26.0466 9.50282 23.603 12.0704 20.605 12.0704H20.3993C20.4186 11.8322 20.4311 11.6734 20.4374 11.5146H20.605C23.2974 11.5146 25.4907 9.19725 25.4907 6.37773V5.75421C25.4907 5.49112 25.2744 5.24122 25.0113 5.24122H20.4085V4.68535H26.0466V6.37773Z" fill="black"/>
</svg>
