<svg width="32" height="22" viewBox="0 0 32 22" fill="none" xmlns="http://www.w3.org/2000/svg">
<path d="M27.7895 0H4.2105C1.88795 0 0 1.88969 0 4.2105V9.26314C0 9.72798 0.37729 10.1053 0.842132 10.1053C1.30697 10.1053 1.68419 9.72798 1.68419 9.26314V4.2105C1.68419 2.81763 2.81763 1.68419 4.2105 1.68419H27.7895C29.1824 1.68419 30.3158 2.81763 30.3158 4.2105V17.6842C30.3158 19.0771 29.1824 20.2105 27.7895 20.2105H12.6316C12.1667 20.2105 11.7895 20.5878 11.7895 21.0527C11.7895 21.5175 12.1667 21.8948 12.6316 21.8948H27.7895C30.112 21.8947 32 20.005 32 17.6842V4.2105C32 1.88969 30.112 0 27.7895 0Z" fill="black"/>
</svg>
