<svg width="4" height="7" viewBox="0 0 4 7" fill="none" xmlns="http://www.w3.org/2000/svg">
<path d="M0.666667 6.66667H3.33333C3.51014 6.66667 3.67971 6.59643 3.80474 6.4714C3.92976 6.34638 4 6.17681 4 6V0.666667C4 0.489856 3.92976 0.320287 3.80474 0.195262C3.67971 0.070238 3.51014 0 3.33333 0H0.666667C0.489856 0 0.320287 0.070238 0.195262 0.195262C0.070238 0.320287 0 0.489856 0 0.666667V6C0 6.17681 0.070238 6.34638 0.195262 6.4714C0.320287 6.59643 0.489856 6.66667 0.666667 6.66667ZM1.33333 1.33333H2.66667V5.33333H1.33333V1.33333Z" fill="black"/>
</svg>
