<svg width="35" height="38" viewBox="0 0 35 38" fill="none" xmlns="http://www.w3.org/2000/svg">
<path d="M19.6595 1.20202C26.6575 1.20202 31.412 3.48073 33.7906 7.97481C33.9458 8.26817 34.3095 8.38015 34.6031 8.22491C34.8964 8.06958 35.0084 7.70592 34.8531 7.41247C32.2497 2.49394 27.1379 0 19.6595 0C13.0949 0 8.33317 1.9368 5.50636 5.75656C3.35802 8.65944 2.35683 12.7125 2.61084 17.4777C2.80096 21.0441 3.60971 23.7244 3.64402 23.8368C3.64714 23.8469 3.6505 23.857 3.65418 23.8671L4.50085 26.1887C4.50109 26.1892 4.50125 26.1897 4.50141 26.1903L8.27798 36.5458L8.27894 36.5484L8.34149 36.7199C6.65311 36.4196 5.23275 35.2716 4.59299 33.6266L3.31763 30.3471C2.8463 29.1349 2.71394 27.8167 2.93484 26.5351C2.95196 26.4358 2.9438 26.3337 2.91117 26.2383C2.89941 26.2041 1.73482 22.7645 1.33572 18.3373C1.10234 15.7476 1.17456 13.3388 1.55055 11.1779C2.01547 8.50524 2.94908 6.20837 4.32545 4.35123C4.52316 4.0845 4.46718 3.70819 4.20045 3.51048C3.93355 3.31277 3.55717 3.36884 3.3597 3.63549C1.87231 5.64235 0.865761 8.10758 0.367885 10.9626C-0.026576 13.2248 -0.104316 15.7367 0.137063 18.4284C0.504971 22.5317 1.49264 25.7619 1.72563 26.4817C1.50296 27.9308 1.66524 29.4145 2.19719 30.7826L3.47255 34.0621C3.92547 35.2269 4.71024 36.2155 5.74174 36.9212C6.77316 37.6268 7.97894 37.9998 9.22879 37.9998C9.63333 38.0111 9.94269 37.569 9.79345 37.1929L9.76113 37.1043L13.0789 37.6391C13.1796 37.6561 13.2842 37.644 13.3805 37.6104L15.7414 36.7493C16.4935 36.4751 17.0938 35.9244 17.4316 35.1986C17.7694 34.4728 17.8044 33.659 17.5301 32.907L15.4475 27.1963C15.3338 26.8844 14.9888 26.7235 14.6769 26.8375C14.3651 26.9513 14.2045 27.2962 14.3182 27.6081L16.4009 33.3188C16.5652 33.7692 16.5442 34.2566 16.3419 34.6913C16.1395 35.1259 15.7801 35.4557 15.3297 35.62L13.5333 36.2751L8.69708 23.0143L10.4934 22.3591C11.4234 22.0203 12.4557 22.5006 12.7947 23.4305L13.4917 25.3417C13.793 26.0822 14.8679 25.683 14.621 24.9298L13.9239 23.0186C13.3578 21.4662 11.6341 20.6636 10.0816 21.2299L7.72764 22.0884C7.62903 22.1236 7.54001 22.1845 7.47131 22.2632L5.27682 24.8082L4.78942 23.4717C4.72671 23.2599 3.98154 20.6816 3.8095 17.3833C3.64682 14.2652 3.97722 9.84042 6.47532 6.46775C9.06347 2.97374 13.4992 1.20202 19.6595 1.20202ZM7.71285 23.8238L12.259 36.2893L9.28941 35.8107L5.7487 26.1018L7.71285 23.8238Z" fill="black"/>
</svg>
