<svg width="9" height="9" viewBox="0 0 9 9" fill="none" xmlns="http://www.w3.org/2000/svg">
<path d="M1.08827 0.937097C0.835522 1.51512 0.944571 2.16185 1.37286 2.62496L3.35203 4.76549H3.35211C3.44137 4.86197 3.54184 4.94604 3.65072 5.01628V6.02973C3.65072 6.56817 3.21283 7.00623 2.67464 7.00623C2.13645 7.00623 1.69856 6.56817 1.69856 6.02973C1.69856 5.56067 1.31834 5.18045 0.849281 5.18045C0.380223 5.18045 0 5.56067 0 6.02973C0 7.50476 1.19978 8.7048 2.67464 8.7048C3.37963 8.7048 4.02168 8.43057 4.5 7.98325C4.97831 8.43057 5.62046 8.7048 6.32536 8.7048C7.80014 8.7048 9 7.50476 9 6.02973C9 5.56067 8.61978 5.18045 8.15072 5.18045C7.68166 5.18045 7.30144 5.56067 7.30144 6.02973C7.30144 6.56817 6.86355 7.00623 6.32536 7.00623C5.78717 7.00623 5.34928 6.56817 5.34928 6.02973V5.01628C5.45816 4.94596 5.55871 4.86197 5.64797 4.7654L7.62714 2.62487C8.05543 2.16168 8.16448 1.51495 7.91173 0.937012C7.66281 0.367823 7.1005 0 6.47925 0H2.52092C1.8995 8.49282e-05 1.33719 0.367909 1.08827 0.937097ZM6.1702 1.69865L4.51902 3.48443C4.51265 3.48426 4.50629 3.48418 4.49992 3.48418C4.49355 3.48418 4.48717 3.48426 4.48081 3.48443L2.82963 1.69865H6.1702Z" fill="black"/>
</svg>
