<svg width="40" height="17" viewBox="0 0 40 17" fill="none" xmlns="http://www.w3.org/2000/svg">
<path d="M39.8451 6.83781C39.4148 5.6565 38.2064 4.97018 36.9715 5.20643L29.1908 6.69367C29.3082 6.39977 29.3728 6.07985 29.3728 5.74619C29.3728 5.04143 29.0769 4.36175 28.5609 3.88168C28.0449 3.40153 27.3451 3.15543 26.6426 3.20606L24.3609 3.37074C23.3689 3.44215 22.3948 3.20817 21.5439 2.6938L18.846 1.06311C17.0214 -0.0398432 14.7932 -0.129295 12.8858 0.824132L9.31184 2.61067V1.59826C9.31184 0.717024 8.5949 0 7.71366 0H1.59826C0.717023 0 0 0.717024 0 1.59826V4.6926C0 5.01627 0.262262 5.27854 0.58593 5.27854C0.909598 5.27854 1.17186 5.01627 1.17186 4.6926V1.59826C1.17186 1.36311 1.36311 1.17186 1.59826 1.17186H7.71373C7.94881 1.17186 8.14006 1.36311 8.14006 1.59826V14.9967C8.14006 15.2319 7.94881 15.4231 7.71373 15.4231H1.59826C1.36311 15.4231 1.17186 15.2319 1.17186 14.9967V7.03531C1.17186 6.71164 0.909598 6.44938 0.58593 6.44938C0.262262 6.44938 0 6.71164 0 7.03531V14.9967C0 15.8779 0.717023 16.595 1.59826 16.595H7.71373C8.59497 16.595 9.31192 15.8779 9.31192 14.9967V14.4125L11.0628 15.1266C13.1298 15.9697 15.3203 16.3927 17.5135 16.3927C19.4256 16.3927 21.3399 16.0712 23.1759 15.4262L30.3037 12.9221C30.609 12.8149 30.7696 12.4804 30.6624 12.1751C30.5551 11.8699 30.2206 11.7093 29.9153 11.8165L22.7875 14.3205C19.1158 15.6105 15.1089 15.5114 11.5053 14.0416L9.31184 13.147V3.92082L13.4098 1.8724C14.9554 1.09968 16.761 1.17218 18.2398 2.06607L20.9376 3.69676C21.9972 4.33714 23.2098 4.62846 24.4452 4.53956L26.7269 4.37487C27.1121 4.34737 27.4799 4.47667 27.7626 4.73963C28.0452 5.00268 28.2008 5.3601 28.2008 5.74626C28.2008 6.41618 27.7223 6.98508 27.0628 7.10047L27.0547 7.10203L22.2209 7.93538C20.7812 8.1835 19.3211 8.1835 17.8815 7.93499L16.0045 7.61109C15.6849 7.55617 15.3825 7.76999 15.3275 8.08882C15.2725 8.40772 15.4863 8.71084 15.8052 8.76584L17.6822 9.08974C19.2538 9.36107 20.8478 9.36115 22.42 9.09013C22.4292 9.08857 27.2558 8.25624 27.2665 8.25436C27.2674 8.25421 27.2683 8.25413 27.269 8.25397L37.1913 6.35735C37.8582 6.23063 38.5113 6.60047 38.7438 7.23875C39.0064 7.95983 38.6302 8.75482 37.9062 9.00912L32.153 11.0303C31.8477 11.1375 31.6871 11.472 31.7944 11.7773C31.9019 12.0831 32.2369 12.2429 32.5414 12.1359L38.2945 10.1147C39.6348 9.64427 40.3312 8.17233 39.8451 6.83781Z" fill="black"/>
</svg>
