<svg width="10" height="10" viewBox="0 0 10 10" fill="none" xmlns="http://www.w3.org/2000/svg">
<path d="M8.53296 1.45787C7.60446 0.520084 6.3324 -0.0091649 5.00464 0.000120148C2.24698 0.000120148 0.00928505 2.23782 0 4.99548C0 7.75314 2.2377 9.99084 4.99536 9.99084C7.75302 9.99084 9.99072 7.75314 10 4.99548C10 3.66772 9.47075 2.39566 8.53296 1.45787ZM7.22377 7.21461C5.99814 8.44023 4.01114 8.44023 2.77623 7.21461C1.5506 5.98898 1.5506 4.00198 2.77623 2.76707C4.00186 1.54144 5.98886 1.54144 7.22377 2.76707C7.80873 3.35202 8.14299 4.15982 8.14299 4.98619C8.15227 5.83113 7.81801 6.62965 7.22377 7.21461Z" fill="black"/>
</svg>
