<svg width="31" height="40" viewBox="0 0 31 40" fill="none" xmlns="http://www.w3.org/2000/svg">
<path d="M21.2989 10.8441V7.59519L24.0178 6.09912C24.2662 5.9624 24.4204 5.70131 24.4204 5.41772C24.4204 5.13421 24.2661 4.87312 24.0176 4.73625L15.586 0.0966979C15.3515 -0.0322066 15.0713 -0.0322847 14.8363 0.0967761L11.0033 2.20604C10.7198 2.36206 10.6165 2.71846 10.7724 3.00197C10.9285 3.28548 11.2847 3.38876 11.5684 3.23283L15.2114 1.22809L22.8253 5.41788C22.2273 5.74694 19.2365 7.3927 18.5536 7.76847L15.6137 4.99187C15.3785 4.76968 15.0076 4.78015 14.7854 5.01554C14.5632 5.25077 14.5738 5.62162 14.8091 5.84381L17.4752 8.36182L15.2081 9.60938C14.9802 9.49056 14.5373 9.24408 13.8736 8.87494C11.6449 7.63511 9.8383 6.63989 7.59982 5.41655L9.47417 4.38516C9.75776 4.22914 9.86103 3.87282 9.7051 3.58931C9.54909 3.30572 9.19261 3.20236 8.90925 3.35837L6.40483 4.73648C6.15648 4.8732 6.00226 5.13429 6.00226 5.4178C6.00226 5.70139 6.15655 5.96248 6.40686 6.10021C7.4338 6.66067 8.33348 7.15348 9.1237 7.58754V10.8448C3.68065 13.2225 0 18.6272 0 24.7886C0 33.1762 6.82381 40 15.2114 40C23.5988 40 30.4226 33.1762 30.4226 24.7886C30.4226 18.5989 26.7058 13.2068 21.2989 10.8441ZM11.2715 15.0252C12.5812 15.4389 13.8963 15.6462 15.2113 15.6462C16.5265 15.6462 17.8418 15.4388 19.1518 15.0249C23.0737 16.6086 25.7385 20.4351 25.7385 24.7886C25.7385 30.5933 21.016 35.3158 15.2113 35.3158C9.40659 35.3158 4.68415 30.5933 4.68415 24.7886C4.68415 20.3979 7.37443 16.5984 11.2715 15.0252ZM13.3039 9.89899C14.1192 10.3526 14.5284 10.5802 14.7521 10.692C14.8793 10.7556 15.0472 10.8397 15.2392 10.8397C15.351 10.8397 15.4709 10.8112 15.5956 10.7337L17.8758 9.47892V12.6025C17.8758 12.9262 18.1381 13.1885 18.4618 13.1885C18.7854 13.1885 19.0477 12.9262 19.0477 12.6025V8.83408L20.1271 8.24011V13.2304C20.1271 13.3404 20.0606 13.4394 19.9578 13.4825C16.8084 14.8006 13.6145 14.8006 10.4649 13.4825C10.362 13.4394 10.2956 13.3405 10.2956 13.2304V8.23237C11.6554 8.98181 12.6119 9.51399 13.3039 9.89899ZM15.2114 38.8281C7.4699 38.8281 1.17186 32.5301 1.17186 24.7886C1.17186 19.2579 4.37744 14.4203 9.1237 12.1361V13.2304C9.1237 13.7198 9.36948 14.166 9.7669 14.4308C6.06117 16.3775 3.51229 20.281 3.51229 24.7886C3.51229 31.2395 8.76042 36.4877 15.2113 36.4877C21.6621 36.4877 26.9103 31.2395 26.9103 24.7886C26.9103 20.3085 24.379 16.3877 20.656 14.4306C21.0532 14.1658 21.2989 13.7196 21.2989 13.2304V12.1355C26.0415 14.4192 29.2508 19.2642 29.2508 24.7886C29.2508 32.53 22.9527 38.8281 15.2114 38.8281Z" fill="black"/>
</svg>
