<svg width="17" height="5" viewBox="0 0 17 5" fill="none" xmlns="http://www.w3.org/2000/svg">
<path d="M15.0063 1.25C14.7878 1.25066 14.5734 1.30875 14.3845 1.41845C14.1956 1.52815 14.0389 1.6856 13.93 1.875H13.0425C12.9044 1.33991 12.5928 0.865678 12.1565 0.526438C11.7203 0.187198 11.1839 0.00207109 10.6313 0H5.63128C5.07864 0.00207109 4.54227 0.187198 4.10601 0.526438C3.66975 0.865678 3.35818 1.33991 3.22003 1.875H2.33253C2.19495 1.6367 1.98258 1.45045 1.72835 1.34515C1.47413 1.23985 1.19227 1.22137 0.926477 1.29259C0.660686 1.36381 0.425821 1.52074 0.25831 1.73905C0.0907982 1.95735 0 2.22483 0 2.5C0 2.77517 0.0907982 3.04265 0.25831 3.26095C0.425821 3.47926 0.660686 3.63619 0.926477 3.70741C1.19227 3.77863 1.47413 3.76015 1.72835 3.65485C1.98258 3.54955 2.19495 3.3633 2.33253 3.125H3.22003C3.35818 3.66009 3.66975 4.13432 4.10601 4.47356C4.54227 4.8128 5.07864 4.99793 5.63128 5H10.6313C11.1839 4.99793 11.7203 4.8128 12.1565 4.47356C12.5928 4.13432 12.9044 3.66009 13.0425 3.125H13.93C14.0399 3.31525 14.1979 3.4732 14.3882 3.58292C14.5786 3.69264 14.7944 3.75026 15.0141 3.74998C15.2338 3.74971 15.4495 3.69154 15.6396 3.58133C15.8296 3.47113 15.9873 3.31279 16.0966 3.12226C16.206 2.93173 16.2632 2.71574 16.2625 2.49606C16.2618 2.27637 16.2033 2.06075 16.0927 1.87091C15.9822 1.68107 15.8235 1.52372 15.6328 1.41472C15.442 1.30571 15.226 1.2489 15.0063 1.25ZM10.6313 3.75H5.63128C5.29976 3.75 4.98181 3.6183 4.74739 3.38388C4.51297 3.14946 4.38128 2.83152 4.38128 2.5C4.38128 2.16848 4.51297 1.85054 4.74739 1.61612C4.98181 1.3817 5.29976 1.25 5.63128 1.25H10.6313C10.9628 1.25 11.2807 1.3817 11.5152 1.61612C11.7496 1.85054 11.8813 2.16848 11.8813 2.5C11.8813 2.83152 11.7496 3.14946 11.5152 3.38388C11.2807 3.6183 10.9628 3.75 10.6313 3.75Z" fill="black"/>
</svg>
