<svg width="40" height="32" viewBox="0 0 40 32" fill="none" xmlns="http://www.w3.org/2000/svg">
<path d="M39.6547 0.749697C39.5936 0.40968 39.3162 0.150274 38.973 0.111843C38.6181 0.0721628 30.419 -0.797134 27.2922 3.03272C26.1725 2.41721 24.9988 1.93464 23.7977 1.6029C23.3823 1.48824 22.9517 1.73202 22.8368 2.14788C22.722 2.56367 22.966 2.9939 23.3819 3.10873C29.78 4.8756 34.7919 11.1718 34.7919 17.4428C34.7919 25.5422 27.3507 29.7799 20.0001 29.7799C12.6496 29.7799 5.20825 25.5422 5.20825 17.4428C5.20825 11.164 10.2264 4.86599 16.6325 3.10474C17.0485 2.99039 17.293 2.56047 17.1787 2.14453C17.0642 1.72851 16.6339 1.48386 16.2185 1.59845C15.0118 1.93019 13.8325 2.41424 12.7078 3.03249C9.58091 -0.797135 1.38207 0.0720847 1.02713 0.111843C0.683911 0.150274 0.406539 0.40968 0.3453 0.749697C0.298043 1.01231 -0.790122 7.23213 1.1582 11.6848C1.54188 12.5619 2.74393 14.1531 3.88107 14.9011C3.72547 15.7467 3.64588 16.5971 3.64588 17.4429C3.64588 19.5393 4.10666 21.5064 5.01555 23.2896C5.86993 24.966 7.09846 26.4417 8.66709 27.6757C11.6724 30.0401 15.6971 31.3422 19.9999 31.3422C24.3027 31.3422 28.3274 30.0401 31.3327 27.6757C32.9013 26.4416 34.1299 24.966 34.9842 23.2896C35.8931 21.5064 36.3539 19.5393 36.3539 17.4429C36.3539 16.5972 36.2742 15.7468 36.1187 14.9012C37.2559 14.1532 38.458 12.562 38.8417 11.6849C40.7901 7.23213 39.702 1.01231 39.6547 0.749697ZM6.00069 9.44743C4.71873 7.69119 4.72475 6.02086 4.82903 5.2221C5.54179 5.20077 6.94146 5.31419 8.45876 6.28675C8.09281 6.66403 7.74124 7.05841 7.40583 7.46896C6.88662 8.10424 6.41749 8.76584 6.00069 9.44743ZM2.58943 11.0585C1.15859 7.78851 1.58328 3.22621 1.79543 1.61657C3.61354 1.50027 9.10568 1.37427 11.3575 3.85695C10.7569 4.26172 10.1769 4.70602 9.62215 5.18671C6.8 3.20285 4.13931 3.71276 4.02339 3.73627C3.74453 3.7929 3.51848 3.99677 3.43342 4.26836C3.38936 4.40904 2.4029 7.70071 5.18888 10.9353C4.82504 11.6898 4.52283 12.4619 4.28514 13.2437C3.5762 12.6123 2.83321 11.6157 2.58943 11.0585ZM31.5409 6.28683C33.059 5.31255 34.4551 5.19851 35.1697 5.22147C35.2722 6.01945 35.2773 7.69408 33.999 9.44743C33.5836 8.76818 33.1162 8.10877 32.5993 7.47552C32.2623 7.0627 31.9089 6.66613 31.5409 6.28683ZM37.4106 11.0586C37.1668 11.6157 36.4237 12.6123 35.7148 13.2438C35.4771 12.462 35.1749 11.69 34.811 10.9354C37.5972 7.70079 36.6107 4.40896 36.5666 4.26828C36.4815 3.99669 36.2556 3.7929 35.9766 3.73619C35.8609 3.71268 33.1999 3.20277 30.3776 5.18687C29.8228 4.70617 29.2428 4.26188 28.6423 3.85711C30.8944 1.37365 36.3882 1.50019 38.205 1.61657C38.4181 3.22503 38.8444 7.78187 37.4106 11.0586Z" fill="black"/>
</svg>
