<svg width="39" height="22" viewBox="0 0 39 22" fill="none" xmlns="http://www.w3.org/2000/svg">
<path d="M38.5234 0.0859111L25.1124 0.0162218C24.9816 0.0148308 24.8555 0.0648847 24.7612 0.1556C24.6679 0.244477 24.6134 0.36655 24.6095 0.495345V2.64086L20.8576 2.63759V0.487362C20.8588 0.425078 20.8477 0.363176 20.8247 0.305257C20.8018 0.247338 20.7676 0.194558 20.724 0.149988C20.6805 0.105417 20.6286 0.0699468 20.5712 0.0456394C20.5138 0.0213319 20.4522 0.0086722 20.3899 0.00839814L12.9376 0.00041614C12.9288 -0.000351362 12.92 -5.64192e-05 12.9112 0.00129437C7.76907 0.308869 3.63992 4.22919 2.92196 9.20618C2.6417 9.01388 2.31425 8.90176 1.97494 8.88194C1.63563 8.86212 1.29735 8.93535 0.996611 9.09372C0.695874 9.25209 0.4441 9.48959 0.268464 9.78058C0.0928275 10.0716 0 10.405 0 10.7449C0 11.0848 0.0928275 11.4182 0.268464 11.7092C0.4441 12.0002 0.695874 12.2377 0.996611 12.3961C1.29735 12.5544 1.63563 12.6277 1.97494 12.6078C2.31425 12.588 2.6417 12.4759 2.92196 12.2836C3.66802 17.5003 8.16661 21.5239 13.5886 21.5239C15.0006 21.5287 16.3997 21.2549 17.7056 20.718C19.0116 20.1812 20.1988 19.3918 21.1991 18.3952C22.1994 17.3986 22.9932 16.2144 23.5349 14.9105C24.0767 13.6065 24.3558 12.2084 24.3561 10.7964C24.3561 10.7555 24.3561 10.7532 24.3557 10.6733H37.5632C37.6815 10.6743 37.796 10.6311 37.8842 10.5521C37.9723 10.4731 38.0278 10.364 38.0397 10.2463L38.9977 0.609978C39.0042 0.54374 38.9969 0.47686 38.9761 0.41364C38.9552 0.350419 38.9214 0.292258 38.8767 0.242897C38.8321 0.193536 38.7776 0.154068 38.7168 0.127031C38.6559 0.0999937 38.5901 0.0859869 38.5236 0.0859111H38.5234ZM1.8676 11.653C1.68789 11.653 1.51223 11.5998 1.36281 11.4999C1.21339 11.4001 1.09693 11.2582 1.02816 11.0922C0.959395 10.9261 0.941402 10.7434 0.976461 10.5672C1.01152 10.3909 1.09805 10.229 1.22512 10.102C1.35219 9.97491 1.51409 9.88837 1.69034 9.85332C1.86659 9.81826 2.04928 9.83625 2.2153 9.90502C2.38132 9.97379 2.52323 10.0902 2.62307 10.2397C2.7229 10.3891 2.77619 10.5647 2.77619 10.7445C2.77592 10.9853 2.6801 11.2163 2.50977 11.3866C2.33943 11.557 2.10849 11.6528 1.8676 11.653ZM32.5922 9.7154H23.858C23.7912 9.71642 23.7252 9.73122 23.6644 9.75887C23.6035 9.78651 23.5489 9.82641 23.5042 9.87608C23.4594 9.92575 23.4254 9.98411 23.4042 10.0475C23.383 10.1109 23.3751 10.1781 23.381 10.2447C23.3925 10.3697 23.3982 10.5572 23.3982 10.7998C23.3973 12.0857 23.1426 13.3588 22.6488 14.5461C22.1549 15.7334 21.4316 16.8116 20.5203 17.7188C19.609 18.6261 18.5276 19.3445 17.3381 19.8331C16.1485 20.3216 14.8743 20.5705 13.5884 20.5657C8.17467 20.5657 3.77036 16.1635 3.77036 10.7524C3.77036 5.57324 7.79366 1.27398 12.946 0.958344L19.8997 0.965847V3.11608C19.9012 3.17871 19.9151 3.24042 19.9406 3.29767C19.9661 3.35492 20.0026 3.40657 20.0481 3.44967C20.0935 3.49276 20.1471 3.52645 20.2056 3.54879C20.2641 3.57114 20.3265 3.5817 20.3891 3.57987L25.1097 3.5687C25.17 3.57139 25.2302 3.5617 25.2865 3.54021C25.3429 3.51872 25.3943 3.4859 25.4375 3.44377C25.4803 3.40169 25.514 3.35122 25.5363 3.29551C25.5587 3.2398 25.5693 3.18007 25.5674 3.12007V0.976625L32.5922 1.01318V9.7154ZM37.1294 9.7154H33.5502V1.01813L37.9817 1.03657L37.1294 9.7154Z" fill="black"/>
</svg>
