<svg width="4" height="14" viewBox="0 0 4 14" fill="none" xmlns="http://www.w3.org/2000/svg">
<path d="M1.63424e-05 12.0852C-0.00143217 12.4351 0.0934372 12.7787 0.274236 13.0783C0.455034 13.3779 0.71479 13.622 1.02506 13.7838C1.33533 13.9457 1.68414 14.019 2.03331 13.9958C2.38248 13.9726 2.71853 13.8538 3.00467 13.6524C3.29082 13.4509 3.51601 13.1746 3.6556 12.8537C3.79518 12.5328 3.84378 12.1797 3.79606 11.833C3.74835 11.4864 3.60616 11.1595 3.38507 10.8883C3.16398 10.617 2.87252 10.4118 2.5426 10.2952V3.70482C2.96671 3.55487 3.32416 3.25982 3.55177 2.87181C3.77938 2.48381 3.8625 2.02783 3.78643 1.58447C3.71036 1.14111 3.48 0.738916 3.13607 0.448971C2.79215 0.159026 2.35679 0 1.90695 0C1.45711 0 1.02176 0.159026 0.677831 0.448971C0.333903 0.738916 0.103547 1.14111 0.027479 1.58447C-0.0485896 2.02783 0.0345262 2.48381 0.262136 2.87181C0.489747 3.25982 0.847196 3.55487 1.27131 3.70482V10.2952C0.900784 10.4262 0.579783 10.6685 0.35222 10.9889C0.124656 11.3093 0.00164548 11.6922 1.63424e-05 12.0852ZM1.90695 12.7208C1.78123 12.7208 1.65834 12.6835 1.55381 12.6137C1.44928 12.5438 1.3678 12.4446 1.31969 12.3284C1.27158 12.2123 1.25899 12.0845 1.28352 11.9612C1.30805 11.8379 1.36859 11.7246 1.45748 11.6357C1.54638 11.5468 1.65964 11.4863 1.78294 11.4617C1.90625 11.4372 2.03406 11.4498 2.1502 11.4979C2.26635 11.546 2.36563 11.6275 2.43547 11.732C2.50532 11.8366 2.5426 11.9595 2.5426 12.0852C2.5426 12.2538 2.47563 12.4154 2.35642 12.5346C2.23722 12.6538 2.07554 12.7208 1.90695 12.7208ZM1.90695 1.27919C2.03267 1.27919 2.15557 1.31647 2.2601 1.38632C2.36463 1.45616 2.4461 1.55544 2.49421 1.67159C2.54232 1.78773 2.55491 1.91554 2.53038 2.03884C2.50586 2.16215 2.44532 2.27541 2.35642 2.36431C2.26753 2.4532 2.15426 2.51374 2.03096 2.53827C1.90766 2.5628 1.77985 2.55021 1.6637 2.5021C1.54755 2.45399 1.44828 2.37251 1.37843 2.26798C1.30859 2.16345 1.27131 2.04056 1.27131 1.91484C1.27131 1.74625 1.33828 1.58457 1.45748 1.46537C1.57669 1.34616 1.73837 1.27919 1.90695 1.27919Z" fill="black"/>
</svg>
