<svg width="40" height="40" viewBox="0 0 40 40" fill="none" xmlns="http://www.w3.org/2000/svg">
<path d="M39.6847 18.2192L31.6584 11.2533V0.914158C31.6584 0.411371 31.2471 0 30.7443 0H24.6194C24.1166 0 23.7053 0.411371 23.7053 0.914158V3.98573L20.9171 1.63634C20.5789 1.35295 20.0761 1.35295 19.7378 1.63634L0.321121 18.21C-0.0445418 18.5208 -0.108533 19.0693 0.183998 19.4533L1.9209 21.7752C2.22257 22.1775 2.79849 22.2597 3.20072 21.9581C3.22814 21.9398 3.25557 21.9124 3.28299 21.8849L3.7675 21.4187V38.8517C3.7675 39.3545 4.17887 39.7659 4.68165 39.7659H35.0317C35.5345 39.7659 35.9458 39.3545 35.9458 38.8517V21.3182L36.5675 21.8849C36.9423 22.2232 37.5182 22.2049 37.8564 21.8301C37.8656 21.8209 37.8839 21.8027 37.893 21.7935L39.7944 19.4898C40.1053 19.115 40.0596 18.5483 39.6847 18.2192ZM37.0977 19.8829L35.6625 18.5574C35.2877 18.2192 34.7117 18.2374 34.3735 18.6122C34.2181 18.7768 34.1358 19.0053 34.1358 19.2339V37.9375H5.60495V19.2704C5.60495 18.7677 5.19358 18.3563 4.69079 18.3563C4.45311 18.3563 4.22457 18.4477 4.06003 18.6122L2.77106 19.8464L2.16772 19.0419L20.332 3.53779L24.0344 6.65507C24.4183 6.98416 24.9942 6.92931 25.3233 6.54537C25.4605 6.38082 25.5336 6.17056 25.5336 5.96031V1.82832H29.8301V11.6646C29.8301 11.9298 29.949 12.1766 30.1409 12.3503L37.8107 19.0145L37.0977 19.8829Z" fill="black"/>
</svg>
