<svg width="13" height="13" viewBox="0 0 13 13" fill="none" xmlns="http://www.w3.org/2000/svg">
<path d="M6.32634 0.000161188C3.27715 0.000161188 0.712935 2.1247 0.0148401 4.96584C-0.00321778 5.03701 -0.00481785 5.11136 0.0101616 5.18325C0.0251411 5.25513 0.0563057 5.32265 0.101289 5.38069C0.146272 5.43873 0.20389 5.48575 0.269766 5.51818C0.335642 5.55062 0.408043 5.56761 0.48147 5.56787H0.483401C0.591148 5.56807 0.695825 5.532 0.780574 5.46546C0.865324 5.39892 0.925212 5.3058 0.950595 5.20109C1.23716 3.99239 1.92405 2.91613 2.89965 2.14719C3.87525 1.37825 5.08221 0.961832 6.32441 0.965605C9.28582 0.964639 11.7524 3.33094 11.8573 6.29019C11.9686 9.43198 9.44448 12.0395 6.32634 12.0395C5.14675 12.0385 3.99821 11.6614 3.04763 10.963C2.09705 10.2645 1.39396 9.28115 1.04054 8.15575C1.00143 8.03439 0.915794 7.93349 0.802413 7.87515C0.689033 7.81682 0.557152 7.80582 0.435671 7.84455C0.314191 7.88328 0.21302 7.96859 0.15433 8.08179C0.09564 8.19499 0.084218 8.32683 0.122567 8.44844C0.991465 11.1694 3.66848 13.1939 6.76449 12.9852C8.44699 12.8721 10.0197 12.1095 11.1504 10.8585C12.2812 9.60752 12.8815 7.96604 12.8247 6.28069C12.7678 4.59534 12.0582 2.99807 10.8456 1.82615C9.63308 0.654242 8.01256 -0.000567691 6.32626 3.69293e-07L6.32634 0.000161188Z" fill="black"/>
</svg>
