<svg width="24" height="18" viewBox="0 0 24 18" fill="none" xmlns="http://www.w3.org/2000/svg">
<path d="M6.76608 0.00552976C4.98306 0.0699922 3.30459 0.742487 2.03979 1.89906C0.750627 3.07797 0.026464 4.63158 0.000711659 6.27387C-0.0242257 7.86905 0.606952 9.40261 1.77795 10.592C3.11618 11.9514 5.03994 12.731 7.05596 12.731C7.85444 12.731 8.63508 12.6119 9.37318 12.3808C9.37456 13.5435 10.1352 14.5317 11.1851 14.8752V15.2311C11.1851 15.7478 10.7649 16.1682 10.2484 16.1682C9.732 16.1682 9.31181 15.7478 9.31181 15.2311C9.31181 14.7811 8.94696 14.4162 8.49687 14.4162C8.04677 14.4162 7.68192 14.7811 7.68192 15.2311C7.68192 16.6465 8.8332 17.798 10.2484 17.798C10.9249 17.798 11.541 17.5349 12 17.1057C12.459 17.5349 13.0752 17.798 13.7516 17.798C15.1667 17.798 16.3181 16.6465 16.3181 15.2311C16.3181 14.7811 15.9532 14.4162 15.5031 14.4162C15.053 14.4162 14.6882 14.7811 14.6882 15.2311C14.6882 15.7478 14.268 16.1682 13.7516 16.1682C13.2351 16.1682 12.8149 15.7478 12.8149 15.2311V14.8752C13.8648 14.5317 14.6255 13.5435 14.6268 12.3808C15.365 12.612 16.1456 12.731 16.944 12.731C18.96 12.731 20.8837 11.9514 22.2221 10.592C23.393 9.40253 24.0242 7.86905 23.9993 6.27387C23.9736 4.63167 23.2495 3.07797 21.9603 1.89906C20.6955 0.742487 19.017 0.0699922 17.234 0.00552976C15.6597 -0.0515166 14.152 0.349438 12.8735 1.16463C12.3591 1.4924 11.6408 1.49248 11.1265 1.16463C9.84805 0.349357 8.33942 -0.0526575 6.76608 0.00552976ZM12 13.3746C11.4502 13.3746 11.0031 12.9273 11.0031 12.3777C11.0031 11.828 11.4503 11.3807 12 11.3807C12.5498 11.3807 12.9969 11.828 12.9969 12.3777C12.997 12.9273 12.5498 13.3746 12 13.3746ZM13.7499 2.53888C14.7482 1.90224 15.9324 1.5906 17.1752 1.63429C20.0487 1.73819 22.3304 3.78738 22.3696 6.29929C22.3877 7.45432 21.9229 8.57284 21.0606 9.44858C20.0267 10.4989 18.5263 11.1011 16.9441 11.1011C15.7882 11.1011 14.6848 10.7876 13.7531 10.1945C13.2287 9.86062 12.6145 9.69372 12 9.69372C11.3857 9.69372 10.7711 9.8607 10.247 10.1945C9.31524 10.7876 8.2118 11.1011 7.05588 11.1011C5.47374 11.1011 3.97334 10.4988 2.93941 9.44858C2.0772 8.57284 1.61227 7.45432 1.63036 6.29929C1.66964 3.78738 3.95133 1.73819 6.82484 1.63429C8.06739 1.5902 9.25167 1.90216 10.2501 2.53888C11.2969 3.20624 12.7032 3.20624 13.7499 2.53888Z" fill="black"/>
</svg>
