<svg width="13" height="10" viewBox="0 0 13 10" fill="none" xmlns="http://www.w3.org/2000/svg">
<path d="M10.076 9.57079C9.74737 9.57079 9.41832 9.51703 9.10392 9.40838C8.81762 9.30949 8.52171 9.20524 8.23322 9.10245C7.1154 8.70432 5.88444 8.70424 4.76654 9.10237C4.47821 9.20516 4.1823 9.30941 3.89608 9.40821C3.1342 9.67146 2.28549 9.61257 1.56751 9.2467C0.848791 8.88033 0.324335 8.25602 0.0908173 7.48868C0.0297297 7.2875 0 7.11099 0 6.94891C0 4.54939 0.463289 2.90622 1.45796 1.77781C2.51249 0.581471 4.16177 0 6.49996 0C8.97735 0 10.6155 0.57398 11.6553 1.80648C12.5853 2.90866 13 4.49466 13 6.94891C13 7.11099 12.9703 7.2875 12.9092 7.48852C12.6757 8.25602 12.1512 8.88033 11.4326 9.2467C11.0109 9.46172 10.5439 9.57079 10.076 9.57079ZM6.49996 7.1751C7.27243 7.1751 8.04474 7.30599 8.77991 7.56793C9.0636 7.66893 9.35462 7.77147 9.63603 7.86864C9.98708 7.98992 10.3623 7.96386 10.6929 7.79534C11.0137 7.63187 11.2474 7.35453 11.3508 7.01448C11.3643 6.97025 11.3694 6.945 11.3712 6.93482C11.3686 2.86924 10.2287 1.629 6.50012 1.629C2.90809 1.629 1.63218 3.01797 1.62908 6.93482C1.63079 6.945 1.63593 6.97025 1.64945 7.01456C1.75289 7.35445 1.98657 7.63179 2.30732 7.79526C2.63792 7.96378 3.01316 7.98984 3.36421 7.86848C3.64546 7.77131 3.9364 7.66876 4.21993 7.56777C4.95501 7.30607 5.72757 7.1751 6.49996 7.1751Z" fill="black"/>
</svg>
