<svg width="7" height="4" viewBox="0 0 7 4" fill="none" xmlns="http://www.w3.org/2000/svg">
<path d="M1.38212 3.86863H5.61788C6.37999 3.86863 7 3.24853 7 2.48642V1.38221C7 0.620094 6.37999 0 5.61788 0H1.38212C0.620009 0 0 0.620094 0 1.38221V2.48642C0 3.24853 0.620009 3.86863 1.38212 3.86863ZM1.2942 1.38221C1.2942 1.33372 1.33363 1.2942 1.38212 1.2942H5.61788C5.66637 1.2942 5.7058 1.33363 5.7058 1.38221V2.48642C5.7058 2.53491 5.66637 2.57443 5.61788 2.57443H1.38212C1.33363 2.57443 1.2942 2.535 1.2942 2.48642V1.38221Z" fill="black"/>
</svg>
