<svg width="7" height="5" viewBox="0 0 7 5" fill="none" xmlns="http://www.w3.org/2000/svg">
<path d="M0.52486 0.00146328C0.396781 -0.00848262 0.269958 0.0325658 0.171997 0.115674C0.0740365 0.198782 0.0128688 0.317221 0.00180971 0.445209C-0.0092494 0.573197 0.0306946 0.700373 0.112948 0.799053C0.195201 0.897732 0.313103 0.959928 0.44099 0.9721C1.58469 1.0754 2.68944 1.43973 3.67022 2.03705C4.651 2.63437 5.48167 3.44875 6.09828 4.41751C6.13214 4.47238 6.17655 4.51998 6.22894 4.55756C6.28133 4.59514 6.34066 4.62194 6.40348 4.63641C6.46631 4.65089 6.53138 4.65275 6.59493 4.64189C6.65849 4.63102 6.71925 4.60765 6.7737 4.57313C6.82815 4.53861 6.87521 4.49362 6.91214 4.44077C6.94908 4.38793 6.97515 4.32828 6.98886 4.26528C7.00257 4.20228 7.00364 4.13719 6.992 4.07377C6.98036 4.01036 6.95625 3.94989 6.92107 3.89586C6.22386 2.80071 5.28466 1.88012 4.17577 1.20496C3.06689 0.529802 1.81787 0.118073 0.52486 0.00146328Z" fill="black"/>
</svg>
