<svg width="12" height="16" viewBox="0 0 12 16" fill="none" xmlns="http://www.w3.org/2000/svg">
<path d="M1.45229 6.22426C0.60103 7.20087 0.0949118 8.43053 0.012076 9.72341C-0.0707598 11.0163 0.274294 12.3005 0.993965 13.3777C1.71364 14.455 2.7679 15.2654 3.994 15.6838C5.22009 16.1023 6.54984 16.1054 7.77793 15.6929C9.00602 15.2804 10.0642 14.475 10.789 13.4013C11.5138 12.3275 11.8651 11.045 11.7884 9.75169C11.7118 8.45843 11.2116 7.22635 10.365 6.24567C9.51848 5.26499 8.37264 4.59025 7.10443 4.32561L6.37894 0.399004C6.35822 0.286946 6.29892 0.185682 6.21132 0.112795C6.12372 0.0399078 6.01336 0 5.8994 0C5.78544 0 5.67509 0.0399078 5.58749 0.112795C5.49989 0.185682 5.44058 0.286946 5.41986 0.399004L4.6943 4.32602C3.43568 4.58867 2.2973 5.25521 1.45229 6.22426ZM4.71153 9.60144L5.8994 3.17179L7.08728 9.60176C7.11945 9.77602 7.11289 9.95523 7.06805 10.1267C7.02322 10.2981 6.94122 10.4576 6.82786 10.5938C6.7145 10.73 6.57256 10.8396 6.4121 10.9148C6.25165 10.99 6.07661 11.029 5.8994 11.029C5.72219 11.029 5.54716 10.99 5.3867 10.9148C5.22625 10.8396 5.08431 10.73 4.97095 10.5938C4.85759 10.4576 4.77558 10.2981 4.73075 10.1267C4.68592 9.95523 4.67936 9.77602 4.71153 9.60176V9.60144ZM4.49972 5.37938L3.75237 9.42425C3.69414 9.73926 3.70594 10.0632 3.78694 10.3732C3.86793 10.6831 4.01614 10.9714 4.22103 11.2176C4.42593 11.4639 4.6825 11.662 4.97255 11.798C5.2626 11.934 5.57902 12.0045 5.89936 12.0045C6.2197 12.0045 6.53612 11.934 6.82617 11.798C7.11622 11.662 7.37279 11.4639 7.57769 11.2176C7.78259 10.9714 7.93079 10.6831 8.01179 10.3732C8.09278 10.0632 8.10458 9.73926 8.04635 9.42425L7.299 5.37889C8.43384 5.71508 9.40965 6.44874 10.0478 7.44557C10.6859 8.44239 10.9437 9.6357 10.774 10.8071C10.6042 11.9784 10.0183 13.0495 9.12342 13.8241C8.22856 14.5988 7.08463 15.0253 5.90104 15.0255C4.71745 15.0257 3.57338 14.5996 2.67825 13.8252C1.78311 13.0509 1.1968 11.9801 1.02665 10.8088C0.856487 9.63746 1.11386 8.44406 1.75166 7.44701C2.38945 6.44996 3.365 5.71597 4.49972 5.37938Z" fill="black"/>
</svg>
