<svg width="40" height="40" viewBox="0 0 40 40" fill="none" xmlns="http://www.w3.org/2000/svg">
<path d="M34.1417 5.85511C30.4031 2.09918 25.3113 -0.00864753 20.0027 2.66665e-05C8.96045 2.66665e-05 0 8.96047 0 20.0027C0 25.3113 2.10783 30.3944 5.85509 34.1417C13.6619 41.9484 26.3262 41.9484 34.1417 34.1417C41.9571 26.3349 41.9484 13.6706 34.1417 5.85511ZM7.33837 33.1528C8.85636 31.4874 10.6693 30.1342 12.699 29.154C19.4996 25.8838 27.6447 27.5146 32.6584 33.1528C25.5976 39.9707 14.3992 39.9707 7.33837 33.1528ZM33.8554 31.895C28.3126 25.7624 19.3955 24.0189 11.9531 27.5926C9.76715 28.6422 7.78943 30.1082 6.14134 31.8864C3.2962 28.5815 1.72617 24.3658 1.73484 20.0027C1.73484 9.93198 9.93196 1.73487 20.0027 1.73487C30.0735 1.73487 38.2706 9.93198 38.2706 20.0027C38.2706 24.3658 36.7092 28.5902 33.8554 31.895Z" fill="black"/>
</svg>
