<svg width="10" height="10" viewBox="0 0 10 10" fill="none" xmlns="http://www.w3.org/2000/svg">
<path d="M9.75625 1.90992C8.77293 0.928321 6.868 0 5.83305 0C1.53158 0 0 2.15319 0 4.16647C0 5.99303 1.64829 6.783 2.97324 7.41797C4.23483 8.02131 4.9998 8.44129 4.9998 9.16626C4.9998 9.62624 5.37314 9.99958 5.83313 9.99958C6.29311 9.99958 6.66645 9.62624 6.66645 9.16626C6.66645 7.33969 5.01816 6.54973 3.69321 5.91475C2.43162 5.31142 1.66665 4.89144 1.66665 4.16647C1.66665 2.57817 3.18495 1.66657 5.83313 1.66657C6.33146 1.66657 7.81969 2.33154 8.57802 3.08815C8.903 3.41314 9.43134 3.41314 9.75633 3.08815C10.0812 2.76317 10.0812 2.23491 9.75625 1.90992Z" fill="black"/>
</svg>
