<svg width="34" height="40" viewBox="0 0 34 40" fill="none" xmlns="http://www.w3.org/2000/svg">
<path d="M33.353 13.7695C32.8932 10.9973 31.9478 8.59498 30.543 6.62926C27.3996 2.2304 21.9947 0 14.4787 0H14.4778C8.23836 0 3.43044 1.54681 0.187765 4.59745C-0.360207 5.15003 0.408626 5.96543 0.992223 5.45261C4.00998 2.61361 8.54712 1.17415 14.4786 1.17415C21.592 1.17415 26.6747 3.23815 29.5855 7.3088C32.5419 11.4432 32.7311 16.9695 32.3692 20.8775C31.9733 25.1527 30.8493 28.4785 30.838 28.5116C30.8062 28.6047 30.7982 28.7043 30.8149 28.8012C31.0307 30.0531 30.9015 31.3407 30.441 32.5247L29.1952 35.7282C28.5703 37.3351 27.1829 38.4565 25.5336 38.7498L25.5947 38.5823C25.595 38.5814 25.5954 38.5806 25.5957 38.5797L29.2847 28.4643C29.2848 28.4638 29.2851 28.4633 29.2852 28.4628L30.1123 26.195C30.1159 26.1852 30.1191 26.1754 30.1222 26.1654C30.2133 25.8672 32.3306 18.7894 30.2941 12.4508C30.1948 12.1421 29.8636 11.9722 29.5555 12.0714C29.2468 12.1706 29.077 12.5013 29.1762 12.8099C31.058 18.6668 29.1055 25.4626 29.0033 25.8088L28.5272 27.1143L26.3836 24.6282C26.3164 24.5512 26.2292 24.4916 26.1326 24.4573L23.8338 23.6189C23.0992 23.3509 22.3042 23.3852 21.5953 23.7152C20.8865 24.0452 20.3484 24.6315 20.0806 25.3661L16.558 35.0251C16.2901 35.7597 16.3243 36.5547 16.6543 37.2635C16.9843 37.9724 17.5706 38.5104 18.3053 38.7783L20.6115 39.6194C20.7056 39.6523 20.8077 39.6641 20.906 39.6474L24.1469 39.1251L24.1153 39.2116C23.9695 39.5791 24.2717 40.0109 24.6669 39.9998C25.8877 39.9998 27.0655 39.6355 28.0731 38.9462C29.0807 38.257 29.8472 37.2913 30.2897 36.1534L31.5355 32.95C32.0551 31.6136 32.2135 30.1643 31.9961 28.7489C32.2216 28.0534 33.1685 24.9611 33.537 21.0008C33.7792 18.3987 33.7172 15.9657 33.353 13.7695ZM17.7188 36.7683C17.5212 36.3438 17.5007 35.8676 17.6612 35.4277L21.1838 25.7687C21.3442 25.3287 21.6664 24.9776 22.091 24.7799C22.5156 24.5823 22.9916 24.5618 23.4316 24.7222L25.1864 25.3621L20.4623 38.3155L18.7076 37.6756C18.2676 37.515 17.9166 37.1928 17.7188 36.7683ZM21.7071 38.3293L26.1479 26.1528L28.0665 28.378L24.6078 37.8618L21.7071 38.3293Z" fill="black"/>
</svg>
