<svg width="13" height="13" viewBox="0 0 13 13" fill="none" xmlns="http://www.w3.org/2000/svg">
<path d="M8.57666 8.81795C8.67718 8.76377 8.76348 8.67786 8.81688 8.57687L12.9304 0.866132C13.0524 0.637382 13.0105 0.355706 12.8273 0.172502C12.6438 -0.0108595 12.3621 -0.0526368 12.1336 0.069316L4.42509 4.18296C4.32355 4.23754 4.23702 4.32353 4.18283 4.4253L0.0694197 12.1338C-0.0526901 12.3624 -0.010836 12.6441 0.172368 12.8274C0.285604 12.9407 0.436455 13 0.58919 13C0.683502 13 0.778599 12.9774 0.866 12.9308L4.72161 10.8761L8.5747 8.81929C8.57533 8.8189 8.57596 8.81835 8.57666 8.81795ZM8.15183 7.32099L5.68042 4.84801L10.9798 2.01977L8.15183 7.32099ZM2.01972 10.9811L4.84764 5.68142L7.31897 8.15432L2.01972 10.9811Z" fill="black"/>
</svg>
