<svg width="29" height="29" viewBox="0 0 29 29" fill="none" xmlns="http://www.w3.org/2000/svg">
<path d="M14.3827 0.00045507C7.94667 0.0512897 2.49681 4.30146 0.661323 10.1758C0.639258 10.2467 0.63416 10.3217 0.64644 10.3949C0.658719 10.4681 0.688033 10.5374 0.732015 10.5972C0.775997 10.6569 0.833415 10.7055 0.899636 10.739C0.965857 10.7725 1.03903 10.79 1.11324 10.79C1.2135 10.7902 1.3112 10.7583 1.39212 10.6991C1.47305 10.64 1.53297 10.5565 1.56318 10.4609C3.29062 4.95033 8.4443 0.938808 14.5148 0.945585C21.9615 0.953861 28.0475 7.03605 28.0539 14.4827C28.0602 21.9621 21.9773 28.046 14.4996 28.046C7.02574 28.046 0.945367 21.9749 0.945367 14.5011C0.945367 14.1679 0.957898 13.8312 0.981936 13.5064C0.986998 13.4414 0.978573 13.3761 0.95719 13.3145C0.935807 13.253 0.901929 13.1965 0.85768 13.1486C0.813431 13.1008 0.759769 13.0626 0.70006 13.0364C0.640351 13.0103 0.575886 12.9968 0.51071 12.9968C0.391229 12.9967 0.276145 13.0419 0.188595 13.1232C0.101044 13.2045 0.047518 13.3159 0.0387759 13.4351C0.0131616 13.7818 0 14.1426 0 14.4998C0 22.4951 6.50471 28.9944 14.5 28.9944C22.5168 28.9944 29.035 22.4574 28.9999 14.4325C28.9645 6.43431 22.3809 -0.0625956 14.3827 0.00045507Z" fill="black"/>
</svg>
