<svg width="39" height="30" viewBox="0 0 39 30" fill="none" xmlns="http://www.w3.org/2000/svg">
<path d="M38.2324 24.4494L35.5753 8.62577C35.5735 8.61566 35.5716 8.60562 35.5694 8.59566C35.1954 5.97184 33.4298 3.82516 31.0871 2.86218V1.76822C31.0871 0.793239 30.294 0 29.3189 0H27.0962C26.1213 0 25.328 0.793239 25.328 1.76822V2.95153C24.5439 3.30363 23.8209 3.79536 23.1901 4.41744H13.249C12.6182 3.79536 11.8953 3.30363 11.1111 2.95153V1.76822C11.1111 0.793239 10.318 0 9.34292 0H7.12024C6.14526 0 5.35202 0.793239 5.35202 1.76822V2.86226C3.00964 3.82516 1.24417 5.97161 0.869941 8.59511C0.867667 8.60522 0.865706 8.61542 0.86398 8.62577L0.00822695 13.7215C-0.0456596 14.0426 0.170828 14.3465 0.491873 14.4004C0.812918 14.4541 1.11686 14.2378 1.17075 13.9168L2.01827 8.86948C2.02368 8.84799 2.02799 8.82603 2.03097 8.80375C2.4412 5.77614 5.05733 3.49306 8.11655 3.49306C9.74177 3.49306 11.2577 4.11601 12.4121 5.24982V6.05483C12.4121 7.24645 13.3816 8.21594 14.5732 8.21594H17.0408C17.3663 8.21594 17.6302 7.95207 17.6302 7.62656C17.6302 7.30096 17.3663 7.03718 17.0408 7.03718H14.5732C14.0315 7.03718 13.5909 6.59652 13.5909 6.05483V5.59605H22.8482V6.05483C22.8482 6.59652 22.4076 7.03718 21.8659 7.03718H19.3983C19.0728 7.03718 18.8089 7.30104 18.8089 7.62656C18.8089 7.95207 19.0728 8.21594 19.3983 8.21594H21.8659C23.0575 8.21594 24.027 7.24645 24.027 6.05483V5.24982C25.1814 4.11593 26.6973 3.49306 28.3225 3.49306C31.3817 3.49306 33.998 5.77614 34.4081 8.80375C34.4111 8.82579 34.4152 8.84744 34.4207 8.86869L37.0698 24.6445C37.3478 26.2999 36.4592 27.9054 34.9089 28.5489C33.9809 28.9342 32.9659 28.9172 32.0512 28.5013C31.1365 28.0854 30.4566 27.3319 30.1367 26.3793L29.5942 24.7637C29.4905 24.4552 29.1563 24.2887 28.8477 24.3927C28.5392 24.4963 28.373 24.8304 28.4767 25.139L29.0192 26.7546C29.4381 28.002 30.3654 29.0298 31.5633 29.5744C32.187 29.8579 32.8609 30 33.5354 30C34.1566 30 34.7782 29.8794 35.3608 29.6375C37.421 28.7826 38.6018 26.6491 38.2324 24.4494ZM6.53086 2.49047V1.76822C6.53086 1.44317 6.79527 1.17884 7.12024 1.17884H9.34292C9.66796 1.17884 9.9323 1.44325 9.9323 1.76822V2.54004C9.347 2.39164 8.73864 2.31438 8.11663 2.31438C7.57392 2.31438 7.04329 2.37587 6.53086 2.49047ZM26.5069 2.54004V1.76822C26.5069 1.44317 26.7713 1.17884 27.0963 1.17884H29.319C29.644 1.17884 29.9084 1.44325 29.9084 1.76822V2.49047C29.3959 2.37587 28.8653 2.31438 28.3226 2.31438C27.7006 2.31438 27.0922 2.39164 26.5069 2.54004Z" fill="black"/>
</svg>
