<svg width="2" height="4" viewBox="0 0 2 4" fill="none" xmlns="http://www.w3.org/2000/svg">
<path d="M0.937053 3.44521C0.959734 3.51317 0.995575 3.57598 1.04253 3.63008C1.08949 3.68418 1.14665 3.72851 1.21073 3.76052C1.27482 3.79253 1.34458 3.81161 1.41604 3.81666C1.4875 3.82171 1.55925 3.81263 1.6272 3.78995C1.69516 3.76727 1.75797 3.73143 1.81207 3.68447C1.86617 3.63751 1.9105 3.58036 1.94251 3.51627C1.97452 3.45218 1.99359 3.38242 1.99864 3.31096C2.00369 3.2395 1.99462 3.16775 1.97194 3.09979L1.06295 0.372799C1.04027 0.304847 1.00443 0.242028 0.957467 0.187927C0.910509 0.133827 0.853357 0.0895066 0.78927 0.0574948C0.725184 0.0254829 0.655418 0.00640722 0.583959 0.00135716C0.512501 -0.00369289 0.44075 0.00538162 0.372798 0.0280622C0.304847 0.0507427 0.242026 0.0865848 0.187927 0.133543C0.133827 0.180501 0.0895065 0.237656 0.0574949 0.301743C0.0254833 0.36583 0.00640711 0.435594 0.00135709 0.507053C-0.00369292 0.578512 0.00538221 0.650267 0.0280626 0.718219L0.937053 3.44521Z" fill="black"/>
</svg>
