<svg width="13" height="20" viewBox="0 0 13 20" fill="none" xmlns="http://www.w3.org/2000/svg">
<path d="M6.36365 9.09093C3.85823 9.09093 1.81823 7.46002 1.81823 5.45454C1.81823 3.44906 3.85823 1.81815 6.36365 1.81815C8.86907 1.81815 10.9091 3.44906 10.9091 5.45454C10.9091 5.95636 11.3164 6.36366 11.8182 6.36366C12.32 6.36366 12.7273 5.95636 12.7273 5.45454C12.7273 2.4473 9.87279 0 6.36365 0C2.85451 0 0 2.4473 0 5.45454C0 8.46178 2.85451 10.9091 6.36365 10.9091C8.86907 10.9091 10.9091 12.54 10.9091 14.5455C10.9091 16.5509 8.86907 18.1819 6.36365 18.1819C3.85823 18.1819 1.81823 16.5509 1.81823 14.5455C1.81823 14.0436 1.41093 13.6363 0.909117 13.6363C0.4073 13.6363 0 14.0436 0 14.5455C0 17.5527 2.85451 20 6.36365 20C9.87279 20 12.7273 17.5527 12.7273 14.5455C12.7273 11.5382 9.87279 9.09093 6.36365 9.09093Z" fill="black"/>
</svg>
