<svg width="2" height="2" viewBox="0 0 2 2" fill="none" xmlns="http://www.w3.org/2000/svg">
<path d="M0.970667 0.179521L0.175979 0.974204C0.0632922 1.0869 -9.39563e-06 1.23975 1.04601e-09 1.39912C9.39773e-06 1.55849 0.0633294 1.71133 0.176029 1.82402C0.288729 1.93671 0.441578 2.00001 0.600951 2C0.760323 1.99999 0.913164 1.93667 1.02585 1.82397L1.82054 1.02919C1.87708 0.97355 1.92204 0.907268 1.95283 0.834167C1.98363 0.761066 1.99964 0.682591 1.99996 0.603269C2.00027 0.523947 1.98487 0.44535 1.95466 0.372007C1.92444 0.298665 1.88001 0.232031 1.82391 0.175948C1.76782 0.119865 1.70117 0.0754423 1.62782 0.0452448C1.55447 0.0150473 1.47587 -0.000327031 1.39655 5.27398e-06C1.31722 0.000337579 1.23875 0.0163715 1.16566 0.0471825C1.09256 0.0779935 1.02629 0.12297 0.970667 0.179521Z" fill="black"/>
</svg>
