<svg width="6" height="7" viewBox="0 0 6 7" fill="none" xmlns="http://www.w3.org/2000/svg">
<path d="M5.14283 3.42858C5.14283 2.94516 5.34686 2.49428 5.71714 2.16345C5.89546 2.00056 6 1.76913 6 1.52573C6 1.28233 5.89546 1.05091 5.71714 0.888022C5.08112 0.3154 4.26855 0 3.42858 0C1.53771 0 0 1.53771 0 3.42858C0 5.31946 1.53771 6.85717 3.42858 6.85717C4.26855 6.85717 5.08112 6.54176 5.71714 5.97091C5.89546 5.80803 6 5.5766 6 5.3332C6 5.0898 5.89546 4.85837 5.71714 4.69549C5.34686 4.36281 5.14283 3.91201 5.14283 3.42858ZM3.86227 5.08458C2.81827 5.37089 1.71425 4.52055 1.71425 3.42858C1.71425 2.48399 2.48222 1.71433 3.4285 1.71433C3.57596 1.71433 3.72164 1.7349 3.86219 1.77259C3.58102 2.27659 3.4285 2.84576 3.4285 3.42858C3.42858 4.01141 3.5811 4.58058 3.86227 5.08458Z" fill="black"/>
</svg>
