<svg width="40" height="34" viewBox="0 0 40 34" fill="none" xmlns="http://www.w3.org/2000/svg">
<path d="M39.418 28.5215L34.0939 27.1154C34.1749 26.9739 34.2525 26.8303 34.327 26.6846C35.1118 25.1477 35.5299 23.3738 35.5715 21.4077L39.2606 20.0235C39.6646 19.872 39.8691 19.4216 39.7176 19.0176C39.5661 18.6136 39.1156 18.4091 38.7117 18.5606L35.5193 19.7585C35.3984 18.319 35.0819 16.8901 34.5852 15.5169C35.9943 14.7049 37.0686 13.6985 37.7826 12.5206C40.6623 7.76953 37.4302 0.746481 37.2912 0.449843C37.1576 0.164456 36.8657 -0.0125734 36.5504 0.000785846C36.2231 0.0147701 28.5016 0.398672 25.622 5.14972C25.5065 5.34018 25.3987 5.53846 25.2993 5.74276C24.8072 5.54698 24.3062 5.37823 23.7983 5.238C23.3823 5.123 22.9522 5.36721 22.8373 5.78315C22.7225 6.199 22.9665 6.62931 23.3825 6.74415C29.3082 8.38054 33.6708 14.0229 33.9935 20.331L27.5128 22.7627C27.1088 22.9142 26.9042 23.3646 27.0558 23.7686C27.1735 24.0822 27.4711 24.2756 27.7874 24.2756C27.8785 24.2756 27.9713 24.2595 28.0617 24.2256L33.9819 22.0042C33.8524 23.9117 33.3204 25.4544 32.5246 26.701L27.7544 25.4412C27.3372 25.3311 26.9097 25.5799 26.7996 25.9971C26.6894 26.4143 26.9382 26.8417 27.3554 26.9519L31.4712 28.0388C28.2732 31.3744 22.8544 31.8564 19.9999 31.8564C17.1454 31.8564 11.7267 31.3744 8.52865 28.0388L12.6445 26.9519C13.0617 26.8417 13.3105 26.4143 13.2003 25.9971C13.0902 25.5799 12.6629 25.3309 12.2455 25.4412L7.4753 26.701C6.67945 25.4543 6.14751 23.9117 6.01798 22.0042L11.9381 24.2256C12.0285 24.2595 12.1213 24.2756 12.2125 24.2756C12.5288 24.2756 12.8264 24.0821 12.9441 23.7686C13.0956 23.3646 12.891 22.9142 12.487 22.7627L6.00649 20.331C6.32922 14.0158 10.6978 8.37156 16.6318 6.74025C17.0478 6.62587 17.2924 6.19588 17.1779 5.77986C17.0636 5.36385 16.6336 5.11901 16.2176 5.2337C15.7041 5.37487 15.1978 5.54502 14.7005 5.74291C14.6012 5.53854 14.4934 5.34034 14.3779 5.14987C11.4984 0.398672 3.77691 0.0147701 3.44957 0.000785846C3.13519 -0.0133546 2.84246 0.164378 2.70871 0.449843C2.56973 0.746481 -0.662423 7.76945 2.21723 12.5206C2.93129 13.6985 4.00557 14.7049 5.4147 15.5169C4.91799 16.8901 4.60151 18.319 4.48057 19.7585L1.28826 18.5606C0.884358 18.409 0.433972 18.6136 0.282333 19.0176C0.130772 19.4216 0.335379 19.872 0.739359 20.0235L4.42846 21.4077C4.47002 23.3738 4.88814 25.1476 5.67298 26.6846C5.74735 26.8303 5.82509 26.9739 5.9061 27.1154L0.581939 28.5215C0.164756 28.6317 -0.0840695 29.0591 0.0260856 29.4763C0.118585 29.8266 0.434909 30.0583 0.780921 30.0583C0.846936 30.0583 0.914045 30.0498 0.980919 30.0322L6.84414 28.4838C7.47569 29.2617 8.22701 29.9562 9.09193 30.5601C11.7707 32.4304 15.5426 33.4189 20 33.4189C24.4574 33.4189 28.2292 32.4304 30.908 30.5601C31.7729 29.9562 32.5243 29.2617 33.1558 28.4838L39.0191 30.0322C39.086 30.0498 39.153 30.0583 39.2191 30.0583C39.5651 30.0583 39.8814 29.8266 39.9739 29.4763C40.084 29.0591 39.8352 28.6317 39.418 28.5215ZM26.9581 5.95963C29.0102 2.57412 34.3731 1.77577 36.0847 1.60475C36.7252 3.20153 38.4986 8.32507 36.4465 11.7106C35.8996 12.6128 35.0716 13.4011 33.9803 14.0598C33.7142 13.4941 33.4164 12.9414 33.0879 12.4052C33.8799 11.9148 34.469 11.3559 34.843 10.7388C35.5761 9.52928 35.7291 7.70039 35.2855 5.4501C35.2167 5.10104 35.1328 4.7405 35.0361 4.37847C34.9279 3.97379 34.5199 3.72629 34.1111 3.8177C33.7468 3.89903 33.3883 3.99145 33.0456 4.0923C30.8452 4.74027 29.2947 5.72197 28.5616 6.93157C28.4784 7.06868 28.4026 7.21493 28.3341 7.36953C27.8131 7.0111 27.2738 6.68564 26.7195 6.39541C26.7935 6.24525 26.8733 6.09963 26.9581 5.95963ZM29.6307 8.36202C29.7016 8.12554 29.7911 7.9175 29.8977 7.74133C30.4104 6.89548 31.7186 6.11181 33.4868 5.59112C33.5592 5.56979 33.6325 5.54893 33.7064 5.52846C33.7225 5.60354 33.7378 5.67815 33.7525 5.75213C34.109 7.5607 34.0195 9.08303 33.5067 9.92888C33.2569 10.3411 32.8128 10.7447 32.2103 11.1102C31.4468 10.0881 30.5788 9.16639 29.6307 8.36202ZM7.78968 11.1102C7.1871 10.7447 6.74297 10.3411 6.4932 9.92888C5.93954 9.01546 5.87227 7.46961 6.29227 5.52815C6.36664 5.5487 6.44031 5.56971 6.51305 5.59119C8.28139 6.11189 9.58958 6.89563 10.1022 7.74141C10.2113 7.92133 10.3022 8.12804 10.3739 8.35812C9.42395 9.16334 8.55443 10.0864 7.78968 11.1102ZM3.55347 11.7107C1.50115 8.3246 3.27543 3.19981 3.91558 1.60413C5.6265 1.77303 10.9847 2.56568 13.0418 5.95963C13.1266 6.09963 13.2064 6.24525 13.2806 6.39541C12.7267 6.68532 12.1879 7.01048 11.6674 7.36852C11.5984 7.2154 11.5221 7.06946 11.4384 6.93149C10.7053 5.72197 9.15474 4.74019 6.95437 4.09223C6.61188 3.99137 6.25305 3.89887 5.88813 3.81739C5.47908 3.72606 5.07072 3.97387 4.96299 4.37894C4.45354 6.29361 4.07362 8.95116 5.15705 10.7386C5.53111 11.3557 6.12008 11.9146 6.91218 12.4051C6.58367 12.9413 6.28579 13.494 6.01969 14.0597C4.9283 13.4011 4.10026 12.6128 3.55347 11.7107Z" fill="black"/>
</svg>
