<svg width="30" height="40" viewBox="0 0 30 40" fill="none" xmlns="http://www.w3.org/2000/svg">
<path d="M28.6901 9.3221C28.6901 9.3221 28.6901 9.3221 28.6901 9.3221C29.2603 9.24828 29.6903 8.75905 29.6903 8.18412V4.71242C29.6903 4.13741 29.2603 3.64818 28.6901 3.57443L27.0163 3.35794V2.39473C27.0164 1.07424 25.9421 0 24.6216 0H6.96519C6.64151 0 6.37924 0.262348 6.37924 0.585947C6.37924 0.909546 6.64151 1.17189 6.96519 1.17189H24.6216C25.2959 1.17189 25.8444 1.72042 25.8444 2.39473V30.1316H2.89606C2.25058 30.1316 1.65393 30.344 1.17189 30.7024V2.39473C1.17189 1.72042 1.72042 1.17189 2.39465 1.17189H4.62242C4.9461 1.17189 5.20837 0.909546 5.20837 0.585947C5.20837 0.262348 4.9461 0 4.62242 0H2.39465C1.07424 0 0 1.07424 0 2.39473V35.542C0 37.1389 1.29916 38.4381 2.89606 38.4381H12.504V38.9876C12.504 39.3073 12.6575 39.6117 12.9144 39.8017C13.1685 39.9897 13.5042 40.0506 13.8129 39.956L15.2995 39.5014L16.7861 39.956C17.0917 40.0495 17.4275 39.9919 17.6846 39.8017C17.9415 39.6117 18.095 39.3073 18.095 38.9876V38.4381H19.8638C20.1875 38.4381 20.4498 38.1759 20.4498 37.8522C20.4498 37.5285 20.1875 37.2662 19.8638 37.2662H18.095V35.9996H22.8916C23.2153 35.9996 23.4776 35.7374 23.4776 35.4137C23.4776 35.09 23.2153 34.8278 22.8916 34.8278H4.1246C3.80092 34.8278 3.53865 35.09 3.53865 35.4137C3.53865 35.7374 3.80092 35.9996 4.1246 35.9996H12.5041V37.2662H2.89606C1.94534 37.2662 1.17189 36.4928 1.17189 35.542V33.0277C1.17189 32.0769 1.94534 31.3035 2.89606 31.3035H25.8444V36.0434C25.8444 36.7177 25.2959 37.2662 24.6216 37.2662H22.2067C21.883 37.2662 21.6207 37.5285 21.6207 37.8522C21.6207 38.1759 21.883 38.4381 22.2067 38.4381H24.6216C25.9421 38.4381 27.0163 37.3638 27.0163 36.0434V25.1946L28.6901 24.9781C28.6901 24.9781 28.6902 24.9781 28.6902 24.9781C29.2603 24.9043 29.6903 24.4151 29.6903 23.8402V20.3685C29.6903 19.7934 29.2603 19.3042 28.6901 19.2305L27.0163 19.014V17.3667L28.6901 17.1501C29.2603 17.0764 29.6903 16.5871 29.6903 16.0122V12.5405C29.6903 11.9655 29.2603 11.4763 28.6901 11.4025L27.0163 11.186V9.53867L28.6901 9.3221ZM16.9232 35.9997V38.7725L15.5957 38.3666C15.4019 38.3071 15.1971 38.3073 15.0034 38.3666L13.676 38.7725V35.9997H16.9232ZM28.5184 4.7339V8.16263L27.0163 8.35693V4.5396L28.5184 4.7339ZM28.5184 20.3899V23.8187L27.0163 24.013V20.1956L28.5184 20.3899ZM28.5184 12.5619V15.9906L27.0163 16.1849V12.3675L28.5184 12.5619Z" fill="black"/>
</svg>
