<svg width="40" height="40" viewBox="0 0 40 40" fill="none" xmlns="http://www.w3.org/2000/svg">
<path d="M0.300292 16.6667C2.29639 17.9239 4.60794 18.5896 6.96696 18.5867C7.76724 18.5928 8.56632 18.5236 9.35363 18.38L8.68696 37.2C8.67752 37.4552 8.81475 37.6935 9.0403 37.8133C11.6003 39.1667 14.3336 40 20.0203 40C25.707 40 28.4403 39.1667 31.0003 37.8133C31.2259 37.6935 31.3631 37.4552 31.3536 37.2L30.687 18.38C31.4585 18.5252 32.2419 18.5988 33.027 18.6C35.386 18.6029 37.6975 17.9372 39.6936 16.68C39.9263 16.5149 40.0281 16.2201 39.947 15.9467C37.2803 6.76 33.947 3.16667 33.7936 3.02C33.5003 2.66667 27.5003 0 26.0203 0H14.0203C12.5003 0 6.53363 2.66667 6.20696 3.02C6.06696 3.16667 2.72696 6.76 0.0202916 15.9467C-0.0491107 16.2218 0.0632441 16.5107 0.300292 16.6667ZM1.47363 15.82C1.62029 15.3267 1.76696 14.86 1.92029 14.4C4.05636 15.4913 6.4584 15.9537 8.84696 15.7333C8.98696 16.2667 9.10696 16.72 9.19363 17.0667C6.55516 17.5652 3.82545 17.1291 1.47363 15.8333V15.82ZM8.50696 14.4C6.37905 14.5627 4.24843 14.1214 2.36029 13.1267C3.32612 10.2878 4.65014 7.58377 6.30029 5.08C6.84696 7.84667 7.80029 11.6933 8.50696 14.4133V14.4ZM33.7403 5.06667C35.3929 7.57378 36.7171 10.2826 37.6803 13.1267C35.7906 14.1169 33.6612 14.558 31.5336 14.4C32.2403 11.6933 33.1936 7.84667 33.7403 5.08V5.06667ZM30.847 17.0667C30.9336 16.7267 31.0536 16.2733 31.1936 15.7333C33.5822 15.9537 35.9842 15.4913 38.1203 14.4C38.2736 14.86 38.4203 15.3267 38.567 15.82C36.2175 17.1226 33.4845 17.5569 30.847 17.0467V17.0667ZM20.0203 6.66667C24.6203 6.66667 26.1003 3.04667 26.527 1.47333C26.987 1.58667 27.4603 1.73333 27.927 1.88667C27.4427 5.48189 24.3125 8.12496 20.687 8H19.3536C15.7259 8.13126 12.5921 5.4851 12.1136 1.88667C12.5803 1.73333 13.0536 1.58667 13.5136 1.47333C13.9403 3.04667 15.4203 6.66667 20.0203 6.66667ZM14.847 1.33333H25.1936C24.6374 3.7257 22.4756 5.39715 20.0203 5.33333C17.5641 5.39976 15.4009 3.72718 14.847 1.33333ZM10.847 2.34667C11.5408 6.47255 15.1716 9.45451 19.3536 9.33333H20.687C24.8735 9.46379 28.5115 6.47825 29.2003 2.34667C30.6803 2.91333 31.9736 3.53333 32.6136 3.85333C31.847 8.24 29.3536 17.44 29.3536 17.3667C29.3203 17.52 29.2936 16.3267 29.987 36.8267C27.6803 38 25.187 38.6667 20.0203 38.6667C14.8536 38.6667 12.3603 38 10.0203 36.8267C10.7203 16.16 10.687 17.5267 10.687 17.38C10.467 16.5067 8.2203 8.28667 7.44696 3.85333C8.06696 3.53333 9.35363 2.91333 10.8403 2.34667H10.847Z" fill="black"/>
</svg>
