<svg width="18" height="12" viewBox="0 0 18 12" fill="none" xmlns="http://www.w3.org/2000/svg">
<path d="M2.07693 11.7692H15.9231C17.0701 11.7692 18 10.8394 18 9.6923V7.28307C17.9969 6.43276 17.4757 5.67024 16.6846 5.35846C15.0438 4.75616 14.6077 3.16385 14.5108 1.93846C14.4385 0.856401 13.5459 0.0120567 12.4615 5.23395e-06H5.53846C4.44338 -0.00243086 3.53454 0.845812 3.46154 1.93846C3.37154 3.16385 2.92846 4.75616 1.2877 5.35846C0.507466 5.67899 -0.00141379 6.43957 2.95061e-06 7.28307V9.6923C2.95061e-06 10.8394 0.929873 11.7692 2.07693 11.7692ZM1.38462 7.28307C1.38519 7.01107 1.54499 6.7646 1.79308 6.65308C3.61385 5.96077 4.7077 4.34769 4.86693 2.03539C4.88831 1.67722 5.1798 1.39475 5.53846 1.38462H12.4615C12.8282 1.38396 13.1318 1.66935 13.1538 2.03539C13.3131 4.34769 14.4069 5.98846 16.2277 6.65308C16.4758 6.7646 16.6356 7.01107 16.6362 7.28307V9.6923C16.6362 10.0747 16.3262 10.3846 15.9438 10.3846H2.07693C1.69457 10.3846 1.38462 10.0747 1.38462 9.6923V7.28307Z" fill="black"/>
</svg>
