<svg width="9" height="13" viewBox="0 0 9 13" fill="none" xmlns="http://www.w3.org/2000/svg">
<path d="M4.68364 5.41981C4.67824 5.41804 4.49642 5.38201 4.49101 5.38201C2.65502 5.04544 1.80005 4.48021 1.80005 3.60002C1.80005 2.62439 3.03842 1.80005 4.50181 1.80005C5.91298 1.80005 7.12443 2.56322 7.20358 3.50282C7.245 3.99784 7.6878 4.38841 8.17558 4.32361C8.6706 4.28219 9.0378 3.84664 8.99637 3.35162C8.83446 1.44002 6.90303 0 4.50181 0C2.01959 0 0 1.6146 0 3.60002C0 5.44858 1.40222 6.64561 4.31999 7.18198L4.51439 7.218C6.34498 7.55643 7.19818 8.12157 7.19818 9C7.19818 9.97562 5.96158 10.8 4.49641 10.8C3.08702 10.8 1.87565 10.0368 1.79642 9.0972C1.755 8.60217 1.3176 8.23143 0.824428 8.2764C0.329401 8.31783 -0.0377974 8.75337 0.00363063 9.2484C0.163858 11.1582 2.09705 12.6 4.49819 12.6C6.98041 12.6 9 10.9854 9 9C9 7.15135 7.6014 5.95618 4.68364 5.41981Z" fill="black"/>
</svg>
